<?xml version="1.0" encoding="utf-8"?>
<!-- Generator: Adobe Illustrator 28.4.1, SVG Export Plug-In . SVG Version: 6.00 Build 0)  -->
<svg version="1.1" id="Capa_1" xmlns="http://www.w3.org/2000/svg" xmlns:xlink="http://www.w3.org/1999/xlink" x="0px" y="0px"
	 viewBox="0 0 1000 400" style="enable-background:new 0 0 1000 400;" xml:space="preserve">
<style type="text/css">
	.st0{fill:#B7E2F9;}
	.st1{opacity:0.2;}
	.st2{fill:#84B7CE;}
	.st3{fill:#629DB2;}
	.st4{fill:#FFFFFF;}
	.st5{fill:#D8E4EA;}
	.st6{fill:#5299CE;}
</style>
<g>
	<g>
		<rect y="-3.75" class="st0" width="1004.38" height="266.25"/>
	</g>
	<g class="st1">
		<path class="st2" d="M-1.17,57.42c0,0,196.92,84.94,338.62,35.55c182.23-63.52,240.06-71.35,367.87-47.86
			c129.17,23.74,187.09,68.31,299.27,83.93l-0.15,99.9c0,0-36.96-72.79-194.19-135.97c-141.2-56.74-278.24-36.67-513.92,23.27
			C194.49,142.13-0.62,133.51-0.62,133.51L-1.17,57.42z"/>
	</g>
	<g>
		<path class="st2" d="M506.87,180.46l86.72,59.6l-383.74,5.98l66.44-54.31C346.09,134.66,433.98,130.36,506.87,180.46z"/>
	</g>
	<g>
		<path class="st3" d="M294.66,195.64l86.72,45.8l-383.74,4.6l66.44-41.74C133.88,160.45,221.77,157.15,294.66,195.64z"/>
	</g>
	<g>
		<path class="st3" d="M918.85,187.93l86.72,45.8l-383.74,4.6l66.44-41.74C758.07,152.73,845.96,149.43,918.85,187.93z"/>
	</g>
	<g>
		<rect y="233.06" class="st4" width="1004.38" height="170.84"/>
	</g>
	<g>
		<path class="st5" d="M566.79,324.32c0,2.69-2.17,5.26-6.16,7.66c-14.85,8.93-54.9,15.32-101.97,15.32
			c-47.07,0-87.12-6.39-101.97-15.32c-3.99-2.4-6.16-4.97-6.16-7.66c0-12.69,48.41-22.98,108.13-22.98
			C518.38,301.34,566.79,311.63,566.79,324.32z"/>
	</g>
	<g>
		<path class="st6" d="M560.63,331.98c-14.85,8.93-54.9,15.32-101.97,15.32c-47.07,0-87.12-6.39-101.97-15.32
			c14.85-8.93,54.9-15.32,101.97-15.32C505.73,316.66,545.78,323.05,560.63,331.98z"/>
	</g>
</g>
<g>
	<path class="st4" d="M318.37,148.02H19.91l44.44-5.11c0.77-13.9,12.29-24.95,26.39-24.95c3.44,0,6.74,0.66,9.76,1.86
		c0.88-9.59,8.96-17.11,18.78-17.11c1.73,0,3.4,0.23,4.99,0.67c-0.23-1.4-0.35-2.84-0.35-4.3c0-14.37,11.65-26.02,26.02-26.02
		s26.02,11.65,26.02,26.02c0,0.29-0.01,0.57-0.01,0.86c3.98,1.04,7.6,3.01,10.59,5.66c1.77-12.64,12.64-22.37,25.77-22.37
		c13.02,0,23.8,9.56,25.72,22.04h0.01c5.97,0.64,10.99,4.49,13.28,9.78l0.55,1.46c0.52,1.6,0.81,3.31,0.81,5.08
		c0,1.19-0.12,2.35-0.37,3.47c0.84-0.26,1.7-0.45,2.59-0.56c0.7-0.1,1.43-0.14,2.16-0.14c9.06,0,16.4,7.35,16.4,16.41
		c0,1.7-0.26,3.34-0.74,4.89L318.37,148.02z"/>
</g>
<g>
	<path class="st4" d="M1014.12,107.43l-65.43,0.69c-2.53,7.33-9.49,12.59-17.69,12.59c-6.83,0-12.81-3.66-16.07-9.13
		c-0.25,0.01-0.5,0.02-0.75,0.02c-5.64,0-10.7-2.5-14.13-6.45c-4.03,7.71-12.1,12.97-21.41,12.97c-7.77,0-14.7-3.68-19.12-9.39
		c-5.04,6.24-12.75,10.22-21.39,10.22c-6.3,0-12.11-2.13-16.74-5.68c-1.82,13.41-13.33,23.76-27.25,23.76
		c-11.95,0-22.13-7.64-25.91-18.28c-1.96,0.69-4.07,1.06-6.27,1.06c-10.44,0-18.9-8.46-18.9-18.89c0-2.57,0.51-5.02,1.45-7.24
		l-51.52-0.55l47.23-9.09c-3.02-4.3-4.79-9.53-4.79-15.17c0-14.65,11.88-26.53,26.53-26.53c8.03,0,15.22,3.56,20.07,9.19
		c4.77-8.16,13.62-13.65,23.75-13.65c1.49,0,2.95,0.12,4.37,0.35c-0.98-2.83-1.52-5.85-1.52-9c0-15.19,12.32-27.5,27.51-27.5
		c15.19,0,27.5,12.31,27.5,27.5c0,0.21,0,0.43-0.02,0.64c12.37,2.67,21.64,13.69,21.64,26.86c0,0.26,0,0.52-0.02,0.77
		c1.66-0.5,3.43-0.77,5.26-0.77c4.18,0,8.05,1.38,11.16,3.71C905,52.15,913.12,46.3,922.6,46.3c11.95,0,21.73,9.29,22.52,21.05
		c1.74-0.57,3.6-0.88,5.54-0.88c9.81,0,17.76,7.96,17.76,17.77c0,5.27-2.3,10.01-5.94,13.25L1014.12,107.43z"/>
</g>
</svg>
