<?xml version="1.0" encoding="UTF-8"?>
<svg id="Capa_1" data-name="Capa 1" xmlns="http://www.w3.org/2000/svg" viewBox="0 0 76 102.03">
  <defs>
    <style>
      .cls-1 {
        fill: #000;
        stroke-width: 0px;
      }

      .cls-2 {
        fill: #12a029;
        stroke: #000;
        stroke-miterlimit: 10;
      }
    </style>
  </defs>
  <path class="cls-1" d="M61.36,98.61c-15.4,4.26-30.41,4.37-45.15,1.29-1.23-.26-2.03-1.48-1.77-2.73l.18-.9c.48-2.4,1.8-4.54,3.73-6.05l9.35-7.27c1.47-.6,2.22-1.88,2.55-3.59.16-.84.77-1.51,1.55-1.77-6.06-.99-10.63-3.29-13.89-6.73-.82-.88-.22-2.3.97-2.3h39.5c1.21,0,1.8,1.45.96,2.32-3.3,3.4-7.79,5.69-13.63,6.72.84.21,1.51.86,1.67,1.74.4,2.07,1.43,3.83,3.62,4.99,1.81,1.59,3.76,2.99,6.02,4.02,1.58.71,2.92,1.77,3.96,3.08,1.03,1.32,1.73,2.87,2.02,4.57.19,1.17-.51,2.3-1.65,2.62Z"/>
  <circle class="cls-2" cx="38" cy="38" r="37.5"/>
</svg>