<?xml version="1.0" encoding="utf-8"?>
<!-- Generator: Adobe Illustrator 28.4.1, SVG Export Plug-In . SVG Version: 6.00 Build 0)  -->
<svg version="1.1" id="Capa_1" xmlns="http://www.w3.org/2000/svg" xmlns:xlink="http://www.w3.org/1999/xlink" x="0px" y="0px"
	 viewBox="0 0 1094 490" style="enable-background:new 0 0 1094 490;" xml:space="preserve">
<style type="text/css">
	.st0{fill:#1790C9;}
	.st1{fill:none;stroke:#FC24B4;stroke-width:0.5085;stroke-miterlimit:10;}
	.st2{opacity:0.1;fill:none;stroke:#FFFFFF;stroke-width:6.3135;stroke-linecap:round;stroke-linejoin:round;stroke-miterlimit:10;}
	.st3{opacity:0.35;fill:#1C5872;}
	.st4{fill:#A1F7F0;}
	.st5{fill:#85E0D7;}
</style>
<rect y="0.07" class="st0" width="1093.99" height="489.6"/>
<path class="st1" d="M233.32,303.55"/>
<line class="st2" x1="938.93" y1="20.65" x2="494.63" y2="142.25"/>
<line class="st2" x1="891.17" y1="59.18" x2="446.87" y2="180.79"/>
<line class="st2" x1="1045.73" y1="29.18" x2="601.43" y2="150.79"/>
<line class="st2" x1="1069.52" y1="59.18" x2="625.22" y2="180.79"/>
<path class="st3" d="M-0.09,240.91c0,0,202.13-15.69,310.7,47.03s202.19,6.76,250.72,2.65s130.26,38.04,195.64,29.99
	c65.38-8.06,74.18-97.42,140.61-105.75c66.43-8.33,196.1,125.37,196.1,125.37l-8.72,148.13L3.08,488.54L-0.09,240.91z"/>
<path class="st4" d="M256.66,381.31l132.14,3.64c0,0,115.66-18.65,224.05-3.23c0,0,57.15,22.44,141.88-12.61
	c0,0,246.33-9.81,317.27-14.02c0,0,19.71-7.01,21.68,0v133.24H457.16C457.16,488.33,257.15,400.51,256.66,381.31z"/>
<path class="st5" d="M0.33,488.54V286.78c0,0,55.93-11.53,115.54,28.82c0,0,34.32,20.17,70.45,15.85c0,0,84.9,30.23,104.77,55.45
	c0,0,23.48,12.26,66.84,7.94c0,0,83.1,57.74,108.39,93.7H0.33z"/>
</svg>
