<?xml version="1.0" encoding="utf-8"?>
<!-- Generator: Adobe Illustrator 26.0.0, SVG Export Plug-In . SVG Version: 6.00 Build 0)  -->
<svg version="1.1" id="Capa_1" xmlns="http://www.w3.org/2000/svg" xmlns:xlink="http://www.w3.org/1999/xlink" x="0px" y="0px"
	 viewBox="0 0 1200 540" style="enable-background:new 0 0 1200 540;" xml:space="preserve">
<style type="text/css">
	.st0{fill:#975340;}
	.st1{fill:#94B2CC;}
	.st2{fill:#B0BFDC;}
	.st3{fill:#FB6B84;}
	.st4{fill:#E1053B;}
	.st5{fill:#FA9E5F;}
	.st6{fill:#FA7182;}
	.st7{fill:#DA406C;}
	.st8{fill:#1EB1D8;}
	.st9{fill:#FFCFC8;}
	.st10{fill:none;}
	.st11{fill:#96CAD6;}
	.st12{fill:#DD8FA4;}
	.st13{fill:#C53065;}
	.st14{fill:#FFFFFF;}
	.st15{fill:#5EAACC;}
	.st16{fill:#B82653;}
	.st17{fill:#FFFFFF;stroke:#040505;stroke-width:0.9966;stroke-miterlimit:10;}
	.st18{fill:#D63F6A;}
	.st19{fill:none;stroke:#7E99B2;stroke-width:0.4983;stroke-miterlimit:10;}
	.st20{fill:url(#SVGID_1_);}
	.st21{fill:#D8A9A4;}
	.st22{fill:#FFADB7;}
	.st23{opacity:0.32;fill:#96CAD6;enable-background:new    ;}
	.st24{fill:#EB9D2C;}
	.st25{fill:#FF8730;}
	.st26{fill:#F6A94E;}
	.st27{fill:#92A245;}
	.st28{fill:#EB62C9;}
	.st29{fill:#E46BFF;}
	.st30{fill:#F685E9;}
	.st31{fill:#A27C69;}
	.st32{fill:#765CEB;}
	.st33{fill:#646FFF;}
	.st34{fill:#8C80F6;}
	.st35{fill:#A26685;}
</style>
<polygon class="st0" points="-0.2,94.9 71.2,122.4 65.9,482.5 -0.2,537.4 "/>
<polygon class="st0" points="1.6,121 53.8,145.5 49.9,465.9 1.6,514.8 "/>
<ellipse class="st1" cx="61.3" cy="323.5" rx="12.8" ry="11.3"/>
<polygon class="st2" points="50.6,317.1 32.9,319.4 33.7,330.6 53.8,329.5 "/>
<rect x="0.8" y="1.9" class="st3" width="1199.2" height="538.2"/>
<polyline class="st4" points="575,397.3 658.5,507.7 956.5,507.2 959.2,434.4 773.2,365.9 581.3,380.3 575,397.3 "/>
<polygon class="st5" points="272.4,384.4 113.5,540.2 143.7,539.7 315.9,359.2 280,357.9 281.1,384.9 "/>
<polygon class="st5" points="181.4,380.3 180.6,385.3 0.4,539.7 29.4,539.7 206.3,382.6 183.1,382.6 "/>
<polygon class="st5" points="206.3,382.6 29.4,539.7 56.7,540.2 226.6,383.1 "/>
<polygon class="st5" points="226.6,383.1 56.7,540.2 83.9,540.2 249.2,383.8 "/>
<polygon class="st5" points="248,384 83.9,540.2 113.5,540.2 272.4,384.4 "/>
<polygon class="st5" points="315.9,359.2 143.7,539.7 174.4,540.2 336.8,358.8 "/>
<polygon class="st5" points="336.8,358.8 174.4,540.2 204.6,540.2 360,359.2 "/>
<polygon class="st5" points="360,359.2 204.6,540.2 232.4,540.7 382.1,359.7 "/>
<polygon class="st5" points="382.1,359.7 232.4,540.7 263.7,540.7 403.5,360.1 "/>
<polygon class="st5" points="403.5,360.1 263.7,540.7 292.2,540.2 425,359.7 "/>
<polygon class="st5" points="425,359.7 292.2,540.2 322.9,540.2 448.8,360.1 "/>
<polygon class="st5" points="448.8,360.1 322.9,540.2 353.7,540.7 473.7,361.1 "/>
<polygon class="st5" points="473.7,361.1 353.7,540.7 383.8,540.7 499.3,361.1 "/>
<polygon class="st5" points="499.3,361.1 383.8,540.7 414.6,540.7 523.6,362.4 "/>
<polygon class="st5" points="523.6,362.4 414.6,540.7 443.6,539.7 546.2,361.5 "/>
<polygon class="st5" points="546.2,361.5 443.6,539.7 473.2,540.7 568.7,362.6 "/>
<polygon class="st5" points="568.7,362.6 473.2,540.7 503.3,540.2 "/>
<polygon class="st5" points="568.7,362.6 565.4,428.9 532.3,540.7 503.3,540.2 "/>
<polygon class="st5" points="565.4,428.9 532.3,540.7 561.3,540.7 581,445.8 "/>
<polygon class="st5" points="581,445.8 561.3,540.7 588.6,539.7 600.2,469.2 "/>
<polygon class="st5" points="600.2,469.2 588.6,539.7 614.7,540.2 619.3,488.9 "/>
<polygon class="st5" points="619.3,488.9 614.7,540.2 645.4,539.7 "/>
<polygon class="st5" points="645.4,539.7 662.5,540 619.3,488.9 "/>
<polygon class="st6" points="183.1,382.6 0.4,539.7 2.1,23.9 168,102.7 172.1,129.2 180.8,135.7 "/>
<polyline class="st7" points="955,43.6 1104.8,1.1 1067.9,1.5 955.6,31.2 955,43.6 "/>
<polygon class="st4" points="959.2,434.4 1094.3,507.4 956.5,507.2 "/>
<polygon class="st8" points="711.3,363.3 280.7,363.1 276.2,102.7 711.3,104.8 "/>
<path class="st9" d="M659.8,539.8l-1.1-31.8l437.5-0.8l0.7,32.9C1096.3,540.3,659.6,541.5,659.8,539.8z"/>
<polygon class="st9" points="659.6,536.5 565.4,428.1 567.1,388.6 658.5,507.7 "/>
<line class="st10" x1="587.1" y1="384.9" x2="649.8" y2="454.3"/>
<path class="st10" d="M666.3,462.5c0,0,8.7,4.8,20.9,3.4"/>
<line class="st10" x1="715" y1="465.3" x2="807.3" y2="464.6"/>
<line class="st10" x1="867.2" y1="464.6" x2="955.3" y2="466"/>
<polygon class="st7" points="955,43.6 736.3,124.2 723,122.8 955.6,31.2 "/>
<polygon class="st7" points="908.7,2.8 873.9,2.4 717.4,88 721.3,100.1 "/>
<path class="st11" d="M722,99.9l-13.3-0.3l-9.9,3.1l-1.1-10.2c0,0,4.9-3.7,5.7-5.7l16.5,1.2l0.4,8.9L722,99.9z"/>
<polygon class="st11" points="698.7,105 168,102.7 170.3,91.2 699.6,92.6 "/>
<polygon class="st12" points="875.8,2.4 717.6,88.2 704.2,87.6 697.3,92.8 527.7,91.1 520.3,77.4 372.8,77 367,90.8 168,91.4 
	2.1,2.1 "/>
<polygon class="st11" points="170.3,91.2 2.1,2.1 2.1,23.9 168,105 "/>
<polygon class="st13" points="708.8,304.7 691.3,304.7 692.5,134.7 699.1,127.4 699.1,102.7 708.8,99.5 "/>
<polygon class="st14" points="735.4,303.8 708.1,304.7 708.1,99.5 722,99.9 722.6,122.8 735.9,124.2 "/>
<line class="st10" x1="169.8" y1="128.8" x2="168" y2="105"/>
<polyline class="st7" points="708.1,99.5 722,99.9 722.6,122.8 735.9,124.2 735.4,303.8 708.1,304.7 "/>
<polygon class="st8" points="1.5,130.1 92.5,153.1 92.5,464.5 -0.5,542.3 "/>
<path class="st15" d="M293.6,360.7"/>
<polygon class="st16" points="280.7,362.6 301.8,363.1 281.1,384.9 "/>
<path class="st17" d="M181.4,380.3"/>
<polygon class="st18" points="276.2,102.7 170.2,100.6 183.1,382.6 281.1,384.9 "/>
<g>
	<path class="st19" d="M432.6,165.5l0.2-0.3c0.5-0.6,1.4-0.5,1.7,0.3l1.3,3.1l-3-1.5C432.3,166.9,432.1,166.1,432.6,165.5z"/>
	<g>
		<path class="st19" d="M444.9,170.9v-0.3c-0.1-0.8-0.8-1.3-1.5-0.9l-2.8,1.5l3.1,0.9C444.3,172.2,444.9,171.6,444.9,170.9z"/>
	</g>
	<path class="st19" d="M434.8,164.4c0,0-3.9-5.1-5-7c-0.2-0.3-0.2-0.7,0-1.1l0,0c0.4-0.7,1.3-0.9,1.8-0.3c0.2,0.2,0.4,0.5,0.7,0.8
		c0.3,0.4,0.6,0.9,0.9,1.3C433.8,159.1,434.9,161.1,434.8,164.4z"/>
	<path class="st19" d="M434.6,154c2.6,7.6,1.4,10.1,1.4,10.1c-0.8-5.2-3.3-8.1-4.5-9.2c-0.6-0.5-0.8-1.4-0.6-2.2
		c0.1-0.4,0.3-0.8,0.8-1.1C433.1,151,434.2,152.9,434.6,154z"/>
	<path class="st19" d="M434.2,151.7c0.9,1.8,3.2,7,2.5,13.6c0,0,3.1-8.1,0.2-15.8c-0.2-0.6-0.7-1.1-1.4-1.2
		c-0.6-0.1-1.4,0.1-1.7,1.2C433.7,150.3,433.8,151.1,434.2,151.7z"/>
	<path class="st19" d="M437.8,165.4c0,0,1.2-8-0.5-16.5c-0.2-0.8,0.1-1.7,0.7-2.1c0.4-0.3,0.9-0.3,1.4,0.2s0.8,1.2,0.8,1.9
		C440.3,151.7,440.1,160.8,437.8,165.4z"/>
	<path class="st19" d="M440.9,148.1c-0.1,3.6-0.6,13.4-3.5,19.4c0,0,4.6-6.5,6.8-18.2c0.1-0.6,0.1-1.3-0.1-1.9
		c-0.2-0.6-0.6-1.2-1.4-1.3C441.7,146,440.9,147,440.9,148.1z"/>
	<g>
		<path class="st19" d="M444,168.9c0,0,6.1-0.1,8.1-0.4c0.4-0.1,0.6-0.3,0.8-0.7l0,0c0.2-0.8-0.2-1.6-1-1.7c-0.3,0-0.6,0-1,0
			c-0.5,0.1-1,0.1-1.5,0.1C448.3,166.3,446.2,166.7,444,168.9z"/>
		<path class="st19" d="M451.4,162.3c-7,2.8-8,5.4-8,5.4c4.1-2.7,7.8-2.5,9.3-2.3c0.7,0.1,1.5-0.2,1.9-0.9c0.2-0.4,0.4-0.8,0.2-1.4
			C454.4,161.6,452.4,161.9,451.4,162.3z"/>
		<path class="st19" d="M453.2,161.2c-1.9,0.4-6.9,1.9-11.1,6.7c0,0,3.6-7.8,10.8-10.4c0.6-0.2,1.3-0.1,1.7,0.3
			c0.5,0.5,0.8,1.2,0.2,2.2C454.5,160.6,453.9,161.1,453.2,161.2z"/>
		<path class="st19" d="M441.3,167c0,0,4.8-6.3,11.7-10.3c0.7-0.4,1.1-1.2,1-2c-0.1-0.5-0.3-0.9-1-1s-1.3,0.2-1.8,0.6
			C449.2,156.1,443,162.2,441.3,167z"/>
		<path class="st19" d="M451.4,153.3c-2.4,2.4-8.9,9.2-11.2,15.5c0,0,1.5-8,8.2-17.5c0.4-0.5,0.8-1,1.4-1.2s1.3-0.3,1.8,0.3
			C452.3,151.2,452.1,152.5,451.4,153.3z"/>
	</g>
	<path class="st19" d="M437.7,169.7c0,0,5.5-13.5,7.1-20.5c0.2-1,1-1.9,2-1.9c0.6,0,1.2,0.2,1.6,0.9c0.3,0.7,0.2,1.6-0.2,2.2
		C446.7,152.7,442,160.1,437.7,169.7z"/>
</g>
<g>
	<path class="st19" d="M402.6,133.1l0.2-0.2c0.4-0.4,1-0.3,1.3,0.2l1,2.4l-2.2-1.1C402.3,134.2,402.2,133.5,402.6,133.1z"/>
	<g>
		<path class="st19" d="M411.7,137.2v-0.3c0-0.6-0.6-1-1.1-0.7l-2.1,1.2l2.4,0.6C411.3,138.1,411.8,137.7,411.7,137.2z"/>
	</g>
	<path class="st19" d="M404.2,132.3c0,0-2.9-3.8-3.8-5.2c-0.1-0.2-0.1-0.6,0-0.8l0,0c0.3-0.5,1-0.7,1.4-0.2c0.2,0.2,0.3,0.4,0.5,0.6
		c0.2,0.3,0.4,0.7,0.7,1C403.5,128.3,404.3,129.8,404.2,132.3z"/>
	<path class="st19" d="M404,124.5c1.9,5.7,1.1,7.6,1.1,7.6c-0.6-3.9-2.5-6-3.3-6.9c-0.4-0.4-0.6-1-0.5-1.6c0.1-0.3,0.3-0.6,0.6-0.8
		C402.9,122.3,403.8,123.7,404,124.5z"/>
	<path class="st19" d="M403.7,122.8c0.7,1.3,2.4,5.2,1.9,10.2c0,0,2.3-6,0.1-11.8c-0.2-0.5-0.6-0.8-1-0.9c-0.5-0.1-1,0.1-1.2,0.9
		C403.4,121.7,403.5,122.3,403.7,122.8z"/>
	<path class="st19" d="M406.5,133c0,0,0.9-6-0.4-12.3c-0.1-0.6,0.1-1.2,0.5-1.6c0.3-0.2,0.7-0.2,1,0.1c0.4,0.4,0.6,0.9,0.6,1.5
		C408.3,122.8,408.2,129.6,406.5,133z"/>
	<path class="st19" d="M408.7,120.1c-0.1,2.7-0.4,10-2.6,14.5c0,0,3.4-4.8,5.1-13.6c0.1-0.5,0.1-1-0.1-1.4c-0.1-0.5-0.4-0.9-1-1
		C409.4,118.5,408.8,119.2,408.7,120.1z"/>
	<g>
		<path class="st19" d="M411.1,135.7c0,0,4.6-0.1,6.1-0.3c0.3,0,0.5-0.2,0.6-0.5l0,0c0.2-0.6-0.2-1.2-0.7-1.3c-0.2,0-0.5,0-0.8,0
			c-0.4,0-0.7,0.1-1.1,0.1C414.3,133.7,412.7,134,411.1,135.7z"/>
		<path class="st19" d="M416.6,130.8c-5.2,2.1-6,4-6,4c3.1-2,5.8-1.9,6.9-1.7c0.5,0.1,1.1-0.1,1.4-0.7c0.2-0.3,0.3-0.6,0.2-1
			C418.9,130.2,417.4,130.4,416.6,130.8z"/>
		<path class="st19" d="M418,129.9c-1.4,0.3-5.2,1.4-8.3,5c0,0,2.7-5.8,8.1-7.8c0.4-0.2,0.9-0.1,1.3,0.3c0.4,0.3,0.6,0.9,0.2,1.6
			C418.9,129.5,418.5,129.8,418,129.9z"/>
		<path class="st19" d="M409.1,134.2c0,0,3.6-4.7,8.8-7.7c0.5-0.3,0.8-0.9,0.7-1.5c-0.1-0.4-0.3-0.7-0.8-0.8c-0.5-0.1-1,0.1-1.4,0.5
			C415,126.1,410.3,130.6,409.1,134.2z"/>
		<path class="st19" d="M416.6,124c-1.8,1.8-6.7,6.9-8.4,11.6c0,0,1.1-6,6.1-13.1c0.3-0.4,0.6-0.7,1-0.9c0.4-0.2,0.9-0.2,1.3,0.3
			C417.3,122.4,417.2,123.4,416.6,124z"/>
	</g>
	<path class="st19" d="M406.4,136.3c0,0,4.1-10.1,5.3-15.4c0.2-0.8,0.8-1.4,1.5-1.4c0.5,0,0.9,0.1,1.2,0.7c0.2,0.5,0.1,1.2-0.2,1.7
		C413.1,123.6,409.6,129.1,406.4,136.3z"/>
</g>
<g>
	<path class="st19" d="M382.8,165.8l0.2-0.3c0.5-0.6,1.4-0.5,1.7,0.3l1.3,3.1l-3-1.5C382.5,167.2,382.3,166.3,382.8,165.8z"/>
	<g>
		<path class="st19" d="M395,171.2v-0.3c-0.1-0.8-0.8-1.3-1.5-0.9l-2.8,1.5l3.1,0.9C394.5,172.5,395.1,171.9,395,171.2z"/>
	</g>
	<path class="st19" d="M384.9,164.6c0,0-3.9-5.1-5-7c-0.2-0.3-0.2-0.7,0-1.1l0,0c0.4-0.7,1.3-0.9,1.8-0.3c0.2,0.2,0.4,0.5,0.7,0.8
		c0.3,0.4,0.6,0.9,0.9,1.3C384,159.3,385.1,161.4,384.9,164.6z"/>
	<path class="st19" d="M384.7,154.3c2.6,7.6,1.4,10.1,1.4,10.1c-0.8-5.2-3.3-8.1-4.5-9.2c-0.6-0.5-0.8-1.4-0.6-2.2
		c0.1-0.4,0.3-0.8,0.8-1.1C383.2,151.3,384.4,153.2,384.7,154.3z"/>
	<path class="st19" d="M384.3,152c0.9,1.8,3.2,7,2.5,13.6c0,0,3.1-8.1,0.2-15.8c-0.2-0.6-0.7-1.1-1.4-1.2c-0.6-0.1-1.4,0.1-1.7,1.2
		C383.9,150.6,384,151.4,384.3,152z"/>
	<path class="st19" d="M388,165.6c0,0,1.2-8-0.5-16.5c-0.2-0.8,0.1-1.7,0.7-2.1c0.4-0.3,0.9-0.3,1.4,0.2s0.8,1.2,0.8,1.9
		C390.4,152,390.3,161.1,388,165.6z"/>
	<path class="st19" d="M391,148.3c-0.1,3.6-0.6,13.4-3.5,19.4c0,0,4.6-6.5,6.8-18.2c0.1-0.6,0.1-1.3-0.1-1.9
		c-0.2-0.6-0.6-1.2-1.4-1.3C391.9,146.3,391.1,147.2,391,148.3z"/>
	<g>
		<path class="st19" d="M394.2,169.2c0,0,6.1-0.1,8.1-0.4c0.4-0.1,0.6-0.3,0.8-0.7l0,0c0.2-0.8-0.2-1.6-1-1.7c-0.3,0-0.6,0-1,0
			c-0.5,0.1-1,0.1-1.5,0.1C398.5,166.5,396.4,167,394.2,169.2z"/>
		<path class="st19" d="M401.5,162.6c-7,2.8-8,5.4-8,5.4c4.1-2.7,7.8-2.5,9.3-2.3c0.7,0.1,1.5-0.2,1.9-0.9c0.2-0.4,0.4-0.8,0.2-1.4
			C404.6,161.9,402.5,162.2,401.5,162.6z"/>
		<path class="st19" d="M403.4,161.5c-1.9,0.4-6.9,1.9-11.1,6.7c0,0,3.6-7.8,10.8-10.4c0.6-0.2,1.3-0.1,1.7,0.3
			c0.5,0.5,0.8,1.2,0.2,2.2C404.7,160.9,404,161.3,403.4,161.5z"/>
		<path class="st19" d="M391.5,167.3c0,0,4.8-6.3,11.7-10.3c0.7-0.4,1.1-1.2,1-2c-0.1-0.5-0.3-0.9-1-1s-1.3,0.2-1.8,0.6
			C399.4,156.4,393.2,162.4,391.5,167.3z"/>
		<path class="st19" d="M401.6,153.5c-2.4,2.4-8.9,9.2-11.2,15.5c0,0,1.5-8,8.2-17.5c0.4-0.5,0.8-1,1.4-1.2s1.3-0.3,1.8,0.3
			C402.5,151.5,402.3,152.8,401.6,153.5z"/>
	</g>
	<path class="st19" d="M387.9,170c0,0,5.5-13.5,7.1-20.5c0.2-1,1-1.9,2-1.9c0.6,0,1.2,0.2,1.6,0.9c0.3,0.7,0.2,1.6-0.2,2.2
		C396.8,153,392.2,160.4,387.9,170z"/>
</g>
<radialGradient id="SVGID_1_" cx="731.5125" cy="194.6655" r="51.8031" gradientTransform="matrix(4.0901 0 0 2.0145 -2477.709 -196.1035)" gradientUnits="userSpaceOnUse">
	<stop  offset="0" style="stop-color:#FFFFFF;stop-opacity:0.5"/>
	<stop  offset="1" style="stop-color:#FFFFFF;stop-opacity:0"/>
</radialGradient>
<polygon class="st20" points="753.2,107 275.3,285.1 313.2,237.8 275.3,234 355.1,207.3 687.5,109.5 "/>
<polygon class="st7" points="254.9,289 708.4,289 708.4,376.1 258,366.3 "/>
<polygon class="st21" points="575,397.3 581.8,380.3 576,372.1 574.9,331.4 569.1,322.3 567.1,389.7 "/>
<polygon class="st9" points="754.6,323.6 755.7,304.7 570.5,305.9 569,323.9 "/>
<polygon class="st9" points="773.2,365.9 770.9,329.6 574.3,331.2 575.5,372 581.3,380.3 774.8,370.5 "/>
<polygon class="st21" points="770.9,329.9 754.7,323.5 569.1,323.8 574.9,331.4 "/>
<path class="st22" d="M609.9,392.7c0,0-5-29.4-6.2-33.3c0,0-8.1-5.9-2.9-10.3c5.2-4.4,7.3,2.2,7.3,2.2s22-14.5,50.9-4.8
	c0,0,6.9-6.8,10-2s-3.9,9.2-3.9,9.2s7.7,19.5,4.2,24.3c0,0-22.4,6.4-28.5,10.7C640.6,388.8,616.9,389.2,609.9,392.7z"/>
<path class="st22" d="M669.1,378.1c0,0,2.5-3.7-4.2-24.3c0,0,5.8-12.5,28.7-10.3s22.9,2.2,22.9,2.2s7.9,14.9,7.9,28.3
	C724.4,373.9,687.4,371.9,669.1,378.1z"/>
<path class="st22" d="M722.9,373.9c0,0-1-20.4-5.4-26.1c0,0-2.9-8.3,3.5-7.2c6.4,1.1,5.4,4.2,5.4,4.2s29.7-7,39.1,5.3
	c0,0,6.2-3.1,7.9,0.9c1.7,3.9-3.9,6.4-3.9,6.4s2.9,22.1,0.8,25.4C770.3,382.7,741.6,373.5,722.9,373.9z"/>
<polygon class="st23" points="276.2,102.7 280.4,288.4 708.4,289 691.7,281.3 692.5,134.7 699.1,127.4 699.1,102.7 "/>
<g>
	<g>
		<path class="st10" d="M54.1,387.3c-4.3,0-7.4,0.4-9.6,1.2c2.9,1.3,4.9,4.2,4.9,7.6c0,3.3-1.9,6.2-4.7,7.5c2.2,0.8,5.3,1.2,9.4,1.2
			c8,0,14.5-7.3,14.5-8.8C68.6,394.6,62.1,387.3,54.1,387.3z"/>
	</g>
	<path class="st24" d="M49.9,397.6c-0.8,0.8-2.1,1.7-3.8,1.7c-3.3,0-4.9-1.1-4.9-3.2c0-2.2,1.6-3.2,4.9-3.2c1.5,0,2.9,0.9,3.8,1.8"
		/>
	<path class="st25" d="M58.5,404.1c0,0.2-1.2,0.9-3.5,1.8c-1.4,0.5-4,1.2-4.5,0.2c-0.1-0.3,0.3-0.8,1.2-1.4"/>
	<g>
		<path class="st10" d="M45.6,388.1c-0.4,0.1-0.7,0.2-1,0.3c0.4,0.2,0.7,0.4,1,0.6C45.6,388.7,45.6,388.4,45.6,388.1z"/>
		<path class="st10" d="M49.7,392.7c-1.2-1.9-1.4-3.7-1.2-5.2c-1.1,0.1-2.1,0.3-2.9,0.6c0,0.3,0,0.6,0,0.9c2.3,1.5,3.8,4.1,3.8,7
			c0,3.3-1.9,6.2-4.7,7.5c0.5,0.2,1.1,0.4,1.8,0.5C48.2,402.2,52.1,396.7,49.7,392.7z"/>
		<path class="st10" d="M54.1,387.3c-2.2,0-4,0.1-5.6,0.3c-0.2,1.4,0.1,3.2,1.2,5.2c2.4,3.9-1.5,9.4-3.2,11.4c2,0.5,4.5,0.7,7.6,0.7
			c8,0,14.5-7.3,14.5-8.8S62.1,387.3,54.1,387.3z"/>
	</g>
	<g>
		<path class="st10" d="M45.6,388.1c-0.4,0.1-0.7,0.2-1,0.3c0.4,0.2,0.7,0.4,1,0.6C45.6,388.7,45.6,388.4,45.6,388.1z"/>
		<path class="st10" d="M49.7,392.7c-1.2-1.9-1.4-3.7-1.2-5.2c-1.1,0.1-2.1,0.3-2.9,0.6c0,0.3,0,0.6,0,0.9c2.3,1.5,3.8,4.1,3.8,7
			c0,3.3-1.9,6.2-4.7,7.5c0.5,0.2,1.1,0.4,1.8,0.5C48.2,402.2,52.1,396.7,49.7,392.7z"/>
		<path class="st10" d="M54.5,387.3c-0.5,1.6-0.6,4,0.9,6.6c2.2,3.7-1,8.7-2.8,10.9c0.5,0,0.9,0,1.4,0c8,0,14.5-7.3,14.5-8.8
			C68.6,394.6,62.3,387.5,54.5,387.3z"/>
		<path class="st10" d="M52.6,393.9c-1.6-2.6-1.4-5-0.9-6.6c-1.2,0-2.2,0.1-3.2,0.3c-0.2,1.4,0.1,3.2,1.2,5.2
			c2.4,3.9-1.5,9.4-3.2,11.4c1,0.2,2.1,0.4,3.4,0.5C51.8,402.3,54.7,397.5,52.6,393.9z"/>
		<path class="st10" d="M55.5,393.9c-1.6-2.6-1.4-5-0.9-6.6c-0.1,0-0.3,0-0.4,0c-0.9,0-1.7,0-2.5,0.1c-0.5,1.6-0.6,4,0.9,6.6
			c2.1,3.6-0.8,8.4-2.7,10.7c0.9,0.1,1.8,0.1,2.8,0.2C54.5,402.5,57.7,397.6,55.5,393.9z"/>
	</g>
	<g>
		<g id="XMLID_00000060006105546350195470000014695006157288114842_">
			<g>
				<path class="st26" d="M68.6,396c0,1-2.8,4.5-7,6.7c1-2.2,1.5-4.7,0.3-6.8c-1.7-2.8-1.4-5.3-0.8-6.9
					C65.5,391.2,68.6,395,68.6,396z"/>
				<g>
					<path class="st24" d="M49.7,392.7c-1.2-1.9-1.4-3.7-1.2-5.2c-1.1,0.1-2.1,0.3-2.9,0.6c-0.4,0.1-0.7,0.2-1,0.3
						c0.4,0.2,0.7,0.4,1,0.6c2.3,1.5,3.8,4.1,3.8,7c0,3.3-1.9,6.2-4.7,7.5c0.5,0.2,1.1,0.4,1.8,0.5
						C48.2,402.2,52.1,396.7,49.7,392.7z"/>
					<path class="st24" d="M54.5,387.3c-0.1,0-0.3,0-0.4,0c-0.9,0-1.7,0-2.5,0.1c-0.5,1.6-0.6,4,0.9,6.6c2.1,3.6-0.8,8.4-2.7,10.7
						c0.9,0.1,1.8,0.1,2.8,0.2c1.8-2.2,5-7.2,2.8-10.9C53.9,391.2,54.1,388.9,54.5,387.3z"/>
					<path class="st24" d="M61.8,395.9c-1.7-2.8-1.4-5.3-0.8-6.9c-0.8-0.4-1.6-0.7-2.5-1c-0.7,1.3-1.7,4.4,0.4,7.9
						c1.6,2.6,0.4,5.9-1,8.3c1.3-0.4,2.5-0.9,3.7-1.5C62.6,400.6,63.1,398,61.8,395.9z"/>
				</g>
				<path class="st26" d="M52.7,404.8c1.8-2.2,5-7.2,2.8-10.9c-1.6-2.6-1.4-5-0.9-6.6c1.4,0,2.7,0.3,4,0.7c-0.7,1.3-1.7,4.4,0.4,7.9
					c1.6,2.6,0.4,5.9-1,8.3c-1.2,0.3-2.5,0.5-3.8,0.5C53.6,404.8,53.1,404.8,52.7,404.8z"/>
				<path class="st26" d="M46.5,404.1c1.7-1.9,5.5-7.4,3.2-11.4c-1.2-1.9-1.4-3.7-1.2-5.2c1-0.1,2-0.2,3.2-0.2
					c-0.5,1.6-0.6,4,0.9,6.6c2.1,3.6-0.8,8.4-2.7,10.7C48.7,404.5,47.5,404.3,46.5,404.1z"/>
			</g>
			<g>
				<path class="st10" d="M45.6,388.1c-0.4,0.1-0.7,0.2-1,0.3c0.4,0.2,0.7,0.4,1,0.6"/>
				<path class="st10" d="M48.5,387.6c-1.1,0.1-2.1,0.3-2.9,0.6c0,0.3,0,0.6,0,0.9c2.3,1.5,3.8,4.1,3.8,7c0,3.3-1.9,6.2-4.7,7.5
					c0.5,0.2,1.1,0.4,1.8,0.5"/>
				<path class="st10" d="M52.7,404.8c0.5,0,0.9,0,1.4,0c1.3,0,2.6-0.2,3.8-0.5"/>
				<path class="st10" d="M58.5,388c-1.3-0.4-2.6-0.7-4-0.7"/>
				<path class="st10" d="M61.6,402.8c4.2-2.3,7-5.8,7-6.7c0-1-3.1-4.8-7.6-7"/>
				<path class="st10" d="M61.6,402.8c1-2.2,1.5-4.7,0.3-6.8c-1.7-2.8-1.4-5.3-0.8-6.9c-0.8-0.4-1.6-0.7-2.5-1
					c-0.7,1.3-1.7,4.4,0.4,7.9c1.6,2.6,0.4,5.9-1,8.3C59.2,403.9,60.5,403.4,61.6,402.8z"/>
				<path class="st10" d="M51.6,387.3c-1.2,0-2.2,0.1-3.2,0.2c-0.1,1.4,0.1,3.2,1.2,5.2c2.4,3.9-1.5,9.4-3.2,11.4
					c1,0.2,2.1,0.4,3.4,0.5"/>
				<path class="st10" d="M52.7,404.8c1.8-2.2,5-7.2,2.8-10.9c-1.6-2.6-1.4-5-0.9-6.6c-0.1,0-0.3,0-0.4,0c-0.9,0-1.7,0-2.5,0.1
					c-0.5,1.6-0.6,4,0.9,6.6c2.1,3.6-0.8,8.4-2.7,10.7C50.8,404.7,51.7,404.8,52.7,404.8z"/>
			</g>
		</g>
	</g>
	<path class="st27" d="M44.2,393c-2,0.4-2.9,1.4-2.9,3c0,1.7,1,2.7,2.9,3C41.3,396.3,44.1,393.1,44.2,393z"/>
	<path class="st14" d="M66.1,394.7c0,1-0.8,1.9-1.9,1.9c-1,0-1.9-0.8-1.9-1.9c0-1,0.8-1.9,1.9-1.9C65.3,392.8,66.1,393.6,66.1,394.7
		z"/>
	<path d="M65.4,394.7c0,0.6-0.5,1.1-1.1,1.1s-1.1-0.5-1.1-1.1s0.5-1.1,1.1-1.1C64.9,393.5,65.4,394,65.4,394.7z"/>
</g>
<g>
	<g>
		<path class="st10" d="M55.7,294.4c-4.3,0-7.4,0.4-9.6,1.2c2.9,1.3,4.9,4.2,4.9,7.6c0,3.3-1.9,6.2-4.7,7.5c2.2,0.8,5.3,1.2,9.4,1.2
			c8,0,14.5-7.3,14.5-8.8C70.1,301.7,63.6,294.4,55.7,294.4z"/>
	</g>
	<path class="st28" d="M51.5,304.7c-0.8,0.8-2.1,1.7-3.8,1.7c-3.3,0-4.9-1.1-4.9-3.2c0-2.2,1.6-3.2,4.9-3.2c1.5,0,2.9,0.9,3.8,1.8"
		/>
	<path class="st29" d="M60,311.2c0,0.2-1.2,0.9-3.5,1.8c-1.4,0.5-4,1.2-4.5,0.2c-0.1-0.3,0.3-0.8,1.2-1.4"/>
	<g>
		<path class="st10" d="M47.1,295.2c-0.4,0.1-0.7,0.2-1,0.3c0.4,0.2,0.7,0.4,1,0.6C47.1,295.8,47.1,295.5,47.1,295.2z"/>
		<path class="st10" d="M51.2,299.9c-1.2-1.9-1.4-3.7-1.2-5.2c-1.1,0.1-2.1,0.3-2.9,0.6c0,0.3,0,0.6,0,0.9c2.3,1.5,3.8,4.1,3.8,7
			c0,3.3-1.9,6.2-4.7,7.5c0.5,0.2,1.1,0.4,1.8,0.5C49.8,309.3,53.6,303.8,51.2,299.9z"/>
		<path class="st10" d="M55.7,294.4c-2.2,0-4,0.1-5.6,0.3c-0.2,1.4,0.1,3.2,1.2,5.2c2.4,3.9-1.5,9.4-3.2,11.4c2,0.5,4.5,0.7,7.6,0.7
			c8,0,14.5-7.3,14.5-8.8C70.1,301.7,63.6,294.4,55.7,294.4z"/>
	</g>
	<g>
		<path class="st10" d="M47.1,295.2c-0.4,0.1-0.7,0.2-1,0.3c0.4,0.2,0.7,0.4,1,0.6C47.1,295.8,47.1,295.5,47.1,295.2z"/>
		<path class="st10" d="M51.2,299.9c-1.2-1.9-1.4-3.7-1.2-5.2c-1.1,0.1-2.1,0.3-2.9,0.6c0,0.3,0,0.6,0,0.9c2.3,1.5,3.8,4.1,3.8,7
			c0,3.3-1.9,6.2-4.7,7.5c0.5,0.2,1.1,0.4,1.8,0.5C49.8,309.3,53.6,303.8,51.2,299.9z"/>
		<path class="st10" d="M56.1,294.4c-0.5,1.6-0.6,4,0.9,6.6c2.2,3.7-1,8.7-2.8,10.9c0.5,0,0.9,0,1.4,0c8,0,14.5-7.3,14.5-8.8
			C70.1,301.7,63.9,294.6,56.1,294.4z"/>
		<path class="st10" d="M54.1,301c-1.6-2.6-1.4-5-0.9-6.6c-1.2,0-2.2,0.1-3.2,0.3c-0.2,1.4,0.1,3.2,1.2,5.2
			c2.4,3.9-1.5,9.4-3.2,11.4c1,0.2,2.1,0.4,3.4,0.5C53.3,309.4,56.3,304.6,54.1,301z"/>
		<path class="st10" d="M57,301c-1.6-2.6-1.4-5-0.9-6.6c-0.1,0-0.3,0-0.4,0c-0.9,0-1.7,0-2.5,0.1c-0.5,1.6-0.6,4,0.9,6.6
			c2.1,3.6-0.8,8.4-2.7,10.7c0.9,0.1,1.8,0.1,2.8,0.2C56,309.7,59.2,304.7,57,301z"/>
	</g>
	<g>
		<g id="XMLID_00000041284497225953820810000003691655967098685326_">
			<g>
				<path class="st30" d="M70.1,303.1c0,1-2.8,4.5-7,6.7c1-2.2,1.5-4.7,0.3-6.8c-1.7-2.8-1.4-5.3-0.8-6.9
					C67,298.4,70.1,302.1,70.1,303.1z"/>
				<g>
					<path class="st28" d="M51.2,299.9c-1.2-1.9-1.4-3.7-1.2-5.2c-1.1,0.1-2.1,0.3-2.9,0.6c-0.4,0.1-0.7,0.2-1,0.3
						c0.4,0.2,0.7,0.4,1,0.6c2.3,1.5,3.8,4.1,3.8,7c0,3.3-1.9,6.2-4.7,7.5c0.5,0.2,1.1,0.4,1.8,0.5
						C49.8,309.3,53.6,303.8,51.2,299.9z"/>
					<path class="st28" d="M56.1,294.4c-0.1,0-0.3,0-0.4,0c-0.9,0-1.7,0-2.5,0.1c-0.5,1.6-0.6,4,0.9,6.6c2.1,3.6-0.8,8.4-2.7,10.7
						c0.9,0.1,1.8,0.1,2.8,0.2c1.8-2.2,5-7.2,2.8-10.9C55.4,298.4,55.6,296,56.1,294.4z"/>
					<path class="st28" d="M63.4,303c-1.7-2.8-1.4-5.3-0.8-6.9c-0.8-0.4-1.6-0.7-2.5-1c-0.7,1.3-1.7,4.4,0.4,7.9
						c1.6,2.6,0.4,5.9-1,8.3c1.3-0.4,2.5-0.9,3.7-1.5C64.1,307.7,64.6,305.1,63.4,303z"/>
				</g>
				<path class="st30" d="M54.2,311.9c1.8-2.2,5-7.2,2.8-10.9c-1.6-2.6-1.4-5-0.9-6.6c1.4,0,2.7,0.3,4,0.7c-0.7,1.3-1.7,4.4,0.4,7.9
					c1.6,2.6,0.4,5.9-1,8.3c-1.2,0.3-2.5,0.5-3.8,0.5C55.2,311.9,54.7,311.9,54.2,311.9z"/>
				<path class="st30" d="M48,311.2c1.7-1.9,5.5-7.4,3.2-11.4c-1.2-1.9-1.4-3.7-1.2-5.2c1-0.1,2-0.2,3.2-0.2c-0.5,1.6-0.6,4,0.9,6.6
					c2.1,3.6-0.8,8.4-2.7,10.7C50.2,311.6,49,311.4,48,311.2z"/>
			</g>
			<g>
				<path class="st10" d="M47.1,295.2c-0.4,0.1-0.7,0.2-1,0.3c0.4,0.2,0.7,0.4,1,0.6"/>
				<path class="st10" d="M50,294.7c-1.1,0.1-2.1,0.3-2.9,0.6c0,0.3,0,0.6,0,0.9c2.3,1.5,3.8,4.1,3.8,7c0,3.3-1.9,6.2-4.7,7.5
					c0.5,0.2,1.1,0.4,1.8,0.5"/>
				<path class="st10" d="M54.2,311.9c0.5,0,0.9,0,1.4,0c1.3,0,2.6-0.2,3.8-0.5"/>
				<path class="st10" d="M60.1,295.1c-1.3-0.4-2.6-0.7-4-0.7"/>
				<path class="st10" d="M63.1,309.9c4.2-2.3,7-5.8,7-6.7c0-1-3.1-4.8-7.6-7"/>
				<path class="st10" d="M63.1,309.9c1-2.2,1.5-4.7,0.3-6.8c-1.7-2.8-1.4-5.3-0.8-6.9c-0.8-0.4-1.6-0.7-2.5-1
					c-0.7,1.3-1.7,4.4,0.4,7.9c1.6,2.6,0.4,5.9-1,8.3C60.8,311,62,310.5,63.1,309.9z"/>
				<path class="st10" d="M53.2,294.4c-1.2,0-2.2,0.1-3.2,0.2c-0.1,1.4,0.1,3.2,1.2,5.2c2.4,3.9-1.5,9.4-3.2,11.4
					c1,0.2,2.1,0.4,3.4,0.5"/>
				<path class="st10" d="M54.2,311.9c1.8-2.2,5-7.2,2.8-10.9c-1.6-2.6-1.4-5-0.9-6.6c-0.1,0-0.3,0-0.4,0c-0.9,0-1.7,0-2.5,0.1
					c-0.5,1.6-0.6,4,0.9,6.6c2.1,3.6-0.8,8.4-2.7,10.7C52.3,311.8,53.2,311.9,54.2,311.9z"/>
			</g>
		</g>
	</g>
	<path class="st31" d="M45.7,300.1c-2,0.4-2.9,1.4-2.9,3c0,1.7,1,2.7,2.9,3C42.9,303.4,45.6,300.2,45.7,300.1z"/>
	<path class="st14" d="M67.6,301.8c0,1-0.8,1.9-1.9,1.9c-1,0-1.9-0.8-1.9-1.9c0-1,0.8-1.9,1.9-1.9C66.8,299.9,67.6,300.8,67.6,301.8
		z"/>
	<path d="M66.9,301.8c0,0.6-0.5,1.1-1.1,1.1s-1.1-0.5-1.1-1.1s0.5-1.1,1.1-1.1C66.4,300.6,66.9,301.1,66.9,301.8z"/>
</g>
<g>
	<g>
		<path class="st10" d="M24.6,237.1c-4.3,0-7.4,0.4-9.6,1.2c2.9,1.3,4.9,4.2,4.9,7.6c0,3.3-1.9,6.2-4.7,7.5c2.2,0.8,5.3,1.2,9.4,1.2
			c8,0,14.5-7.3,14.5-8.8C39,244.3,32.6,237.1,24.6,237.1z"/>
	</g>
	<path class="st32" d="M20.4,247.4c-0.8,0.8-2.1,1.7-3.8,1.7c-3.3,0-4.9-1.1-4.9-3.2c0-2.2,1.6-3.2,4.9-3.2c1.5,0,2.9,0.9,3.8,1.8"
		/>
	<path class="st33" d="M28.9,253.9c0,0.2-1.2,0.9-3.5,1.8c-1.4,0.5-4,1.2-4.5,0.2c-0.1-0.3,0.3-0.8,1.2-1.4"/>
	<g>
		<path class="st10" d="M16,237.9c-0.4,0.1-0.7,0.2-1,0.3c0.4,0.2,0.7,0.4,1,0.6C16,238.5,16,238.2,16,237.9z"/>
		<path class="st10" d="M20.1,242.5c-1.2-1.9-1.4-3.7-1.2-5.2c-1.1,0.1-2.1,0.3-2.9,0.6c0,0.3,0,0.6,0,0.9c2.3,1.5,3.8,4.1,3.8,7
			c0,3.3-1.9,6.2-4.7,7.5c0.5,0.2,1.1,0.4,1.8,0.5C18.7,252,22.5,246.5,20.1,242.5z"/>
		<path class="st10" d="M24.6,237.1c-2.2,0-4,0.1-5.6,0.3c-0.2,1.4,0.1,3.2,1.2,5.2c2.4,3.9-1.5,9.4-3.2,11.4c2,0.5,4.5,0.7,7.6,0.7
			c8,0,14.5-7.3,14.5-8.8C39,244.3,32.6,237.1,24.6,237.1z"/>
	</g>
	<g>
		<path class="st10" d="M16,237.9c-0.4,0.1-0.7,0.2-1,0.3c0.4,0.2,0.7,0.4,1,0.6C16,238.5,16,238.2,16,237.9z"/>
		<path class="st10" d="M20.1,242.5c-1.2-1.9-1.4-3.7-1.2-5.2c-1.1,0.1-2.1,0.3-2.9,0.6c0,0.3,0,0.6,0,0.9c2.3,1.5,3.8,4.1,3.8,7
			c0,3.3-1.9,6.2-4.7,7.5c0.5,0.2,1.1,0.4,1.8,0.5C18.7,252,22.5,246.5,20.1,242.5z"/>
		<path class="st10" d="M25,237.1c-0.5,1.6-0.6,4,0.9,6.6c2.2,3.7-1,8.7-2.8,10.9c0.5,0,0.9,0,1.4,0c8,0,14.5-7.3,14.5-8.8
			C39,244.4,32.8,237.3,25,237.1z"/>
		<path class="st10" d="M23,243.7c-1.6-2.6-1.4-5-0.9-6.6c-1.2,0-2.2,0.1-3.2,0.3c-0.2,1.4,0.1,3.2,1.2,5.2
			c2.4,3.9-1.5,9.4-3.2,11.4c1,0.2,2.1,0.4,3.4,0.5C22.2,252.1,25.2,247.3,23,243.7z"/>
		<path class="st10" d="M25.9,243.7c-1.6-2.6-1.4-5-0.9-6.6c-0.1,0-0.3,0-0.4,0c-0.9,0-1.7,0-2.5,0.1c-0.5,1.6-0.6,4,0.9,6.6
			c2.1,3.6-0.8,8.4-2.7,10.7c0.9,0.1,1.8,0.1,2.8,0.2C24.9,252.3,28.1,247.4,25.9,243.7z"/>
	</g>
	<g>
		<g id="XMLID_00000082360695534414894190000014173874814163055762_">
			<g>
				<path class="st34" d="M39,245.8c0,1-2.8,4.5-7,6.7c1-2.2,1.5-4.7,0.3-6.8c-1.7-2.8-1.4-5.3-0.8-6.9C36,241,39,244.8,39,245.8z"
					/>
				<g>
					<path class="st32" d="M20.1,242.5c-1.2-1.9-1.4-3.7-1.2-5.2c-1.1,0.1-2.1,0.3-2.9,0.6c-0.4,0.1-0.7,0.2-1,0.3
						c0.4,0.2,0.7,0.4,1,0.6c2.3,1.5,3.8,4.1,3.8,7c0,3.3-1.9,6.2-4.7,7.5c0.5,0.2,1.1,0.4,1.8,0.5C18.7,252,22.5,246.5,20.1,242.5z
						"/>
					<path class="st32" d="M25,237.1c-0.1,0-0.3,0-0.4,0c-0.9,0-1.7,0-2.5,0.1c-0.5,1.6-0.6,4,0.9,6.6c2.1,3.6-0.8,8.4-2.7,10.7
						c0.9,0.1,1.8,0.1,2.8,0.2c1.8-2.2,5-7.2,2.8-10.9C24.3,241,24.5,238.7,25,237.1z"/>
					<path class="st32" d="M32.3,245.7c-1.7-2.8-1.4-5.3-0.8-6.9c-0.8-0.4-1.6-0.7-2.5-1c-0.7,1.3-1.7,4.4,0.4,7.9
						c1.6,2.6,0.4,5.9-1,8.3c1.3-0.4,2.5-0.9,3.7-1.5C33,250.4,33.5,247.8,32.3,245.7z"/>
				</g>
				<path class="st34" d="M23.1,254.6c1.8-2.2,5-7.2,2.8-10.9c-1.6-2.6-1.4-5-0.9-6.6c1.4,0,2.7,0.3,4,0.7c-0.7,1.3-1.7,4.4,0.4,7.9
					c1.6,2.6,0.4,5.9-1,8.3c-1.2,0.3-2.5,0.5-3.8,0.5C24.1,254.6,23.6,254.6,23.1,254.6z"/>
				<path class="st34" d="M17,253.9c1.7-1.9,5.5-7.4,3.2-11.4c-1.2-1.9-1.4-3.7-1.2-5.2c1-0.1,2-0.2,3.2-0.2c-0.5,1.6-0.6,4,0.9,6.6
					c2.1,3.6-0.8,8.4-2.7,10.7C19.1,254.3,18,254.1,17,253.9z"/>
			</g>
			<g>
				<path class="st10" d="M16,237.9c-0.4,0.1-0.7,0.2-1,0.3c0.4,0.2,0.7,0.4,1,0.6"/>
				<path class="st10" d="M18.9,237.4c-1.1,0.1-2.1,0.3-2.9,0.6c0,0.3,0,0.6,0,0.9c2.3,1.5,3.8,4.1,3.8,7c0,3.3-1.9,6.2-4.7,7.5
					c0.5,0.2,1.1,0.4,1.8,0.5"/>
				<path class="st10" d="M23.1,254.6c0.5,0,0.9,0,1.4,0c1.3,0,2.6-0.2,3.8-0.5"/>
				<path class="st10" d="M29,237.8c-1.3-0.4-2.6-0.7-4-0.7"/>
				<path class="st10" d="M32,252.6c4.2-2.3,7-5.8,7-6.7c0-1-3.1-4.8-7.6-7"/>
				<path class="st10" d="M32,252.6c1-2.2,1.5-4.7,0.3-6.8c-1.7-2.8-1.4-5.3-0.8-6.9c-0.8-0.4-1.6-0.7-2.5-1
					c-0.7,1.3-1.7,4.4,0.4,7.9c1.6,2.6,0.4,5.9-1,8.3C29.7,253.7,30.9,253.2,32,252.6z"/>
				<path class="st10" d="M22.1,237.1c-1.2,0-2.2,0.1-3.2,0.2c-0.1,1.4,0.1,3.2,1.2,5.2c2.4,3.9-1.5,9.4-3.2,11.4
					c1,0.2,2.1,0.4,3.4,0.5"/>
				<path class="st10" d="M23.1,254.6c1.8-2.2,5-7.2,2.8-10.9c-1.6-2.6-1.4-5-0.9-6.6c-0.1,0-0.3,0-0.4,0c-0.9,0-1.7,0-2.5,0.1
					c-0.5,1.6-0.6,4,0.9,6.6c2.1,3.6-0.8,8.4-2.7,10.7C21.2,254.5,22.1,254.6,23.1,254.6z"/>
			</g>
		</g>
	</g>
	<path class="st35" d="M14.6,242.8c-2,0.4-2.9,1.4-2.9,3c0,1.7,1,2.7,2.9,3C11.8,246.1,14.5,242.9,14.6,242.8z"/>
	<path class="st14" d="M36.5,244.5c0,1-0.8,1.9-1.9,1.9c-1,0-1.9-0.8-1.9-1.9c0-1,0.8-1.9,1.9-1.9S36.5,243.4,36.5,244.5z"/>
	<path d="M35.8,244.5c0,0.6-0.5,1.1-1.1,1.1s-1.1-0.5-1.1-1.1s0.5-1.1,1.1-1.1C35.3,243.3,35.8,243.8,35.8,244.5z"/>
</g>
</svg>
