<?xml version="1.0" encoding="utf-8"?>
<!-- Generator: Adobe Illustrator 26.0.0, SVG Export Plug-In . SVG Version: 6.00 Build 0)  -->
<svg version="1.1" id="Capa_1" xmlns="http://www.w3.org/2000/svg" xmlns:xlink="http://www.w3.org/1999/xlink" x="0px" y="0px"
	 viewBox="0 0 1200 540" style="enable-background:new 0 0 1200 540;" xml:space="preserve">
<style type="text/css">
	.st0{fill:#FFCFC8;}
	.st1{fill:#FB6B84;}
</style>
<g>
	<path class="st0" d="M437.8,535.5c35.6,3.6,87.2,1.7,99.9-36.7c6.8-20.5-16.7-40.5-49.3-42.2c-0.7,0-1.5-0.1-2.2-0.1
		c-16-0.7-30.8-6-40.4-14.3c-4.8-4.2-10.1-9.3-15.3-15.3c-16-18.5-65.9-15.6-84,10c-23.4,33.1-83.1,23.5-88.7,47.6
		c-3.1,13.4,13.4,59.6,106.7,50.9C388.8,533.3,413.5,533.1,437.8,535.5z"/>
	<ellipse class="st1" cx="326.8" cy="489.6" rx="4.8" ry="3.6"/>
	<ellipse class="st1" cx="388.3" cy="488.6" rx="4.8" ry="3.6"/>
	<ellipse class="st1" cx="269.9" cy="483.2" rx="4.8" ry="3.6"/>
	<ellipse class="st1" cx="476.8" cy="460.2" rx="4.8" ry="3.6"/>
	<ellipse class="st1" cx="522.5" cy="493.4" rx="4.8" ry="3.6"/>
	<ellipse class="st1" cx="303.2" cy="517.6" rx="4.8" ry="3.6"/>
	<ellipse class="st1" cx="343.8" cy="461.5" rx="4.8" ry="3.6"/>
	<ellipse class="st1" cx="424.2" cy="460.2" rx="4.8" ry="3.6"/>
	<ellipse class="st1" cx="389.4" cy="439.4" rx="4.8" ry="3.6"/>
	<ellipse class="st1" cx="454" cy="494.5" rx="4.8" ry="3.6"/>
	<ellipse class="st1" cx="418.4" cy="518.5" rx="4.8" ry="3.6"/>
	<ellipse class="st1" cx="495" cy="513" rx="4.8" ry="3.6"/>
	<ellipse class="st1" cx="349.6" cy="516.4" rx="4.8" ry="3.6"/>
</g>
</svg>
