<?xml version="1.0" encoding="UTF-8"?>
<svg xmlns="http://www.w3.org/2000/svg" xmlns:xlink="http://www.w3.org/1999/xlink" viewBox="0 0 1091.57 506">
  <defs>
    <style>
      .cls-1, .cls-2 {
        fill: none;
      }

      .cls-1, .cls-2, .cls-3, .cls-4 {
        stroke-miterlimit: 10;
        stroke-width: 1.77px;
      }

      .cls-1, .cls-4 {
        stroke: #d3e9e8;
      }

      .cls-2, .cls-3 {
        stroke: #76b1c8;
      }

      .cls-5 {
        fill: #000;
      }

      .cls-5, .cls-6, .cls-7, .cls-8, .cls-9, .cls-10, .cls-11, .cls-12, .cls-13, .cls-14, .cls-15, .cls-16, .cls-17, .cls-18, .cls-19, .cls-20 {
        stroke-width: 0px;
      }

      .cls-6 {
        fill: url(#Degradado_sin_nombre_95);
      }

      .cls-7, .cls-4 {
        fill: #76b1c8;
      }

      .cls-21 {
        filter: url(#outer-glow-1);
      }

      .cls-8 {
        fill: url(#Degradado_sin_nombre_56-3);
      }

      .cls-9 {
        fill: url(#Degradado_sin_nombre_7);
      }

      .cls-10 {
        fill: url(#Degradado_sin_nombre_250-2);
      }

      .cls-11 {
        fill: url(#Degradado_sin_nombre_207);
      }

      .cls-12 {
        fill: url(#Degradado_sin_nombre_134);
      }

      .cls-13 {
        fill: url(#Degradado_sin_nombre_312);
      }

      .cls-14 {
        fill: url(#Degradado_sin_nombre_98);
      }

      .cls-3 {
        fill: #d3e9e8;
      }

      .cls-15 {
        fill: url(#Degradado_sin_nombre_56);
      }

      .cls-15, .cls-16 {
        fill-rule: evenodd;
      }

      .cls-16 {
        fill: url(#Degradado_sin_nombre_56-2);
      }

      .cls-17 {
        fill: url(#Degradado_sin_nombre_106);
      }

      .cls-18 {
        fill: url(#Degradado_sin_nombre_207-2);
      }

      .cls-19 {
        fill: url(#Degradado_sin_nombre_250);
      }

      .cls-20 {
        fill: url(#Degradado_sin_nombre_101);
      }
    </style>
    <linearGradient id="Degradado_sin_nombre_7" data-name="Degradado sin nombre 7" x1="547.72" y1="17.32" x2="543.9" y2="503.3" gradientTransform="translate(.03 -.05)" gradientUnits="userSpaceOnUse">
      <stop offset="0" stop-color="#80c8c2"/>
      <stop offset=".12" stop-color="#6dc0b8"/>
      <stop offset=".53" stop-color="#32a99c"/>
      <stop offset=".84" stop-color="#0d9a8a"/>
      <stop offset="1" stop-color="#009584"/>
    </linearGradient>
    <linearGradient id="Degradado_sin_nombre_312" data-name="Degradado sin nombre 312" x1="109.54" y1="84.71" x2="102.94" y2="248.01" gradientTransform="translate(-2.16 3.19) rotate(-.34)" gradientUnits="userSpaceOnUse">
      <stop offset="0" stop-color="#001d19"/>
      <stop offset=".13" stop-color="#042621"/>
      <stop offset=".6" stop-color="#11433d"/>
      <stop offset=".87" stop-color="#164e48"/>
    </linearGradient>
    <linearGradient id="Degradado_sin_nombre_56" data-name="Degradado sin nombre 56" x1="4.02" y1="318.4" x2="383.44" y2="318.4" gradientTransform="translate(-.09 -.39) rotate(.73) scale(1.01 1)" gradientUnits="userSpaceOnUse">
      <stop offset="0" stop-color="#01312d"/>
      <stop offset=".49" stop-color="#0e443e"/>
      <stop offset=".87" stop-color="#164e48"/>
    </linearGradient>
    <linearGradient id="Degradado_sin_nombre_56-2" data-name="Degradado sin nombre 56" x1="4026.77" y1="335.61" x2="4422.6" y2="335.61" gradientTransform="translate(5116.58 -27.2) rotate(179.66) scale(1 -1)" xlink:href="#Degradado_sin_nombre_56"/>
    <linearGradient id="Degradado_sin_nombre_95" data-name="Degradado sin nombre 95" x1="549.04" y1="484.7" x2="546.28" y2="361.2" gradientTransform="translate(-2.98 -.99) rotate(.1)" gradientUnits="userSpaceOnUse">
      <stop offset="0" stop-color="#04282c"/>
      <stop offset="1" stop-color="#143a4a"/>
    </linearGradient>
    <linearGradient id="Degradado_sin_nombre_207" data-name="Degradado sin nombre 207" x1="69.44" y1="33.04" x2="168.51" y2="33.04" gradientTransform="translate(-2.16 3.19) rotate(-.34)" gradientUnits="userSpaceOnUse">
      <stop offset="0" stop-color="#61644e"/>
      <stop offset=".18" stop-color="#414336"/>
      <stop offset=".4" stop-color="#21231f"/>
      <stop offset=".58" stop-color="#0d1011"/>
      <stop offset=".71" stop-color="#07090c"/>
    </linearGradient>
    <linearGradient id="Degradado_sin_nombre_250" data-name="Degradado sin nombre 250" x1="72.52" y1="35.91" x2="174.5" y2="35.91" gradientTransform="translate(-2.16 3.19) rotate(-.34)" gradientUnits="userSpaceOnUse">
      <stop offset="0" stop-color="#ccaa8b"/>
      <stop offset="1" stop-color="#b17d6b"/>
    </linearGradient>
    <linearGradient id="Degradado_sin_nombre_207-2" data-name="Degradado sin nombre 207" x1="136.57" y1="81.54" x2="137.25" y2="101.01" xlink:href="#Degradado_sin_nombre_207"/>
    <linearGradient id="Degradado_sin_nombre_250-2" data-name="Degradado sin nombre 250" x1="81.06" y1="69.69" x2="193.31" y2="69.69" xlink:href="#Degradado_sin_nombre_250"/>
    <filter id="outer-glow-1" filterUnits="userSpaceOnUse">
      <feOffset dx="0" dy="0"/>
      <feGaussianBlur result="blur" stdDeviation="5"/>
      <feFlood flood-color="#65d4fc" flood-opacity=".95"/>
      <feComposite in2="blur" operator="in"/>
      <feComposite in="SourceGraphic"/>
    </filter>
    <radialGradient id="Degradado_sin_nombre_98" data-name="Degradado sin nombre 98" cx="446.43" cy="347.27" fx="446.43" fy="347.27" r="10.19" gradientTransform="translate(-39.85 -2.52) scale(1.08 .88)" gradientUnits="userSpaceOnUse">
      <stop offset=".62" stop-color="#fff" stop-opacity="0"/>
      <stop offset=".66" stop-color="rgba(255, 255, 255, .03)" stop-opacity=".03"/>
      <stop offset=".74" stop-color="rgba(255, 255, 255, .12)" stop-opacity=".12"/>
      <stop offset=".83" stop-color="rgba(255, 255, 255, .26)" stop-opacity=".26"/>
      <stop offset=".93" stop-color="rgba(255, 255, 255, .45)" stop-opacity=".45"/>
      <stop offset="1" stop-color="#fff" stop-opacity=".6"/>
    </radialGradient>
    <linearGradient id="Degradado_sin_nombre_101" data-name="Degradado sin nombre 101" x1="442.7" y1="301.52" x2="442.85" y2="293.29" gradientTransform="translate(-2.16 3.19) rotate(-.34)" gradientUnits="userSpaceOnUse">
      <stop offset=".62" stop-color="#fff" stop-opacity="0"/>
      <stop offset=".66" stop-color="rgba(255, 255, 255, .03)" stop-opacity=".03"/>
      <stop offset=".74" stop-color="rgba(255, 255, 255, .12)" stop-opacity=".12"/>
      <stop offset=".83" stop-color="rgba(255, 255, 255, .26)" stop-opacity=".26"/>
      <stop offset=".93" stop-color="rgba(255, 255, 255, .45)" stop-opacity=".45"/>
      <stop offset="1" stop-color="#fff" stop-opacity=".6"/>
    </linearGradient>
    <linearGradient id="Degradado_sin_nombre_106" data-name="Degradado sin nombre 106" x1="442.77" y1="160.28" x2="442.62" y2="151.72" gradientTransform="translate(.58 464.69) rotate(-.34) scale(1 -1)" gradientUnits="userSpaceOnUse">
      <stop offset=".62" stop-color="#fff" stop-opacity="0"/>
      <stop offset=".68" stop-color="rgba(233, 247, 246, .05)" stop-opacity=".05"/>
      <stop offset=".78" stop-color="rgba(175, 225, 223, .19)" stop-opacity=".19"/>
      <stop offset=".91" stop-color="rgba(81, 190, 186, .41)" stop-opacity=".41"/>
      <stop offset="1" stop-color="#00a19a" stop-opacity=".6"/>
    </linearGradient>
    <radialGradient id="Degradado_sin_nombre_134" data-name="Degradado sin nombre 134" cx="407.52" cy="139.03" fx="407.52" fy="139.03" r="3.47" gradientTransform="translate(875.64 224.11) rotate(162.58) scale(1.06 .44) skewX(3.28)" gradientUnits="userSpaceOnUse">
      <stop offset="0" stop-color="#fff" stop-opacity=".5"/>
      <stop offset=".15" stop-color="rgba(255, 255, 255, .48)" stop-opacity=".48"/>
      <stop offset=".34" stop-color="rgba(255, 255, 255, .41)" stop-opacity=".41"/>
      <stop offset=".56" stop-color="rgba(255, 255, 255, .3)" stop-opacity=".3"/>
      <stop offset=".79" stop-color="rgba(255, 255, 255, .15)" stop-opacity=".15"/>
      <stop offset="1" stop-color="#fff" stop-opacity="0"/>
    </radialGradient>
    <linearGradient id="Degradado_sin_nombre_56-3" data-name="Degradado sin nombre 56" x1="544.73" y1="532.24" x2="542.1" y2="259.21" gradientTransform="translate(1.46 -21.54) rotate(-.34) scale(1 1.07)" xlink:href="#Degradado_sin_nombre_56"/>
  </defs>
  <g id="Capa_1" data-name="Capa 1">
    <polygon class="cls-9" points="1091.57 502.76 .56 506 .56 0 1091.57 .02 1091.57 502.76"/>
    <g>
      <path class="cls-3" d="M568.95,475.05c-15,10.99-79.34,17.15-79.34,17.15-101.44,7.98-114.57-11.96-114.57-11.96-10-16.98,21.87-31.21,21.87-31.21,19.71-12.76,121.96-28.47,121.96-28.47,4.52-1.08-27.22-13.36-27.22-13.36-1.45-5.96,13.43-7.57,13.43-7.57,0,0-95.54-30.08-182.3,23.93,0,0-10-1.94-10.57-2.99,0,0,2.43-34.9,1.47-38.88,0,0,9.01-5.44,19.73-9.89l.75-16.16,2.82-.89s-1.5-14.22,5.84-17.07c0,0,8.55.48,4.94,17.01l3.08-.19.04,7.38s32.46-8.8,39.79-12.71c0,0,.47-16.69,1.01-20.55,0,0,14.64-10.62,29.62-10.54l1.64-57.79s19.74-23.47,46.08-32.29l1.82-11.02,2.99-3.71,3.42,4.02.61,7.37s2.83.69,5.35-3.37l-.34-9.48s-13.54,5.17-9.98-13.64c0,0-3.46-12.1,18.56-17.15,0,0,18.08-1.86,30.84,4.73,0,0,.8-8.08,14.04-15.19l-.91-58.48,5.07-3.54s-5.48-18.06,6.34-26.91l.16-21.07s2.29-5.23,5.78-9.83c2.43-3.2,9.43-3.78,12.88-.99,3.05,2.47,6.12,5.86,7.05,9.96l1.54,21.59s8.53,7.85,5.78,21.04l5.1,1.2.11,17.91s19.53,4.63,30.07,18.09l2.15,29.14s64.53,35.79,72.96,51.73l.44,74.63,8.33.13s71.89,42.52,94.86,62.82c3.61,3.19,5.59,6.99,5.61,10.9l.65,109.55s-142.58-16.95-208.85-5.32c0,0-17.13-1.99-22.51,1.95Z"/>
      <path class="cls-2" d="M552.17,78.55s4.45-11.5,16.51-12.74"/>
      <path class="cls-2" d="M544.8,106.22s13.06-22.56,25.48-25.44"/>
      <path class="cls-2" d="M541.54,128.02s19.13-15.57,40.63-12.89"/>
      <path class="cls-3" d="M477.17,206.38s18.04-9.24,34.26-6.99l2.4,129.12"/>
      <path class="cls-4" d="M634.93,239.86s49.27-13.76,40.02-34.66l15.46,15.19s-23.21,27.12-43.55,29c0,0-7.39-6.86-11.93-9.53Z"/>
      <path class="cls-7" d="M714.23,393.86c-.78-.98-1.67-2.18-2.64-3.64-5.35-8.08-8.05-16.74-8.23-25.49-.46-21.83-1.48-75.79-.81-96.72.13-3.98.64-7.93,1.57-11.87,2.41-10.25,8.14-31.1,14.96-31.41,9.04-.4,20.01,36.76,16.13,50.48,0,0,14.68,92.99,1.57,121.87,0,0-2.44,9.03-14.78,2.91-3.31-1.64-5.89-3.77-7.76-6.13Z"/>
      <path class="cls-4" d="M390.66,349.14c-43.53,17.7-52.35,22.91-52.35,22.91"/>
      <path class="cls-3" d="M394.87,375.22c-48.14-14.11-81.19,6.45-81.19,6.45"/>
      <path class="cls-3" d="M437.12,348.86s-50.85,5.69-42.52-19.65c0,0,27.62-14.92,48.03-4.5,0,0-3.95,1.43-4.49,5.3l-1.02,18.86Z"/>
      <line class="cls-2" x1="394.59" y1="329.21" x2="397.06" y2="395.16"/>
      <line class="cls-2" x1="411.67" y1="349.02" x2="411.94" y2="392.93"/>
      <line class="cls-2" x1="422.42" y1="349.43" x2="422.67" y2="391.92"/>
      <line class="cls-2" x1="437.12" y1="348.86" x2="437.37" y2="391.29"/>
      <line class="cls-2" x1="592.65" y1="123.88" x2="592.9" y2="167.17"/>
      <path class="cls-2" d="M585.22,121.44l-2.46,93.21s87.38,20.91,80.35,89.09c0,0,21.06-10.92,41.01-5.64"/>
      <path class="cls-7" d="M499.63,180.79s-1.37-9.2,3.69-13.09c0,0,2.16-16.87,4.99-17.24,2.82-.37,7.45,17.17,7.45,17.17,0,0,1.18,7.57.09,15.55,0,0-8.03-2.6-16.22-2.39Z"/>
      <path class="cls-7" d="M655.09,191.33s1.55-8.38,4.37-10.51c0,0-.18-22.83,3.24-22.5s9.72,14.19,9.77,23.93c0,0,5.35,16.84,2.48,22.95l-19.86-13.87Z"/>
      <path class="cls-3" d="M551.59,297.02l-.63-106.07s1.64-10.2,31.65-2.65l.22,37.23"/>
      <path class="cls-3" d="M574.07,369.78l-.84-141.96s16.38-2.79,24.92,7.58l.46,77.15s-5.52,22.86,5.85,33.33c0,0,17.55,3.76,13.63,10.81,0,0-20.82,16.29-44.02,13.09Z"/>
      <polyline class="cls-3" points="574.07 369.78 555.82 374.68 797.64 410.06 799.97 421.29 552.12 387.29 555.82 374.68"/>
      <polyline class="cls-4" points="482.85 211.79 483.04 243.69 477.44 252.15 477.84 224.64"/>
      <path class="cls-4" d="M469,227.97l.09,15.45s-20.15,2.93-20.08,15.22l.23,38.99,10.06-3.57-.23-38.28s-.78-5.09,6.27-6.54l.33,8.43-6.57,4.25.07,11.77s8.84-2.34,13.42,6.94c0,0,13.27-2.54,14.71.79l.07,11.77s5.66,1.02,7.08,2.24l-.18-30.56s-6.45-7.86-16.8-4.99l10.85-14.46,23.31-9.5"/>
      <path class="cls-4" d="M487.32,281.42l-.65-13.52c-1.44-4.91-9.16-3.46-9.16-3.46l1.21,15.39"/>
      <path class="cls-7" d="M427.8,255.06s1-22.46,3.23-27.92c0,0-.67-17.73,6.11-18.3,0,0,6.79,1.32,4.92,19.44,0,0,6.52,3.84,4.03,11.59l-18.29,15.19Z"/>
      <path class="cls-3" d="M532.86,285.54c2.9,11.92,18.74,13.46,18.74,13.46,9.05-.18,22.12,10.89,22.12,10.89,0,0,7.06-16.9,24.76-20.05"/>
      <path class="cls-3" d="M551.13,219.75s-20.93-2.1-20.87,8.32l3.32,177.94"/>
      <path class="cls-3" d="M442.63,324.71s55.86-19.22,76.95,9.95l.29,49.66"/>
      <path class="cls-3" d="M471.4,393.09l-3.23-52.37s13.7-20.15,33.37-19.01"/>
      <path class="cls-3" d="M493.31,396.68l-.33-55.06s2.8-16.52,26.63-1.91"/>
      <path class="cls-4" d="M447.17,323.34s-17.91-27.7,30.52-29.74,28.5,29.39,28.5,29.39c0,0-21.79-9.57-56.8-1.03"/>
      <path class="cls-4" d="M444.15,315.08s32.29-9.03,67.95-2.12"/>
      <path class="cls-3" d="M598.61,312.55s47-26.62,77.87,2.7l.46,77.15"/>
      <path class="cls-4" d="M597.99,333.11s57.07-10.64,81.03.6"/>
      <path class="cls-1" d="M702.35,280.14s31.94,16.26,38.27,41.45"/>
      <path class="cls-1" d="M704.13,256.13s21.09,5.44,32.4,28.2"/>
      <path class="cls-1" d="M708.59,240.38s19.91,12.03,26.63,18.32"/>
      <path class="cls-7" d="M597.33,322.45s55.81-5.31,79.21,2.98l-4.4-8.05-5.11,5.65-3.41-7.36-8.66,5.85-5.85-7.66-8.97,6.96-6.3-6.87-7.12,6.95-8.32-6.86-6.76,7.39-6.43-5.53-4.3,6.24"/>
      <path class="cls-4" d="M373.28,355.37s-.64-9.98,2.15-16.55c0,0,2.35-16.99,5.93-17.01s5.75,16.72,5.75,16.72c0,0,3.49,7.36,2.35,11.1l-16.18,5.74Z"/>
      <path class="cls-7" d="M556.84,387.93l.41,68.63s-2.38,8.08,14.53,17.18c0,0-19.14.3-22.65-18.65,0,0-88.76,1-90.52-8.71,0,0,11.86-2.32,61.56-11.26,0,0,44.25-5.02,28.69-23.91,0,0-29.22-11.58-46.9-16.67,0,0-84.56-31.35-176.99,18,0,0,1.55-24.61-.18-30.92,0,0,37.96-12.17,65.07-4.25"/>
      <line class="cls-2" x1="575.34" y1="390.47" x2="575.46" y2="411.85"/>
      <line class="cls-2" x1="589.32" y1="392.39" x2="589.42" y2="409.3"/>
      <line class="cls-2" x1="604.49" y1="394.47" x2="604.56" y2="407.58"/>
      <path class="cls-3" d="M556.89,416.53s61.48-19.8,120.16-4.93c0,0,59.71,14.91,113.25,8.36"/>
      <line class="cls-2" x1="618.92" y1="397.19" x2="618.97" y2="406.25"/>
      <line class="cls-2" x1="633.99" y1="398.52" x2="634.04" y2="406.03"/>
      <line class="cls-2" x1="647.72" y1="400.4" x2="647.75" y2="406.8"/>
      <line class="cls-2" x1="666.8" y1="402.49" x2="666.84" y2="409.35"/>
      <line class="cls-2" x1="682.18" y1="405.13" x2="682.23" y2="412.65"/>
      <line class="cls-2" x1="696.17" y1="407.05" x2="696.22" y2="415.35"/>
      <line class="cls-2" x1="713.35" y1="409.4" x2="713.4" y2="417.88"/>
      <line class="cls-2" x1="731.13" y1="411.84" x2="731.18" y2="420.04"/>
      <line class="cls-2" x1="751.91" y1="414.69" x2="751.95" y2="421.48"/>
      <line class="cls-2" x1="770.38" y1="421.57" x2="770.7" y2="475.35"/>
      <line class="cls-2" x1="733.12" y1="420.38" x2="732.44" y2="472.19"/>
      <line class="cls-2" x1="701.73" y1="416.46" x2="699.91" y2="455.2"/>
      <line class="cls-2" x1="672.3" y1="410.47" x2="671.59" y2="446.99"/>
      <line class="cls-2" x1="646.06" y1="406.67" x2="646.9" y2="446.79"/>
      <line class="cls-2" x1="625.74" y1="406.16" x2="626.95" y2="452.05"/>
      <line class="cls-2" x1="610.22" y1="406.84" x2="612.82" y2="470.47"/>
      <path class="cls-7" d="M557.17,443.45s18.75-2.27,27.52-12.75c.68-.81,1.01-1.71.94-2.62l-1.46-17.91"/>
      <path class="cls-7" d="M612.74,457.35s15.71-9.21,45.57-10.67c9.73-.48,19.44.87,28.08,3.65,13.6,4.39,33.82,12.27,37.66,21.29"/>
      <line class="cls-2" x1="756.82" y1="331.06" x2="752.41" y2="403.44"/>
      <line class="cls-2" x1="769.73" y1="339.72" x2="767.08" y2="405.24"/>
      <path class="cls-3" d="M487.97,390.99s29.77-14.42,45.32-.27"/>
      <line class="cls-2" x1="785.24" y1="350.84" x2="783.16" y2="407.94"/>
    </g>
    <path id="muro" class="cls-13" d="M1.66,96.37l212.24-15.57-.39,14.31s-1.83,13.16-6.58,14.73c-4.75,1.57-16.04,24.46-16.04,24.46,0,0-23.26,12.13-22.28,15.99s-29.35,28.4-29.35,28.4c0,0-56.93,33.59-59.73,42.5-2.8,8.91-26.04,23.74-26.04,23.74,0,0-53.16,26.61-52.18,31.24.98,4.63.36-179.81.36-179.81Z"/>
    <path id="MONTAÑITA" class="cls-15" d="M.56,266s272.78,47.6,382.07,108.98L0,369.23l.56-103.23Z"/>
    <path id="MONTAÑITA-2" data-name="MONTAÑITA" class="cls-16" d="M1091.56,280s-281.94,45.8-395.2,106.99l395-3.2.2-103.79Z"/>
    <path id="MONTAÑA2" class="cls-6" d="M.56,351s358.66,8.43,469.71,33.33c26.08,5.85,53.08,8.37,80.09,7.62,49.34-1.36,127.87-7.25,222.87-27.52,26.9-5.74,54.6-8.49,82.38-8.21,35.77.35,83.08,2.32,111.06,9.54,49.41,12.74,124.89-20.75,124.89-20.75v161H.56v-155Z"/>
    <g id="concha_arriba" data-name="concha arriba">
      <path class="cls-11" d="M67.59,56c.43-1.73.89-3.4,1.45-4.91.94-2.53,2.88-4.73,5.51-6.28h0c1.62-.95,2.86-2.29,3.49-3.83,2.83-7,13.81-17.43,21.75-19,.75-.15,1.45-.45,1.99-.9,7.85-6.49,16.01-9.21,24.49-8.11,1.03.13,2.09.04,3.07-.26,6.06-1.86,11.18-2.49,14.79-1.16,1.09.4,2.32.49,3.49.3,5.83-.91,10.82-1.19,14.06-.13.58.19,1.09.48,1.51.85l3.24,2.86c-45.87,2-78.45,12.53-88.29,44.87-5.16-.49-10.05-1.17-10.55-4.31Z"/>
      <path class="cls-19" d="M131.71,56.12c6.46-3.71,13.63-6.86,21.72-9.27h0s6.24-2.21,8.65-5.9c.96-1.47,2.15-2.84,3.66-3.98,3.71-2.81,6.24-5.79,5.41-9.23-.11-.46-.09-.93.09-1.38,1.88-4.7,1.57-7.38-.77-8.18-.91-.31-1.57-.97-1.86-1.74-.41-1.13-.98-2.13-1.8-2.91-1.14-1.09-3.14-1.24-4.58-.4-2.95,1.72-5.91,1.9-8.87.54-.51-.23-.97-.53-1.41-.85-3-2.18-6.82-.9-11.1,2.37-1.05.8-2.62.98-3.9.44-1.76-.74-3.56-1.27-5.42-1.61-2.68-.48-5.49.06-7.59,1.5-1.75,1.19-3.21,2.46-4.27,3.81-.63.81-1.74,1.29-2.92,1.28-2.33-.01-4.63-.01-6.69.08-3.84.17-7.36,1.81-9.49,4.42-1.41,1.73-2.58,3.36-3.31,4.8-.35.68-1.02,1.22-1.86,1.52-1.94.68-4.08,1.27-6.38,1.79-2.71.61-5.01,2.11-6.18,4.19-.58,1.03-.98,2.05-1.19,3.07-.17.78-.71,1.47-1.52,1.91-2.41,1.28-4.12,2.7-5.69,4.09-1.27,1.13-2.01,2.58-2.08,4.11l-.06,1.39c-.03.64-.34,1.24-.85,1.74-.01.01-.02.02-.03.03-1.25,1.26-.83,3.12.82,4.02,9.53,5.15,31.65,9.44,41.3,5.93,0,0,0,0,0,0,0,0,6.67-9.68,18.19-7.56,0,0,0,0,0,0Z"/>
      <g id="tiras_NO_ANIMA" data-name="tiras NO ANIMA">
        <path class="cls-5" d="M98.02,50.55c-4.13-.52-8.02-2.7-10.64-5.93-.87-1.09-1.59-2.3-2.02-3.64,1.11.86,2.11,1.72,3.12,2.54,2.97,2.44,6.53,4.59,9.54,7.03h0Z"/>
        <path class="cls-5" d="M101.57,29.66c1.3,4.74,3.28,9.03,6.2,12.96,0,0,2.95,3.98,2.95,3.98-6.04-3.02-10.41-10.14-9.15-16.94h0Z"/>
        <path class="cls-5" d="M120.01,23.1c-.64,6.52-2.49,12.9-.62,19.38-4.6-5.43-2.75-13.77.62-19.38h0Z"/>
        <path class="cls-5" d="M138.2,17.02c-3.34,4.62-7.09,9.71-9.19,15.02-.74,1.8-1.35,3.67-1.95,5.62-.79-8.26,4.36-16.27,11.13-20.64h0Z"/>
        <path class="cls-5" d="M156.8,16.32c-8.11,5.76-16.72,12.04-21.04,21.29,1.77-10.54,11.46-17.94,21.04-21.29h0Z"/>
        <path class="cls-5" d="M168.19,18.73c-8.91,5.71-17.89,11.04-25.95,17.94,6.06-8.86,15.86-14.74,25.95-17.94h0Z"/>
        <path class="cls-5" d="M170.13,27.57c-1.57,2.66-3.98,4.71-6.58,6.3-2.64,1.55-5.52,2.7-8.58,3.03,1.24-.93,2.52-1.71,3.78-2.47,3.58-2.12,7.78-4.77,11.39-6.86h0Z"/>
        <path class="cls-5" d="M162.32,39.94c-3.62,1.69-7.47,2.47-11.31,3.37-1.24.35-2.55.47-3.59,1.29,1.72-4.01,10.98-5.28,14.9-4.66h0Z"/>
        <path class="cls-5" d="M138.52,50.12c-1.47,1.29-3.67,2.54-5.3,3.57-1.55.93-3.77,2.38-5.3,3.39,1.39-4.34,6.23-6.89,10.6-6.96h0Z"/>
        <path class="cls-5" d="M95.77,62.59c5.74.71,11.23,1.02,17.01,1.09-5.27,2.71-12.14,2.29-17.01-1.09h0Z"/>
      </g>
    </g>
    <g id="concha_abajo" data-name="concha abajo">
      <path class="cls-18" d="M81.69,76.66c-.96.24-8.72,2.32-1.07,5.21,1.69.64,4.39,1.8,5.98,2.58,7.92,3.91,16.06,6.91,24.49,8.8.02,0,.05,0,.07.01l7.41,1.26c3.35.57,6.76.85,10.18.84,15.33-.03,29.01-2.37,37.02-10.38h0c-.83.66.15,1.75,1.17,1.31,7.62-3.22,14.28-7.08,18.86-12.1.2-.22.25-.51.14-.76-.35-.78-.92-2.45.51-2.55.16-.01.33.02.48.07.72.28,3.4,1.13,4.39-.79.91-1.77-.09-2.4-.55-2.58-.15-.06-.28-.16-.38-.27l-.42-.5c-.06-.07-.1-.14-.13-.22-.95-2.5-3.08-3.56-6.44-3.09-.33.05-.67.05-.99-.04-.42-.11-.92-.33-1.01-.8-.07-.35-.64-.8-1.46-1.18-1.71-.79-3.83-.69-5.51.16-1.25.64-3.12,1.39-4.57,1.1-1.38-.28-3.44-.77-4.95-1.13-1.34-.32-2.74-.41-4.12-.26-2.55.28-7.49.93-15.77,2.37-.4.07-.81-.07-1.04-.34-8.58-9.93-22.57-10.82-31.49.06-.05.06-.1.11-.16.15-5.25,3.87-12.04,7.3-19.24,9.66-.05.02-.09.03-.14.04-4.25.85-8.06,1.89-11.07,3.29-.06.03-.12.05-.19.07Z"/>
      <path class="cls-10" d="M112.45,63.5s-.05.05-.08.07c-6.55,4.32-13.08,8.31-19.35,9.72-6.3,1.25-10.56,2.88-13.08,4.83-1.12.87-.54,2.4.98,2.64,5.28.84,10.59.08,15.81-2.33,0,0-3.22,1.65-8.24,2.36-1.28.18-1.55,1.58-.4,2.07,4.51,1.93,9.37,2.84,14.5,2.01,2.17-.35,4.42.12,6.05,1.33.07.06.15.11.22.17,3.6,2.61,8.87,3.07,13.13,1.21,1.56-.68,3.03-1.47,4.43-2.37,1.51-.97,3.59-1.15,5.29-.42,3.36,1.43,6.68,1.93,9.98,1.72,4.24-.22,7.6-1.54,10.1-3.93,1.22-1.17,3.23-1.53,4.99-.99,3.3,1.02,6.69,1.24,10.22.39,3.65-.69,5.7-2.41,7.03-4.59.78-1.27,2.58-1.92,4.23-1.46,3.3.92,5.93.32,7.79-1.98.07-.08.09-.19.06-.28l-.37-1.26c-.25-.86.75-1.61,1.78-1.34l.44.12c1.82.48,3.74-.67,3.59-2.21-.05-.51-.32-.99-.89-1.41-.35-.26-.62-.58-.8-.94-1.31-2.57-3.34-3.58-6.03-3.18-.98.14-2-.2-2.5-.9s-1.29-1.2-2.28-1.46c-1.59-.42-3.33-.17-4.73.58l-1.01.54c-1.28.68-2.87.85-4.31.47l-3.2-.86c-2.1-.56-4.35-.68-6.52-.33l-14.61,2.32c-.18.03-.35-.04-.45-.16-8.36-10.45-22.58-11-31.74-.15Z"/>
      <g id="rallas_profundo" data-name="rallas profundo">
        <path class="cls-5" d="M182.53,63.52c-3.75,4.29-10.09,8.34-15.98,7.65,5.58-2.16,10.39-5.5,15.98-7.65h0Z"/>
        <path class="cls-5" d="M190.57,67.52c-.96,1.72-3.04,2.39-4.83,1.55.96-1.73,3.05-2.38,4.83-1.55h0Z"/>
        <path class="cls-5" d="M186.75,70.89c-2.18,2.14-5.3,3.16-8.32,2.69,2.18-2.15,5.3-3.15,8.32-2.69h0Z"/>
        <path class="cls-5" d="M179.91,76.35c.06-2-7.73.34-9.16.43-3.33.62-6.62,1.27-10.04,1.38,5.33-2.65,11.47-4.52,17.46-3.57.75.19,2.26.75,1.74,1.76h0Z"/>
        <path class="cls-5" d="M172.49,62.78c-3.15,3.05-7.24,5.06-11.59,5.63,3.14-3.06,7.25-5.05,11.59-5.63h0Z"/>
      </g>
      <g>
        <path class="cls-5" d="M138.06,95.29c2.63-2.65,5.72-4.46,9.14-5.92-1.53,3.51-5.37,5.78-9.14,5.92h0Z"/>
        <path class="cls-5" d="M132.92,95.22c-2.89.53-5.92-.25-8.23-2.08-.74-.63-1.51-1.57-1.47-2.63.74.68,1.5.97,2.31,1.3,2.48,1,5.16,1.85,7.39,3.41h0Z"/>
        <path class="cls-5" d="M114.19,93.64c-3.27.07-7.26-1.71-8.47-4.92,3.14,1.17,6.16,2.39,8.47,4.92h0Z"/>
      </g>
    </g>
    <g class="cls-21">
      <ellipse class="cls-14" cx="442.36" cy="302.15" rx="11" ry="8.94" transform="translate(-1.79 2.63) rotate(-.34)"/>
      <path class="cls-20" d="M451.45,300.37c.02,3.63-3.47-.39-8.49-.36s-9.69,4.1-9.71.47,4.04-6.6,9.06-6.63c5.03-.03,9.12,2.89,9.14,6.52Z"/>
      <path class="cls-17" d="M451.32,303.44c-.02-3.78-3.4.45-8.35.48-4.94.03-9.58-4.15-9.56-.37s4.05,6.82,8.99,6.79,8.93-3.12,8.91-6.9Z"/>
      <path class="cls-12" d="M442.96,296.09c.42.89-1.27,2.25-3.78,3.03s-4.88.7-5.3-.19,1.27-2.25,3.78-3.03c2.51-.79,4.88-.7,5.3.19Z"/>
    </g>
  </g>
  <g id="Capa_3" data-name="Capa 3">
    <path id="MONTAÑA1" class="cls-8" d="M.56,373s303.95,13.78,550.95,83.95c247,70.17,540.05-91.95,540.05-91.95v141H.56v-133Z"/>
  </g>
</svg>