<?xml version="1.0" encoding="utf-8"?>
<!-- Generator: Adobe Illustrator 26.0.0, SVG Export Plug-In . SVG Version: 6.00 Build 0)  -->
<svg version="1.1" id="Capa_1" xmlns="http://www.w3.org/2000/svg" xmlns:xlink="http://www.w3.org/1999/xlink" x="0px" y="0px"
	 viewBox="0 0 744.7 512" style="enable-background:new 0 0 744.7 512;" xml:space="preserve">
<style type="text/css">
	.st0{fill:#FEFEFE;}
	.st1{fill:#FFFFFD;}
	.st2{fill:#FFFFFF;}
	.st3{fill:none;}
	.st4{fill:#426D80;}
	.st5{fill:#417A98;}
</style>
<g>
	<polygon class="st0" points="118.3,392.6 116.7,419.9 232.4,511.1 742.3,511.6 742.6,432.2 532.3,373.3 491.5,325.8 301.9,324.7 
		124.4,380 	"/>
	<polyline class="st1" points="364.6,360.7 433.7,369 406.5,325.8 328.3,325.7 364.6,360.7 433.7,369 	"/>
	<polyline class="st2" points="406.5,325.8 433.7,369 364.6,360.7 322.8,322.8 406.5,325.8 	"/>
	<line class="st3" x1="138.6" y1="387.7" x2="202" y2="457.9"/>
	<path class="st3" d="M218.7,466.2c0,0,8.8,4.9,21.1,3.5"/>
	<line class="st3" x1="268" y1="469" x2="361.3" y2="468.3"/>
	<line class="st3" x1="421.9" y1="468.3" x2="511.1" y2="469.7"/>
	<polygon class="st1" points="126.2,400.2 133.2,383.1 127.3,374.8 126.1,333.7 120.3,324.5 118.3,392.6 	"/>
	<polygon class="st1" points="491.5,325.8 493.8,309.6 123.3,310.6 120.2,326.1 	"/>
	<polygon class="st1" points="326.9,368.5 324.5,331.9 125.6,333.4 126.8,374.7 132.7,383.1 328.4,373.2 	"/>
	<polygon class="st1" points="324.5,332.2 308.1,325.7 120.3,326 126.1,333.7 	"/>
	<path class="st4" d="M156.3,376.9c0,0-4.7-22.4-5.9-25.4c0,0-7.6-4.5-2.7-7.9s6.8,1.7,6.8,1.7s20.7-11,47.9-3.7
		c0,0,6.5-5.2,9.4-1.5c2.9,3.7-3.7,7-3.7,7s7.2,14.9,3.9,18.6c0,0-21.1,4.9-26.8,8.2C185.2,373.9,162.9,374.2,156.3,376.9z"/>
	<path class="st4" d="M214.6,372.1c0,0,2.3-2.8-3.9-18.6c0,0,5.5-9.5,27-7.9c21.5,1.7,21.5,1.7,21.5,1.7s7.4,11.4,7.4,21.6
		C266.6,369,231.8,367.5,214.6,372.1z"/>
	<path class="st4" d="M263.4,363.9c0,0-3-15.3-7.6-19.1c0,0-3.5-6,2.6-5.9c6.1,0.1,5.5,2.5,5.5,2.5s27.1-8.9,37-0.7
		c0,0,5.5-3.1,7.5-0.3c1.9,2.8-3.1,5.3-3.1,5.3s4.9,16.4,3.3,19.1C308.5,364.8,280.9,361.3,263.4,363.9z"/>
	<path class="st5" d="M262.3,512l480-0.4l0.3-79.5l-218.2-61.1c0,0-43.9-4.2-90.7-2.1c0,0-117.6-20.8-212.5,2.1
		c0,0-93.5-2.1-94.9,29.2L262.3,512z"/>
	<path class="st2" d="M364.6,360.7l-3.2-28.5l-33.1-6.5l2.4-19.1h164.1l-1.3,5l-2,14.3l32.9,45.2c0,0-77.5-4.4-90.7-2.1
		C433.7,369,372.3,362.3,364.6,360.7z"/>
	<path class="st4" d="M352.3,362.4c0,0-1.3-15.5-5.5-19.8c0,0-2.9-6.3,3.2-5.6c6.1,0.7,5.1,3.1,5.1,3.1s27.9-5.9,36.9,3.3
		c0,0,5.8-2.5,7.4,0.5s-3.6,4.9-3.6,4.9s3.1,16.8,1.2,19.4C397,368.3,369.9,361.8,352.3,362.4z"/>
	<path class="st4" d="M396.6,369.2c0,0-3-15.3-7.6-19.1c0,0-3.5-6,2.6-5.9c6.1,0.1,5.5,2.5,5.5,2.5s27.1-8.9,37-0.7
		c0,0,5.5-3.1,7.5-0.3c1.9,2.8-3.1,5.3-3.1,5.3s4.9,16.4,3.3,19.1C441.7,370.1,414,366.6,396.6,369.2z"/>
	<path class="st4" d="M440.9,371.7c0,0-3-15.3-7.6-19.1c0,0-3.5-6,2.6-5.9s5.5,2.5,5.5,2.5s27.1-8.9,37-0.7c0,0,5.5-3.1,7.5-0.3
		c1.9,2.8-3.1,5.3-3.1,5.3s4.9,16.4,3.3,19.1C486,372.7,458.3,369.2,440.9,371.7z"/>
	<path class="st4" d="M487.2,372.4c0,0-3-15.3-7.6-19.1c0,0-3.5-6,2.6-5.9c6.1,0.1,5.5,2.5,5.5,2.5s27.1-8.9,37-0.7
		c0,0,5.5-3.1,7.5-0.3c1.9,2.8-3.1,5.3-3.1,5.3s4.9,16.4,3.3,19.1C532.3,373.3,504.6,369.8,487.2,372.4z"/>
</g>
</svg>
