<?xml version="1.0" encoding="utf-8"?>
<!-- Generator: Adobe Illustrator 26.0.0, SVG Export Plug-In . SVG Version: 6.00 Build 0)  -->
<svg version="1.1" id="Capa_1" xmlns="http://www.w3.org/2000/svg" xmlns:xlink="http://www.w3.org/1999/xlink" x="0px" y="0px"
	 viewBox="0 0 1200 540" style="enable-background:new 0 0 1200 540;" xml:space="preserve">
<style type="text/css">
	.st0{fill:#975340;}
	.st1{fill:#94B2CC;}
	.st2{fill:#B0BFDC;}
	.st3{fill:#FFFFFF;}
	.st4{fill:#FFFEFB;}
	.st5{fill:#B7ACA5;}
	.st6{fill:#FA9E5F;}
	.st7{fill:#FCB769;}
	.st8{fill:#AF7331;}
	.st9{fill:#E2D4CB;}
	.st10{fill:#FDFDFD;}
	.st11{fill:none;}
	.st12{opacity:0.82;fill:#FFFFFF;enable-background:new    ;}
	.st13{fill:#FFFFFF;stroke:#000000;stroke-width:0.5038;stroke-miterlimit:10;}
	.st14{fill:#D8D8D0;stroke:#000000;stroke-width:0.5038;stroke-miterlimit:10;}
	.st15{fill:url(#SVGID_1_);}
	.st16{fill:#99B4BD;}
	.st17{fill:#99918C;}
	.st18{fill:#406C7F;}
	.st19{fill:#3E7998;}
	.st20{fill:#5EAACC;}
	.st21{fill:#C4654F;}
	.st22{fill:#FFD491;}
	.st23{fill:#4FBEEB;}
	.st24{fill:#8B4023;}
	.st25{fill:#D2F5FF;}
	.st26{fill:#55B572;}
	.st27{fill:#F2EE5F;}
</style>
<g id="Capa_4">
</g>
<g id="techo">
	<polygon class="st0" points="2.4,92.4 74.6,120.1 69.3,484 2.4,539.5 	"/>
	<polygon class="st0" points="4.2,118.7 57,143.5 53.2,467.2 4.2,516.6 	"/>
	<ellipse class="st1" cx="64.6" cy="323.4" rx="12.9" ry="11.4"/>
	<polygon class="st2" points="53.8,316.9 35.9,319.2 36.8,330.5 57,329.4 	"/>
	<g>
		<rect x="3.4" y="-1.6" class="st3" width="1193.4" height="543.8"/>
	</g>
	<polyline class="st4" points="822.7,358.4 891.8,366.6 864.6,323.5 786.4,323.4 822.7,358.4 891.8,366.6 	"/>
	<polyline class="st3" points="864.6,323.5 891.8,366.6 822.7,358.4 780.9,320.4 864.6,323.5 	"/>
</g>
<g id="nube_alfombra">
	<polygon class="st5" points="706.4,132.6 611.5,132.4 607.8,304.8 705,304.4 	"/>
	<polygon class="st6" points="278.3,384.9 117.5,542.3 148,541.8 322.3,359.5 285.9,358.1 287.1,385.4 	"/>
	<polygon class="st5" points="187.9,383.1 185.6,133.6 285.9,134 293.5,353.9 287.1,385.4 	"/>
	<polygon class="st6" points="186.1,380.8 185.4,385.9 3,541.8 32.4,541.8 211.4,383.1 187.9,383.1 	"/>
	<polygon class="st6" points="211.4,383.1 32.4,541.8 60,542.3 231.9,383.5 	"/>
	<polygon class="st6" points="231.9,383.5 60,542.3 87.5,542.3 254.8,384.3 	"/>
	<polygon class="st6" points="253.5,384.5 87.5,542.3 117.5,542.3 278.3,384.9 	"/>
	<polygon class="st6" points="322.3,359.5 148,541.8 179.1,542.3 343.4,359 	"/>
	<polygon class="st6" points="343.4,359 179.1,542.3 209.6,542.3 366.9,359.5 	"/>
	<polygon class="st6" points="366.9,359.5 209.6,542.3 237.8,542.8 389.2,359.9 	"/>
	<polygon class="st6" points="389.2,359.9 237.8,542.8 269.5,542.8 410.9,360.4 	"/>
	<polygon class="st6" points="410.9,360.4 269.5,542.8 298.2,542.3 432.6,359.9 	"/>
	<polygon class="st6" points="432.6,359.9 298.2,542.3 329.3,542.3 456.7,360.4 	"/>
	<polygon class="st6" points="456.7,360.4 329.3,542.3 360.5,542.8 481.9,361.3 	"/>
	<polygon class="st6" points="481.9,361.3 360.5,542.8 391,542.8 507.8,361.3 	"/>
	<polygon class="st6" points="507.8,361.3 391,542.8 422.1,542.8 532.4,362.7 	"/>
	<polygon class="st6" points="532.4,362.7 422.1,542.8 451.4,541.8 555.3,361.8 	"/>
	<polygon class="st6" points="555.3,361.8 451.4,541.8 481.4,542.8 578,362.9 	"/>
	<polygon class="st6" points="578,362.9 481.4,542.8 511.9,542.3 	"/>
	<polygon class="st6" points="578,362.9 574.7,429.8 541.2,542.8 511.9,542.3 	"/>
	<polygon class="st6" points="574.7,429.8 541.2,542.8 570.6,542.8 590.5,447 	"/>
	<polygon class="st6" points="590.5,447 570.6,542.8 598.2,541.8 609.9,470.6 	"/>
	<polygon class="st6" points="609.9,470.6 598.2,541.8 624.6,542.3 629.2,490.5 	"/>
	<polygon class="st6" points="629.2,490.5 624.6,542.3 655.7,541.8 	"/>
	<polygon class="st6" points="655.7,541.8 672.9,542.1 629.2,490.5 	"/>
	<path class="st7" d="M445.6,537.6c36.1,3.7,88.2,1.7,101.1-37c6.9-20.7-16.9-40.9-49.9-42.6c-0.7,0-1.5-0.1-2.2-0.1
		c-16.2-0.7-31.1-6-40.8-14.4c-4.9-4.2-10.2-9.4-15.5-15.5c-16.2-18.7-66.6-15.7-85,10.1c-23.6,33.4-84,23.7-89.8,48.1
		c-3.2,13.5,13.5,60.3,108,51.4C396,535.3,421,535.1,445.6,537.6z"/>
	<ellipse class="st8" cx="333.3" cy="491.2" rx="4.9" ry="3.6"/>
	<ellipse class="st8" cx="395.5" cy="490.2" rx="4.9" ry="3.6"/>
	<ellipse class="st8" cx="275.7" cy="484.7" rx="4.9" ry="3.6"/>
	<ellipse class="st8" cx="485.1" cy="461.5" rx="4.9" ry="3.6"/>
	<ellipse class="st8" cx="531.2" cy="495" rx="4.9" ry="3.6"/>
	<ellipse class="st8" cx="309.4" cy="519.5" rx="4.9" ry="3.6"/>
	<ellipse class="st8" cx="350.5" cy="462.8" rx="4.9" ry="3.6"/>
	<ellipse class="st8" cx="431.9" cy="461.5" rx="4.9" ry="3.6"/>
	<ellipse class="st8" cx="396.6" cy="440.5" rx="4.9" ry="3.6"/>
	<ellipse class="st8" cx="462" cy="496.1" rx="4.9" ry="3.6"/>
	<ellipse class="st8" cx="426" cy="520.4" rx="4.9" ry="3.6"/>
	<ellipse class="st8" cx="503.5" cy="514.8" rx="4.9" ry="3.6"/>
	<ellipse class="st8" cx="356.3" cy="518.2" rx="4.9" ry="3.6"/>
	<polygon class="st9" points="187.9,383.1 3,541.8 4.8,20.6 172.6,100.2 176.7,127.1 185.6,133.6 	"/>
	<polygon class="st9" points="748.2,122 747,303.5 788.8,304.2 786.4,323.4 819.5,329.8 824.2,366.2 1198.1,435.4 1192.2,40.5 	"/>
</g>
<path class="st10" d="M669.9,541.9l-0.8-32.2l301.3-0.8l0.5,33.2C970.5,542.5,669.7,543.7,669.9,541.9z"/>
<polygon class="st10" points="670,538.6 574.7,429.8 576.4,390.2 668.9,509.7 "/>
<line class="st11" x1="596.7" y1="385.4" x2="660.1" y2="455.5"/>
<path class="st11" d="M676.8,463.9c0,0,8.8,4.9,21.1,3.5"/>
<line class="st11" x1="726.1" y1="466.6" x2="819.4" y2="465.9"/>
<line class="st11" x1="880" y1="465.9" x2="969.2" y2="467.3"/>
<polygon class="st3" points="968.9,40.5 747.6,122 734.1,120.6 969.5,28 "/>
<polygon class="st12" points="920.4,0.2 889.1,-0.4 731,85.4 729.8,96.5 "/>
<path class="st3" d="M733.1,97.4l-13.5-0.3l-10,3.1l0.8-10.2c0,0,6.3-3.2,7-5.2l13.5,0.6l0.4,8.9L733.1,97.4z"/>
<polygon class="st13" points="709.7,100.2 172.6,100.2 175,88.7 710.4,90 "/>
<polygon class="st14" points="886.7,-0.2 728.6,85.6 715.1,85 708.1,90.2 536.5,88.6 529.1,74.7 379.8,74.3 374,88.2 172.6,88.9 
	4.8,-1.4 "/>
<polygon class="st3" points="175,88.7 4.8,-1.4 4.8,20.6 172.6,102.5 "/>
<polygon class="st5" points="294.7,320.9 286.9,326.8 287.3,382 "/>
<polygon class="st3" points="574.7,131.7 331.1,133.1 331.7,153.9 574.1,155.3 "/>
<linearGradient id="SVGID_1_" gradientUnits="userSpaceOnUse" x1="174.4" y1="101.4" x2="709.7" y2="101.4" gradientTransform="matrix(1 0 0 1 0 28)">
	<stop  offset="0" style="stop-color:#F2ECDE"/>
	<stop  offset="1" style="stop-color:#FFFFFF"/>
</linearGradient>
<polygon class="st15" points="703.2,132.6 709.7,125.2 174.4,126.6 185.6,133.6 "/>
<polygon class="st3" points="719,304.4 702,304.4 703.2,132.6 709.7,125.2 709.7,100.2 719,97 "/>
<polygon class="st3" points="746.6,303.5 719,304.4 719,97 733.1,97.4 733.7,120.6 747.2,122 "/>
<line class="st11" x1="174.4" y1="126.6" x2="172.6" y2="102.5"/>
<polygon class="st16" points="450.2,154.4 450.2,359.7 582.6,363.5 585.8,156.7 "/>
<polygon class="st16" points="450.4,153.9 321.4,153.9 306.7,359.5 451,360.3 "/>
<polygon class="st17" points="719,97 719,304.4 699.5,304.4 701.1,132.6 708.4,125.2 708.4,100.2 "/>
<polyline class="st17" points="719,97 733.1,97.4 733.7,120.6 747.2,122 746.6,303.5 719,304.4 "/>
<g>
	<rect x="292.6" y="280.7" class="st3" width="302.8" height="85.5"/>
</g>
<polygon class="st17" points="287.1,385.4 294.5,366.1 294.5,360.7 283.8,360.3 "/>
<polygon class="st4" points="584.3,397.9 591.3,380.8 585.4,372.4 584.3,331.4 578.4,322.1 576.4,390.2 "/>
<polygon class="st4" points="949.6,323.5 951.9,307.3 581.4,308.3 578.3,323.8 "/>
<polygon class="st4" points="785,366.2 782.6,329.6 583.7,331.1 584.9,372.4 590.8,380.8 786.5,370.8 "/>
<polygon class="st4" points="782.6,329.8 766.2,323.4 578.4,323.7 584.3,331.4 "/>
<path class="st18" d="M617.4,376.6c0,0-4.7-22.4-5.9-25.4c0,0-7.6-4.5-2.7-7.9c4.9-3.4,6.8,1.7,6.8,1.7s20.7-11,47.9-3.7
	c0,0,6.5-5.2,9.4-1.5s-3.7,7-3.7,7s7.2,14.9,3.9,18.6c0,0-21.1,4.9-26.8,8.2C646.3,373.6,624,373.9,617.4,376.6z"/>
<path class="st18" d="M672.7,369.8c0,0,2.3-2.8-3.9-18.6c0,0,5.5-9.5,27-7.9s21.5,1.7,21.5,1.7s7.4,11.4,7.4,21.6
	C724.8,366.6,689.9,365.1,672.7,369.8z"/>
<path class="st18" d="M721.5,361.5c0,0-3-15.3-7.6-19.1c0,0-3.5-6,2.6-5.9c6.1,0,5.5,2.5,5.5,2.5s27.1-8.9,37-0.7
	c0,0,5.5-3.1,7.5-0.3c1.9,2.8-3.1,5.3-3.1,5.3s4.9,16.4,3.3,19.1C766.6,362.5,739,359,721.5,361.5z"/>
<path class="st19" d="M720.4,509.7l480-0.4l0.3-79.5l-218.2-61.1c0,0-43.9-4.2-90.7-2.1c0,0-117.6-20.8-212.5,2.1
	c0,0-93.5-2.1-94.9,29.2L720.4,509.7z"/>
<path class="st20" d="M299.7,361"/>
<g id="Capa_5">
	<path class="st3" d="M822.7,358.4l-3.2-28.5l-33.1-6.5l2.4-19.1h164.1l-1.3,5l-2,14.3l32.9,45.2c0,0-77.5-4.4-90.7-2.1
		C891.8,366.6,830.4,360,822.7,358.4z"/>
	<path class="st18" d="M810.4,360.1c0,0-1.3-15.5-5.5-19.8c0,0-2.9-6.3,3.2-5.6c6.1,0.7,5.2,3.1,5.2,3.1s27.9-5.9,36.8,3.3
		c0,0,5.8-2.5,7.5,0.5c1.6,3-3.6,4.9-3.6,4.9s3.1,16.8,1.2,19.4C855.1,366,828,359.4,810.4,360.1z"/>
	<path class="st18" d="M854.7,366.8c0,0-3-15.3-7.6-19.1c0,0-3.5-6,2.6-5.9c6.1,0,5.5,2.5,5.5,2.5s27.1-8.9,37-0.7
		c0,0,5.5-3.1,7.5-0.3c1.9,2.8-3.1,5.3-3.1,5.3s4.9,16.4,3.3,19.1C899.8,367.8,872.1,364.2,854.7,366.8z"/>
	<path class="st18" d="M899,369.4c0,0-3-15.3-7.6-19.1c0,0-3.5-6,2.6-5.9s5.5,2.5,5.5,2.5s27.1-8.9,37-0.7c0,0,5.5-3.1,7.5-0.3
		c1.9,2.8-3.1,5.3-3.1,5.3s4.9,16.4,3.3,19.1C944.1,370.3,916.5,366.8,899,369.4z"/>
	<path class="st18" d="M945.3,370c0,0-3-15.3-7.6-19.1c0,0-3.5-6,2.6-5.9s5.5,2.5,5.5,2.5s27.1-8.9,37-0.7c0,0,5.5-3.1,7.5-0.3
		c1.9,2.8-3.1,5.3-3.1,5.3s4.9,16.4,3.3,19.1C990.4,371,962.7,367.5,945.3,370z"/>
</g>
<polygon class="st6" points="95.6,461.9 95.7,351.6 2.7,352.2 1.5,540.6 "/>
<polygon class="st21" points="1.1,458 62.2,456 2.7,414.9 "/>
<polygon class="st22" points="1.1,449.3 35.2,449 3,423.6 "/>
<polygon class="st17" points="95.7,352.2 95.7,333.6 2.5,333.6 2.7,352.9 "/>
<polygon class="st23" points="95.7,334.2 95.6,147.3 3.5,124 2.5,334.2 "/>
<polygon class="st24" points="2.7,235.2 64.4,233.9 63.1,139.4 3.5,124 "/>
<polygon class="st25" points="51.6,222.4 54.1,135.6 34.9,131.7 4,133 4,225.6 "/>
<path class="st26" d="M3.8,199.9c0,0,8.6,3.9,20.8,9s6-12.5,13.8-12.5s14.1-2.2,14.1-2.2L52,223l-48,2.6L3.8,199.9z"/>
<circle class="st27" cx="19.6" cy="161.8" r="8.2"/>
</svg>
