<?xml version="1.0" encoding="UTF-8"?>
<svg id="Capa_1" data-name="Capa 1" xmlns="http://www.w3.org/2000/svg" viewBox="0 0 77.94 45.94">
  <defs>
    <style>
      .cls-1 {
        fill: #000;
      }

      .cls-1, .cls-2, .cls-3, .cls-4, .cls-5, .cls-6, .cls-7 {
        stroke-width: 0px;
      }

      .cls-2 {
        fill: #beb4e3;
      }

      .cls-3 {
        fill: #8c84ac;
      }

      .cls-4 {
        fill: none;
      }

      .cls-5 {
        fill: #8b70d6;
      }

      .cls-6 {
        fill: #fff;
      }

      .cls-7 {
        fill: #ab90f9;
      }
    </style>
  </defs>
  <g>
    <g>
      <path class="cls-3" d="M38.51,2.67c2.5,2.34,5.07,6.3,3.91,12.28-1.5.29-2.94.62-4.32.99h0c-.28-.03-8.83-.85-15.16-4.43.28.05,8.9,1.41,11.44,1.26l-3.15-4.46s5.34,1.89,6.58,2.87c0,0-1.52-3.45-2.77-5.21,0,0,4.86,3.85,4.86,3.41,0-.44-.09-4.16-1.38-6.7Z"/>
      <path class="cls-2" d="M39.89,9.37c0,.44-4.86-3.41-4.86-3.41,1.24,1.76,2.77,5.21,2.77,5.21-1.24-.98-6.58-2.87-6.58-2.87l3.15,4.46c-2.54.15-11.16-1.21-11.44-1.26h0c-.85-.48-1.66-1.01-2.4-1.6,0,0,3.41-7.01,14.11-9.9,0,0,1.92.83,3.88,2.67,1.29,2.54,1.38,6.26,1.38,6.7Z"/>
      <path class="cls-2" d="M41.42,39.85c.33-.12,10.57-3.98,10.95-11.44-.56,19.27-39.53,17.49-39.53,17.49.55-1.19,7.79-12.69,11.59-18.71l-6.28,13.73s5.44-3.46,7.72-6.88l-1.81,6.88s6.02-5.89,8.53-11.63c-.2.63-3.49,10.74-3.67,11.63,0,0,3.72-3.03,4.58-5.15,0,0-.1,5.07-.48,5.45,0,0,8.01-4.39,10.96-9.99,0,0-1.9,7.84-2.57,8.62Z"/>
      <path class="cls-3" d="M52.39,27.98c0,.14,0,.28-.01.43-.38,7.46-10.62,11.32-10.95,11.44.66-.79,2.57-8.62,2.57-8.62-2.96,5.6-10.96,9.99-10.96,9.99.38-.38.48-5.45.48-5.45-.86,2.12-4.58,5.15-4.58,5.15.18-.88,3.47-11,3.67-11.63-2.51,5.74-8.53,11.63-8.53,11.63l1.81-6.88c-2.28,3.42-7.72,6.88-7.72,6.88l6.28-13.73v-.02c1.33-2.08,2.23-3.5,2.31-3.62,9.82,3.33,18.43,4.46,25.65,4.44Z"/>
      <path class="cls-7" d="M22.42,21.96l-12.34,16.2c-1.93-1.23-3.53-2.5-4.84-3.8l17.17-12.4Z"/>
      <path class="cls-3" d="M22.42,21.96l-17.17,12.4c-.51-.51-.99-1.02-1.41-1.53l18.58-10.86Z"/>
      <path class="cls-7" d="M22.42,21.96L3.83,32.83c-1.5-1.81-2.49-3.65-3.09-5.48l21.67-5.38Z"/>
      <path class="cls-3" d="M22.42,21.96L.75,27.34c-.23-.7-.4-1.4-.52-2.09l22.19-3.29Z"/>
      <path class="cls-7" d="M22.42,21.96L.22,25.26c-.38-2.2-.25-4.35.19-6.37l22,3.08Z"/>
      <path class="cls-3" d="M22.42,21.96L.42,18.89c.16-.74.36-1.46.6-2.15l21.4,5.23Z"/>
      <path class="cls-7" d="M22.42,21.96L1.02,16.73c.6-1.8,1.41-3.46,2.25-4.91l19.14,10.14Z"/>
      <path class="cls-5" d="M22.42,21.96L3.27,11.82c.4-.69.81-1.33,1.2-1.92l17.94,12.06Z"/>
      <path class="cls-7" d="M7.63,5.96l14.78,16L4.48,9.9c1.67-2.45,3.16-3.94,3.16-3.94Z"/>
      <path class="cls-7" d="M42.41,14.95c10.86-2.1,24.33-1.88,35.53,7.02,0,0-9.24,5.97-25.56,6.02-7.23.03-15.84-1.11-25.65-4.44h0c-1.41-.48-2.85-1.01-4.32-1.58,0,0,6.46-3.63,15.67-6.03h0c1.38-.36,2.82-.7,4.32-.99Z"/>
    </g>
    <g>
      <path class="cls-4" d="M22.42,21.96L7.63,5.96s-1.49,1.49-3.16,3.94c-.4.59-.81,1.23-1.2,1.92-.85,1.45-1.65,3.11-2.25,4.91-.23.7-.44,1.42-.6,2.15-.44,2.03-.58,4.17-.19,6.37.12.69.29,1.39.52,2.09.59,1.83,1.58,3.67,3.09,5.48.42.51.9,1.03,1.41,1.53,1.31,1.3,2.9,2.57,4.84,3.8l12.34-16.2Z"/>
      <polyline class="cls-3" points="3.27 11.82 22.42 21.96 4.48 9.9"/>
      <polyline class="cls-4" points="1.02 16.73 22.42 21.96 .42 18.89"/>
      <polyline class="cls-3" points=".22 25.26 22.42 21.96 .75 27.34 .74 27.34"/>
      <polyline class="cls-3" points="3.83 32.83 22.42 21.96 5.24 34.36"/>
      <path class="cls-4" d="M22.92,11.5c-.85-.48-1.66-1.01-2.4-1.6,0,0,3.41-7.01,14.11-9.9,0,0,1.92.83,3.88,2.67,2.5,2.34,5.07,6.3,3.91,12.28h0"/>
      <path class="cls-4" d="M38.09,15.94h0c-.28-.03-8.83-.85-15.16-4.43"/>
      <path class="cls-4" d="M24.44,27.16c1.31-2.08,2.22-3.5,2.29-3.62h0"/>
      <path class="cls-4" d="M52.37,28.41c-.56,19.27-39.53,17.49-39.53,17.49.55-1.19,7.79-12.69,11.59-18.71"/>
      <path class="cls-4" d="M22.92,11.5h0c.28.05,8.9,1.41,11.44,1.26l-3.15-4.46s5.34,1.89,6.58,2.87c0,0-1.52-3.45-2.77-5.21,0,0,4.86,3.85,4.86,3.41,0-.44-.09-4.16-1.38-6.7"/>
      <path class="cls-4" d="M41.42,39.86h0c.33-.12,10.57-3.98,10.95-11.44,0-.14.01-.28.01-.43"/>
      <path class="cls-4" d="M32.61,29.26s0,.02-.01.02t0,.01c-.2.63-3.49,10.74-3.67,11.63,0,0,3.72-3.03,4.58-5.15,0,0-.1,5.07-.48,5.45,0,0,8.01-4.39,10.96-9.99,0,0-1.9,7.84-2.57,8.62"/>
      <path class="cls-4" d="M24.44,27.16v.02s-6.29,13.73-6.29,13.73c0,0,5.44-3.46,7.72-6.88l-1.81,6.88s6.02-5.89,8.53-11.63"/>
    </g>
  </g>
  <path class="cls-6" d="M66.69,20.38c0,1.54-1.57,2.79-3.52,2.79s-3.52-1.25-3.52-2.79c0-1.54,1.57-2.79,3.52-2.79s3.52,1.25,3.52,2.79Z"/>
  <path class="cls-1" d="M65.35,20.38c0,.96-.98,1.73-2.18,1.73s-2.18-.77-2.18-1.73c0-.96.97-1.73,2.18-1.73s2.18.77,2.18,1.73Z"/>
</svg>