<?xml version="1.0" encoding="UTF-8"?>
<svg id="Capa_1" data-name="Capa 1" xmlns="http://www.w3.org/2000/svg" viewBox="0 0 58.8 48.79">
  <defs>
    <style>
      .cls-1 {
        fill: #e9e9e9;
        opacity: .39;
      }

      .cls-1, .cls-2, .cls-3, .cls-4 {
        stroke-width: 0px;
      }

      .cls-2 {
        fill: #87ccc9;
      }

      .cls-3 {
        fill: #fff;
      }

      .cls-4 {
        fill: #b9e2f4;
      }
    </style>
  </defs>
  <ellipse class="cls-4" cx="29.4" cy="24.4" rx="29.4" ry="24.4"/>
  <path class="cls-1" d="M53.69,19.69c0,9.91-9.25-1.12-22.68-1.12s-25.95,11.04-25.95,1.12S15.94,1.75,29.37,1.75s24.32,8.03,24.32,17.95Z"/>
  <path class="cls-2" d="M53.3,28.07c0-10.32-9.1,1.17-22.3,1.17s-25.52-11.49-25.52-1.17,10.71,18.69,23.91,18.69,23.91-8.37,23.91-18.69Z"/>
  <path class="cls-3" d="M31.09,7.87c1.11,2.43-3.43,6.12-10.13,8.22s-13.04,1.84-14.15-.6c-1.11-2.43,3.43-6.12,10.13-8.22s13.04-1.84,14.15.6Z"/>
</svg>