<?xml version="1.0" encoding="UTF-8"?>
<svg id="Capa_1" data-name="Capa 1" xmlns="http://www.w3.org/2000/svg" viewBox="0 0 53.47 45.09">
  <defs>
    <style>
      .cls-1 {
        fill: #e9e9e9;
        opacity: .39;
      }

      .cls-1, .cls-2, .cls-3, .cls-4 {
        stroke-width: 0px;
      }

      .cls-2 {
        fill: #87ccc9;
      }

      .cls-3 {
        fill: #fff;
      }

      .cls-4 {
        fill: #b9e2f4;
      }
    </style>
  </defs>
  <ellipse class="cls-4" cx="26.74" cy="22.55" rx="22.52" ry="26.76" transform="translate(2.3 47.57) rotate(-85.82)"/>
  <path class="cls-1" d="M49.1,19.81c-.66,9.13-8.32-1.64-20.52-2.53-12.19-.88-24.3,8.45-23.64-.67S16.02.81,28.22,1.69c12.19.88,21.54,9,20.88,18.12Z"/>
  <path class="cls-2" d="M48.19,27.51c.69-9.5-8.34.48-20.33-.39-11.99-.87-22.4-12.26-23.09-2.76s8.48,17.91,20.46,18.78,22.26-6.13,22.95-15.63Z"/>
  <path class="cls-3" d="M29.37,7.45c.85,2.31-3.52,5.4-9.75,6.9-6.23,1.5-11.96.83-12.81-1.48s3.52-5.4,9.75-6.9c6.23-1.5,11.96-.83,12.81,1.48Z"/>
</svg>