<?xml version="1.0" encoding="UTF-8"?>
<svg id="Capa_1" data-name="Capa 1" xmlns="http://www.w3.org/2000/svg" viewBox="0 0 44.28 36.03">
  <defs>
    <style>
      .cls-1 {
        fill: #e9e9e9;
        opacity: .39;
      }

      .cls-1, .cls-2, .cls-3, .cls-4 {
        stroke-width: 0px;
      }

      .cls-2 {
        fill: #87ccc9;
      }

      .cls-3 {
        fill: #fff;
      }

      .cls-4 {
        fill: #b9e2f4;
      }
    </style>
  </defs>
  <ellipse class="cls-4" cx="22.14" cy="18.02" rx="22.14" ry="18.02"/>
  <path class="cls-1" d="M40.44,14.54c0,7.32-6.97-.83-17.08-.83S3.8,21.86,3.8,14.54,12,1.29,22.12,1.29s18.32,5.93,18.32,13.25Z"/>
  <path class="cls-2" d="M40.14,20.73c0-7.62-6.85.86-16.8.86s-19.22-8.49-19.22-.86,8.06,13.8,18.01,13.8,18.01-6.18,18.01-13.8Z"/>
  <path class="cls-3" d="M23.42,5.82c.84,1.8-2.58,4.52-7.63,6.07-5.05,1.55-9.82,1.36-10.66-.44s2.58-4.52,7.63-6.07,9.82-1.36,10.66.44Z"/>
</svg>