<?xml version="1.0" encoding="UTF-8"?>
<svg id="Capa_1" data-name="Capa 1" xmlns="http://www.w3.org/2000/svg" viewBox="0 0 43.81 36.35">
  <defs>
    <style>
      .cls-1 {
        fill: #e9e9e9;
        opacity: .39;
      }

      .cls-1, .cls-2, .cls-3, .cls-4 {
        stroke-width: 0px;
      }

      .cls-2 {
        fill: #87ccc9;
      }

      .cls-3 {
        fill: #fff;
      }

      .cls-4 {
        fill: #b9e2f4;
      }
    </style>
  </defs>
  <ellipse class="cls-4" cx="21.9" cy="18.18" rx="21.9" ry="18.18"/>
  <path class="cls-1" d="M40,14.67c0,7.38-6.89-.84-16.9-.84S3.76,22.06,3.76,14.67,11.87,1.3,21.88,1.3s18.12,5.99,18.12,13.37Z"/>
  <path class="cls-2" d="M39.71,20.92c0-7.69-6.78.87-16.62.87s-19.02-8.56-19.02-.87,7.98,13.92,17.82,13.92,17.82-6.23,17.82-13.92Z"/>
  <path class="cls-3" d="M23.17,5.87c.83,1.81-2.55,4.56-7.55,6.12-5,1.57-9.72,1.37-10.54-.44s2.55-4.56,7.55-6.12c5-1.57,9.72-1.37,10.54.44Z"/>
</svg>