<?xml version="1.0" encoding="UTF-8"?>
<svg id="Capa_1" data-name="Capa 1" xmlns="http://www.w3.org/2000/svg" viewBox="0 0 21.6 18.2">
  <defs>
    <style>
      .cls-1 {
        fill: #e9e9e9;
        opacity: .72;
      }

      .cls-1, .cls-2, .cls-3, .cls-4 {
        stroke-width: 0px;
      }

      .cls-2 {
        fill: #87ccc9;
      }

      .cls-3 {
        fill: #fff;
      }

      .cls-4 {
        fill: #b9e2f4;
      }
    </style>
  </defs>
  <ellipse class="cls-4" cx="10.8" cy="9.1" rx="10.87" ry="9.02" transform="translate(-1.61 2.36) rotate(-11.6)"/>
  <path class="cls-1" d="M19.78,7.36c0,3.66-3.42-.42-8.38-.42S1.8,11.03,1.8,7.36,5.82.73,10.79.73s8.99,2.97,8.99,6.63Z"/>
  <path class="cls-2" d="M19.63,10.46c0-3.82-3.36.43-8.24.43S1.95,6.65,1.95,10.46s3.96,6.91,8.84,6.91,8.84-3.09,8.84-6.91Z"/>
  <path class="cls-3" d="M11.43,2.99c.41.9-1.27,2.26-3.75,3.04s-4.82.68-5.23-.22,1.27-2.26,3.75-3.04c2.48-.78,4.82-.68,5.23.22Z"/>
</svg>