<?xml version="1.0" encoding="UTF-8"?>
<svg id="Capa_1" data-name="Capa 1" xmlns="http://www.w3.org/2000/svg" viewBox="0 0 30.33 24.68">
  <defs>
    <style>
      .cls-1 {
        fill: #e9e9e9;
        opacity: .39;
      }

      .cls-1, .cls-2, .cls-3, .cls-4 {
        stroke-width: 0px;
      }

      .cls-2 {
        fill: #87ccc9;
      }

      .cls-3 {
        fill: #fff;
      }

      .cls-4 {
        fill: #b9e2f4;
      }
    </style>
  </defs>
  <ellipse class="cls-4" cx="15.16" cy="12.34" rx="15.16" ry="12.34"/>
  <path class="cls-1" d="M27.69,9.96c0,5.01-4.77-.57-11.7-.57s-13.39,5.58-13.39.57S8.22.88,15.15.88s12.54,4.06,12.54,9.08Z"/>
  <path class="cls-2" d="M27.49,14.2c0-5.22-4.69.59-11.51.59s-13.16-5.81-13.16-.59,5.52,9.45,12.33,9.45,12.33-4.23,12.33-9.45Z"/>
  <path class="cls-3" d="M16.04,3.98c.57,1.23-1.77,3.09-5.23,4.16s-6.73.93-7.3-.3,1.77-3.09,5.23-4.16,6.73-.93,7.3.3Z"/>
</svg>