<?xml version="1.0" encoding="UTF-8"?>
<svg id="Capa_1" data-name="Capa 1" xmlns="http://www.w3.org/2000/svg" viewBox="0 0 49.15 40.79">
  <defs>
    <style>
      .cls-1 {
        fill: #e9e9e9;
        opacity: .39;
      }

      .cls-1, .cls-2, .cls-3, .cls-4 {
        stroke-width: 0px;
      }

      .cls-2 {
        fill: #87ccc9;
      }

      .cls-3 {
        fill: #fff;
      }

      .cls-4 {
        fill: #b9e2f4;
      }
    </style>
  </defs>
  <ellipse class="cls-4" cx="24.57" cy="20.39" rx="24.57" ry="20.39"/>
  <path class="cls-1" d="M44.88,16.46c0,8.29-7.73-.94-18.96-.94s-21.7,9.23-21.7.94S13.32,1.46,24.55,1.46s20.33,6.72,20.33,15Z"/>
  <path class="cls-2" d="M44.55,23.47c0-8.63-7.61.98-18.65.98s-21.33-9.61-21.33-.98,8.95,15.62,19.99,15.62,19.99-6.99,19.99-15.62Z"/>
  <path class="cls-3" d="M25.99,6.58c.93,2.04-2.86,5.11-8.47,6.87-5.61,1.76-10.9,1.54-11.83-.5s2.86-5.11,8.47-6.87c5.61-1.76,10.9-1.54,11.83.5Z"/>
</svg>