<?xml version="1.0" encoding="UTF-8"?>
<svg id="Capa_1" data-name="Capa 1" xmlns="http://www.w3.org/2000/svg" viewBox="0 0 51.29 41.73">
  <defs>
    <style>
      .cls-1 {
        fill: #e9e9e9;
        opacity: .39;
      }

      .cls-1, .cls-2, .cls-3, .cls-4 {
        stroke-width: 0px;
      }

      .cls-2 {
        fill: #87ccc9;
      }

      .cls-3 {
        fill: #fff;
      }

      .cls-4 {
        fill: #b9e2f4;
      }
    </style>
  </defs>
  <ellipse class="cls-4" cx="25.65" cy="20.87" rx="25.65" ry="20.87"/>
  <path class="cls-1" d="M46.84,16.84c0,8.48-8.07-.96-19.79-.96s-22.64,9.44-22.64.96S13.9,1.49,25.62,1.49s21.22,6.87,21.22,15.35Z"/>
  <path class="cls-2" d="M46.5,24.01c0-8.83-7.94,1-19.46,1s-22.26-9.83-22.26-1,9.34,15.99,20.86,15.99,20.86-7.16,20.86-15.99Z"/>
  <path class="cls-3" d="M27.12,6.74c.97,2.08-2.99,5.23-8.84,7.03s-11.38,1.57-12.35-.51,2.99-5.23,8.84-7.03c5.85-1.8,11.38-1.57,12.35.51Z"/>
</svg>