<?xml version="1.0" encoding="UTF-8"?>
<svg id="Capa_1" data-name="Capa 1" xmlns="http://www.w3.org/2000/svg" viewBox="0 0 21.73 18.03">
  <defs>
    <style>
      .cls-1 {
        fill: #e9e9e9;
        opacity: .39;
      }

      .cls-1, .cls-2, .cls-3, .cls-4 {
        stroke-width: 0px;
      }

      .cls-2 {
        fill: #87ccc9;
      }

      .cls-3 {
        fill: #fff;
      }

      .cls-4 {
        fill: #b9e2f4;
      }
    </style>
  </defs>
  <ellipse class="cls-4" cx="10.87" cy="9.02" rx="10.87" ry="9.02"/>
  <path class="cls-1" d="M19.84,7.28c0,3.66-3.42-.42-8.38-.42S1.87,10.94,1.87,7.28,5.89.65,10.86.65s8.99,2.97,8.99,6.63Z"/>
  <path class="cls-2" d="M19.7,10.38c0-3.82-3.36.43-8.24.43s-9.43-4.25-9.43-.43,3.96,6.91,8.84,6.91,8.84-3.09,8.84-6.91Z"/>
  <path class="cls-3" d="M11.49,2.91c.41.9-1.27,2.26-3.75,3.04-2.48.78-4.82.68-5.23-.22-.41-.9,1.27-2.26,3.75-3.04,2.48-.78,4.82-.68,5.23.22Z"/>
</svg>