<?xml version="1.0" encoding="utf-8"?>
<!-- Generator: Adobe Illustrator 26.0.0, SVG Export Plug-In . SVG Version: 6.00 Build 0)  -->
<svg version="1.1" id="Capa_1" xmlns="http://www.w3.org/2000/svg" xmlns:xlink="http://www.w3.org/1999/xlink" x="0px" y="0px"
	 viewBox="0 0 1200 540" style="enable-background:new 0 0 1200 540;" xml:space="preserve">
<style type="text/css">
	.st0{fill:#84B8AD;}
	.st1{fill:#DAC09F;}
	.st2{fill:#BCA284;}
	.st3{fill:#A89786;}
	.st4{fill:#AF9C6A;}
	.st5{fill:#C7B782;}
	.st6{fill:#2A3642;}
	.st7{fill:#6A727E;}
	.st8{fill:url(#SVGID_1_);}
	.st9{fill:#A5886B;}
	.st10{fill:#9B7E62;}
	.st11{fill:#3D2729;}
	.st12{fill:none;}
	.st13{fill:#FEE9D0;}
	.st14{fill:#C2AB90;}
	.st15{fill:#030405;}
	.st16{fill:#EAD692;}
	.st17{fill:#48AE4D;}
	.st18{fill:#168F52;}
	.st19{fill:url(#SVGID_00000174593822937465183850000014183565153526924695_);}
	.st20{fill:url(#SVGID_00000034077016710095277250000004400258229331718837_);}
	.st21{fill:url(#SVGID_00000021094553777303823790000015306999959098612124_);}
	.st22{fill:url(#SVGID_00000167389557122298697950000013550160589869195952_);}
	.st23{fill:url(#SVGID_00000046305373252290527740000014039069072238470531_);}
</style>
<polygon class="st0" points="1198.5,541.6 -0.4,541.6 0.8,0.9 1199.4,1.4 "/>
<path class="st1" d="M813.9,134.3v-11l7.9-2l-0.6-26.1c0,0-11.1-2.8-17,3.1l0.3,9c0,0,1.5,3.3,1.5,5.6l0.6,20.2
	C806.6,133,811.9,133.5,813.9,134.3z"/>
<path class="st2" d="M804.3,98.7c0,0-6.7-8.1,9.7-9.7s7.3,6.5,7.3,6.5S813.4,91.6,804.3,98.7z"/>
<path class="st3" d="M804.3,92.2c0,0,6.4-11.8,6.2-14c0,0,4.1-1.7,5.3,0.3c1.2,1.9,6.2,11.3,6.2,11.3S810.1,87.6,804.3,92.2z"/>
<rect x="620.6" y="369.8" class="st4" width="87.7" height="58.8"/>
<polygon class="st5" points="687.6,540.9 702.7,411.1 831.6,402.5 901,540.9 "/>
<path class="st2" d="M814.9,123c0,0-11.7-4.9-22.3,4.9v11.2l-4.7,0.3l-1.5-13l-13.5,1.2l-0.3,12.7l-8.8,0.9l-1.5-11.8l-13.8,2
	l0.3,12.1h-9.1v-9.8h-11.1l-0.3,11.8l-7.6,0.6v-1.4c0,0-30.8-2.6-51.6,6.9c0,0-2.6,4.3-2.6,6.6l149.2-15.6L814.9,123z"/>
<polygon class="st1" points="952.2,181.2 869.6,183.2 873.4,271.2 952.5,265.4 "/>
<path class="st6" d="M901.6,223.9l1.2,27.8h21.3l-1.4-28.4c0,0-2.1-9.4-11.3-9.6C902.2,213.6,901.6,223.9,901.6,223.9z"/>
<path class="st7" d="M907.7,226.3v21.3h11.1l-1-21.9c0,0-3.9-4.3-5.1-4.3S907.7,226.3,907.7,226.3z"/>
<linearGradient id="SVGID_1_" gradientUnits="userSpaceOnUse" x1="908.95" y1="206.5468" x2="908.95" y2="241.2468" gradientTransform="matrix(1 0 0 1 0 -58)">
	<stop  offset="0" style="stop-color:#066938"/>
	<stop  offset="5.143351e-03" style="stop-color:#1C6B3A"/>
	<stop  offset="3.165404e-02" style="stop-color:#4D7648"/>
	<stop  offset="6.134500e-02" style="stop-color:#6E8157"/>
	<stop  offset="9.404776e-02" style="stop-color:#888B64"/>
	<stop  offset="0.1309" style="stop-color:#9B9470"/>
	<stop  offset="0.1736" style="stop-color:#AA9A79"/>
	<stop  offset="0.2262" style="stop-color:#B49F7F"/>
	<stop  offset="0.299" style="stop-color:#BAA183"/>
	<stop  offset="0.4916" style="stop-color:#BCA284"/>
	<stop  offset="0.9413" style="stop-color:#BCA284"/>
</linearGradient>
<polygon class="st8" points="869.6,183.2 870,149.6 900,148.5 948.3,174.8 948.1,180.7 "/>
<polygon class="st1" points="869.9,149.6 869.7,146.9 855.7,138.6 860.7,272.9 873.1,271.3 "/>
<path class="st2" d="M831.2,130.3l-1.8-11.5l-15.1,3.6l0.9,28.4l11.8-3.3c0,0,1.2,4.9,6.2,3.8c5-1,3.8-6.4,3.8-6.4l6.8-1.5
	c0,0-1.2,6.1,3.2,4.9c4.4-1.3,3.5-6.4,3.5-6.4l6.8-1.5v7.2l2.4,1.8l0.6-7.7l4.1,4.1v6.9l5,2.3l-0.9-5.6l4.4,3.3l0.6-26.9l-5.3-5.4
	l-7.4,0.5v5.9l-0.6-9.5l-4.4-5.9l-15.4,4.9l0.6,11.5L831.2,130.3z"/>
<polygon class="st1" points="860.2,145.1 857.6,144.9 856.1,111.3 860.5,117.2 861.1,126.7 868.5,132 868.5,120.3 873.7,125.6 
	873.1,152.5 868.7,149.2 869.6,154.8 864.6,152.5 864.6,145.6 860.5,141.5 "/>
<polygon class="st9" points="861.1,120.8 861.1,126.7 868.5,132 868.5,120.3 "/>
<path class="st1" d="M820.6,141.5l0.9,31.9l-53.5,3.5c0,0-9-10.4-12-10.4l0.9-17.9L820.6,141.5z"/>
<polygon class="st2" points="666,170.7 756.3,165.8 757.2,148.6 678,153.5 666,165.5 "/>
<polygon class="st10" points="820.5,172.5 822,193 812.6,193.5 812.3,175.8 793.5,177.1 793.8,194.5 784.7,195 784.2,177.1 
	768,177.1 768,175.8 "/>
<polygon class="st10" points="746.3,166.3 730.5,177.6 722.6,179.9 722.3,196.3 712.3,196.8 712.9,179.6 692.1,180.4 692.1,197.1 
	685.4,197.3 684.5,180.9 666.3,181.4 666,170.7 "/>
<path class="st1" d="M720.8,145c0,0-0.8-5.2-2-5.5c-1.2-0.4,0.8-5.4,0.8-5.4s-14.7-14.4-43.2-4c0,0,1.6,16-2.9,19.6
	C673.5,149.7,691.1,143.7,720.8,145z"/>
<path class="st3" d="M719.7,134.3c0,0,4.3-1.2-3.5-6.4c-7.8-5.2-21.7-56.7-21.7-56.7h-2.7c0,0-15.6,41.8-15.6,45.4l0.4,13.8
	C676.5,130.3,700.9,119.3,719.7,134.3z"/>
<rect x="691.9" y="65" class="st3" width="2.3" height="6.1"/>
<rect x="688.2" y="126.9" class="st11" width="3.7" height="8.5"/>
<rect x="702.3" y="126.9" class="st11" width="4.1" height="8.7"/>
<ellipse class="st3" cx="692.5" cy="63.3" rx="1.8" ry="1.7"/>
<path class="st12" d="M693,61.6l-0.4-7.9L693,61.6z"/>
<polygon class="st1" points="664.9,223.2 653.8,378.6 826.6,381 823.8,213.3 664.8,214.6 "/>
<polygon class="st2" points="655.5,277.3 680.9,276.6 680.1,373.9 648.8,374.3 "/>
<path class="st1" d="M685.5,318.1l16,0.3c0,0,3.1,4.8-0.4,10.6c-3.5,5.8,2.3,6.1,2.3,6.1s4.3,2.7,3.1,8.9s0.8,9.6,0.8,9.6
	s3.1,3.1,2,8.2s-2,8.2-2,8.2l2.3,9.6l-24.6-1.4L685.5,318.1z"/>
<path class="st2" d="M823.4,318.5l-19.9,0.7c0,0,1.2,12.3-1.2,16.7c-2.3,4.4,0,44.7,0,44.7L825,381L823.4,318.5z"/>
<polygon class="st2" points="801.5,351.6 788.6,352.3 789,380.7 802.3,380.7 "/>
<path class="st13" d="M686.2,324.7c0,0,9.4-79.1,66.1-79.1C809,245.6,816,325,816,325L686.2,324.7z"/>
<path class="st12" d="M852,335.6"/>
<path class="st14" d="M658,369c0,0-19.8,8.8-36.7,15.8c0,0-13.8-5.9-19.2-2.3c-5.4,3.5-13.8-4.7-13.8-4.7s-2.4-5.3-6.6-7
	c0,0-7.8-7-12.6-8.8l5.4-238.5c0,0,103.4-27,95.6,26.4L658,369z"/>
<path class="st2" d="M672.2,149.7l-3.1-4.1c0,0,5.3-8.4,2.3-9.1c-2.9-0.7-6.1,10.4-6.1,10.4l-3.5-4.1c0,0,8.2-12.1-0.2-12.8
	s-3.1,11.6-3.1,11.6l-6.8-3.9c0,0,5.3-14.7-3.9-14.9c-9.2-0.2-6.1,11.3-6.1,11.3l-7.6-1.9c0,0,7.4-11.6-5.1-12
	c-12.5-0.3-6.1,11.1-6.1,11.1l-8-0.9c0,0,3.7-12.1-6.6-10.9c-10.4,1.2-4.7,12.3-4.7,12.3l-6.8-0.2c0,0,0.2-9.6-7.8-9.1
	s-3.5,10.4-3.5,10.4l-5.5,0.5c0,0-1-8-5.9-6.8s0,8.9,0,8.9l-4.5,4.1c0,0-1.4-4.6-4.7-3.2c-3.3,1.4,1.8,10.4,1.8,10.4l1.2-37.1
	c0,0,25-21.2,60-15c35,6.1,48.3,21.3,48.3,21.3S680.2,147,672.2,149.7z"/>
<polygon class="st11" points="578.9,102.6 579.5,112.9 585.4,110.6 586.4,99.2 578.4,103.5 "/>
<polygon class="st11" points="603.8,94.9 604,107.6 611.8,107.2 613,93.6 "/>
<polygon class="st11" points="630.9,95.4 630.9,108.2 639.5,109.9 640.5,97.8 "/>
<polygon class="st11" points="654.6,102.8 654.2,114 659.7,116.8 661.4,106.5 "/>
<polygon class="st11" points="671,111.8 670,125 671.8,125.8 673.7,113.9 "/>
<path class="st3" d="M567.4,126.7c0,0-10.7-7-1.6-18.5S621.4,7.5,621.4,7.5l54.7,109.1c0,0-56.5-46.1-108.3-6.3L567.4,126.7z"/>
<path class="st7" d="M589.2,205.8h-0.3c-1.1,0-2.1-0.9-2.1-2.1v-20.5c0-1.1,0.9-2.1,2.1-2.1h0.3c1.1,0,2.1,0.9,2.1,2.1v20.5
	C591.3,204.8,590.3,205.8,589.2,205.8z"/>
<path class="st7" d="M636.8,206h-0.3c-1.2,0-2.2-1-2.2-2.2V181c0-1.2,1-2.2,2.2-2.2h0.3c1.2,0,2.2,1,2.2,2.2v22.8
	C639,205,638.1,206,636.8,206z"/>
<path class="st7" d="M612,260.1h-0.3c-1.4,0-2.5-1.1-2.5-2.5v-18.9c0-1.4,1.1-2.5,2.5-2.5h0.3c1.4,0,2.5,1.1,2.5,2.5v18.9
	C614.4,259,613.3,260.1,612,260.1z"/>
<path class="st7" d="M647.9,270.3h-0.3c-1.3,0-2.3-1-2.3-2.3v-17.9c0-1.3,1-2.3,2.3-2.3h0.3c1.3,0,2.3,1,2.3,2.3V268
	C650.2,269.3,649.1,270.3,647.9,270.3z"/>
<path class="st15" d="M561.2,339c0,0,5.5-48.2-24.2-50.2s-27.8,106.9-27.8,106.9s7-21.2,11.7-23.6c0,0,11.7,1,17.6-18.8
	c0,0,16,4.1,18-13.3L561.2,339z"/>
<path class="st13" d="M570.5,301.8c0,0-15.2-22.5-33.2-23.2c0,0-34.4,4.1-42.2,59.8c0,0,9.4,24.6,5.1,45.1l-2.3,14.3l11.3-2
	c0,0-2.7-108.6,27.8-106.9c30.5,1.7,24.2,50.2,24.2,50.2l7.8-0.5L570.5,301.8z"/>
<path class="st2" d="M495.1,343.5l1.6-138.4l76.2-12l-2.3,112.5c0,0-10.2-20.2-33.2-24.1C514.3,277.7,491.2,335,495.1,343.5z"/>
<polygon class="st10" points="496.3,263.5 570.9,255.6 570.5,250.9 496.3,259.1 "/>
<polygon class="st11" points="515.8,261.8 515.8,267.6 524.4,267.6 524.8,260.1 "/>
<polygon class="st11" points="541.6,258 541.2,263.5 559.6,263.8 561.2,256.3 "/>
<path class="st7" d="M508.7,255.3h-0.3c-1.1,0-2-0.9-2-2v-23.6c0-1.1,0.9-2,2-2h0.3c1.1,0,2,0.9,2,2v23.6
	C510.7,254.4,509.8,255.3,508.7,255.3z"/>
<path class="st7" d="M533.2,249.5h-1.1c-4.4,0-8-3.6-8-8v-12.6c0-4.4,3.6-8,8-8h1.1c4.4,0,8,3.6,8,8v12.6
	C541.2,245.9,537.6,249.5,533.2,249.5z"/>
<path class="st7" d="M554.6,249.8h-0.3c-1,0-1.8-0.8-1.8-1.8v-23.7c0-1,0.8-1.8,1.8-1.8h0.3c1,0,1.8,0.8,1.8,1.8V248
	C556.5,249,555.6,249.8,554.6,249.8z"/>
<polygon class="st2" points="564.3,193.8 564.3,182.2 550.2,183.2 550.6,195.9 "/>
<polygon class="st2" points="545.1,197.6 546.3,187 531.5,186.6 531.1,200 "/>
<polygon class="st12" points="527.5,200 526,189.7 512.7,190.4 513.9,202 "/>
<polygon class="st12" points="508.4,202.7 508.4,193.5 494.7,194.5 496.7,204.7 "/>
<path class="st1" d="M495.1,338.3l1.6-133.6l30.9-4.8l3.5-40c0,0-53.5-45.1-105.9-6.5c0,0,0.4,11.3,5.5,11.3l-4.3,169.1
	C426.3,333.9,452.5,363.6,495.1,338.3z"/>
<path class="st2" d="M531.1,160c0,0,22.7-2.7,4.3-17.8s-107.9-30.7-121.9-0.7c0,0,1.6,8.9,11.7,12
	C425.1,153.5,475.2,114.6,531.1,160z"/>
<path class="st3" d="M540.8,148.4L484.6,30.5l-69.2,106.9C415.4,137.4,463.8,102.9,540.8,148.4z"/>
<path class="st7" d="M437.7,192.1h-0.1c-0.4,0-0.7-0.3-0.7-0.7v-12.9c0-0.4,0.3-0.7,0.7-0.7h0.1c0.4,0,0.7,0.3,0.7,0.7v12.9
	C438.4,191.8,438.1,192.1,437.7,192.1z"/>
<path class="st1" d="M825,381c0,0,34.4,18.1,74.2-5.1c0,0,20.3,6.6,52.7-4l0.6-30.9l-127.9,0.4L825,381z"/>
<polygon class="st2" points="701.5,379 701.5,379 700,382 694.7,382.5 693.9,386.6 684.2,387.9 683.3,391.5 675.7,391.8 
	673.3,395.6 662.2,397.1 659,400.2 654.3,400.5 653.7,404.8 645.8,405.1 645.5,412 787.7,410.7 786.2,407.6 801.7,406.4 
	800.6,402.5 819.6,403.8 797,396.4 795.3,394.1 792.4,392.5 800.3,392.5 793.5,389.7 793.5,386.1 793.5,380.7 "/>
<path class="st16" d="M951.9,370.9c0,0-32.5,10.2-52.1,5c0,0-24.5,22.9-106,4.9c0,0,24.9,5.5,17,13.8c0,0-29.8,14-23.1,16.6
	s17,0.5,17,5.7c0,0,7.1,2.9,5.5,5c0,0,9.7,8,14.6,8c0,0,5.7,7.3,2.4,8.3c0,0,8.5,1.4,13.8-1.4c0,0-9.7,6.2-7.3,6.6l4.9,1
	c0,0-4.9,2.8-2.8,3.1l12.2-1.4c0,0-2.4,4.5,0,5.2c0,0-6.5,1.4-3.6,3.1c0,0-7.7,1.7-6.9,6.6l3.2,0.3c0,0-6.9,4.5-4.9,5.9
	c0,0,10.9,9,19.5,7.6c0,0,14.2,3.1,7.7,5.5c0,0-6.1,5.5-4.5,9.4c0,0-15.8,6.9-12.2,10.4c0,0-16.6-0.7-18.2,9
	c-1.6,9.7,16.2,9.7,16.2,9.7s15,1.4,17.4,8c0,0,47,10.7,30.4,12.5c0,0-15-3.5-20.7-11.1c0,0-5.7,9-10.5,12.5l-7.7-2.2h99.5
	L951.9,370.9z"/>
<path class="st5" d="M897.3,439.8c0,0-0.4,1.7-5.5-0.3s3.5-3.8,3.5-3.8c1.6,0,2.7,5.5,2.7,5.5"/>
<path class="st5" d="M877.8,429.5c5.1,0.3,12.5,1.4,13.3-0.3c0.8-1.7,0.8-4.4,0.8-4.4s-8.6,4.1-10.2,4.1
	C880.1,428.8,877.8,429.5,877.8,429.5z"/>
<path class="st5" d="M920,421c-1.2,0.7,10.9-2,10.9-2s4.7,0.3,5.5,1.7c0.8,1.4,3.1-4.4,3.1-4.4s5.1-2.4,3.5,2.7s-7.4,5.5-7.4,5.5
	L920,421z"/>
<path class="st5" d="M920,441.1c0,0,10.6-4.4,11.7-3.1c1.2,1.4-3.5,3.8-3.5,3.8l6.3,0.7L920,441.1z"/>
<path class="st5" d="M916.8,446.6c0,0,18.8,0,21.5,2c0,0-15.6,11.3-23.1-1.4C907.9,434.6,916.8,446.6,916.8,446.6z"/>
<path class="st5" d="M929.7,490c0,0-7.8,6.5-9.8,3.4C918,490.3,929.7,490,929.7,490z"/>
<path class="st5" d="M878.5,506c0,0,16.4,5.8,19.5,3.4c0,0,3.9-2-0.8-2.7s-2.3-4.1-8.6-2.4S878.5,506,878.5,506z"/>
<path class="st5" d="M886,403.5c2.7,0.3,10.2,2.7,10.2-1.4s-7-1-7-1s-8.6,2-6.3,2.7C885.2,404.6,886,403.5,886,403.5z"/>
<path class="st4" d="M601.8,431.6l107.5-13.4c0,0-6.3,4.2-2.3,5.6c0,0,11.3-2.1,14.1-0.7c2.7,1.4-3.9,4.6-3.9,4.6s16.8-3.9,18.8-1.8
	s-8.2,4.6-8.2,4.6s24.6-0.4,23.8,6.7c-0.8,7-31.7,9.5-31.7,9.5s0.4,8.5-12.1,10.6c0,0,20.7,3.2,21.9,6s14.9,2.8,16,5.6
	c1.2,2.8-25,9.2-23.5,9.9c1.6,0.7,9.4,2.5,5.9,7.4s-18.8,9.9-18.8,9.9L691,541.6l-162.2-1.5L601.8,431.6z"/>
<path class="st2" d="M821.1,174l29-2l-0.9,50.7L846,223c0,0-4.4-11.3-13.2-9s-7.3,21.3-7.3,21.3l-7.6,1.3c0,0,2.3-22.5-12-22.3
	s-6.7,23.1-6.7,23.1l-8.2,0.8c0,0,6.4-22-9.4-22.3c-15.8-0.3-9.7,22.8-9.7,22.8l-7,0.8c0,0,2.1-24.9-13.2-25.1s-12.9,26.4-12.9,26.4
	l-7.3-0.3c0,0,4.1-22.8-10.6-23.1c-14.7-0.3-7.6,23.1-7.6,23.1l-7-0.3c0,0,4.4-21.8-9.4-21.5c-13.8,0.3-8.2,22-8.2,22l-7.6,0.3
	c0,0,5-21.3-8.8-22.3c0,0-7.3,1.5-7.3,3.3l1.5-41.8l18.2-0.5l0.9,16.4l6.7-0.3v-16.7l20.8-0.8l-0.6,17.2l10-0.5l0.3-16.4l7.9-2.3
	l15.8-11.3l10-0.5l11.7,11.3h16.1l0.6,17.9l9.1-0.5l-0.3-17.4l18.8-1.3l0.3,17.7l9.4-0.5L821.1,174z"/>
<polygon class="st11" points="784.7,193.7 783.9,199.9 794.7,199.4 793.8,193.2 "/>
<polygon class="st11" points="812.9,191.7 809.9,191.9 810.8,199.4 822,198.6 822.3,191.2 "/>
<polygon class="st11" points="722.6,194.5 722.3,201.4 711.4,201.7 712.6,195 "/>
<polygon class="st11" points="692.4,195.5 694.7,196.3 694.2,202.2 683.3,202.7 683.9,196 "/>
<polygon class="st7" points="751.3,201.2 754.8,203.5 758.1,199.6 758.1,185.8 753.7,178.6 750.4,184.2 "/>
<path class="st12" d="M810.9,318.8c0,0-5.9-64.9-60.6-64.9S694,317.8,694,317.8"/>
<path class="st1" d="M816,318.7"/>
<path class="st13" d="M816,318.7c0,0-12.5-1.3-12.1,2.5s0.4,12-1.6,14.7s-0.8,15.7-0.8,15.7l-10.2,0.3l-1.6-33.8L816,318.7z"/>
<path class="st13" d="M715.6,318.2l-16.8-1c0,0,6.3,0.3,2.3,11.1c0,0-3.1,4.2,2.3,6.3c0,0,3.9,3.8,3.1,9c0,0-2.7,4.9,0.8,9.7
	c0,0,4.3,5.2,2,8.3l-2,8.3l2.3,9.7l7.8-0.7L715.6,318.2z"/>
<path class="st12" d="M803.5,319.2c0,0-9.8-59.8-52.8-59.8s-49.2,59.1-49.2,59.1"/>
<polyline class="st12" points="743.3,166.5 720.6,146 694.4,147.2 "/>
<path class="st17" d="M682.2,276.1h-1.4c1.8-1,3-2.7,3-4.7v-0.1c0-3.1-2.9-5.6-6.4-5.6h-0.6c-2.5,0-4.7,1.3-5.8,3.2
	c-0.1,0-0.2,0-0.4,0h-0.1c-3.5,0-6.4,2.5-6.4,5.6v0.8c-0.2-0.1-0.5-0.1-0.8-0.1h-1c-1.6,0-2.8,1.1-2.8,2.5s1.3,2.5,2.8,2.5h1
	c0.6,0,1.2-0.2,1.7-0.5l0.1,0.1c-0.6,0.6-1,1.3-1,2.2v0.5c0,1.7,1.6,3.2,3.6,3.2s3.6-1.4,3.6-3.2l0,0c1.6-0.2,3-0.8,4-1.8
	c0.6,1.1,1.8,1.8,3.3,1.8h3.6c2,0,3.6-1.4,3.6-3.2S684.2,276.1,682.2,276.1z"/>
<g>
	<path class="st18" d="M895.3,149.6h-0.8c-0.4,0-0.8-0.3-0.8-0.8v-0.2c0-0.4,0.3-0.8,0.8-0.8h0.8c0.4,0,0.8,0.3,0.8,0.8v0.2
		C896.1,149.3,895.8,149.6,895.3,149.6z"/>
	<path class="st18" d="M897.8,150.4h-0.4c-1.1,0-2.1-0.9-2.1-2.1v-0.6c0-1.1,0.9-2.1,2.1-2.1h0.4c1.1,0,2.1,0.9,2.1,2.1v0.6
		C899.9,149.5,898.9,150.4,897.8,150.4z"/>
	<path class="st18" d="M902,150.4h-1.9c-0.5,0-1-0.4-1-1v-0.3c0-0.5,0.4-1,1-1h1.9c0.5,0,1,0.4,1,1v0.3
		C902.9,150,902.5,150.4,902,150.4z"/>
	<path class="st18" d="M896.9,151.5h-0.5c-0.6,0-1-0.5-1-1v-0.3c0-0.6,0.5-1,1-1h0.5c0.6,0,1,0.5,1,1v0.3
		C897.9,151,897.4,151.5,896.9,151.5z"/>
	<path class="st18" d="M900.5,148.5h-1.2c-0.9,0-1.7-0.8-1.7-1.7v-0.5c0-0.9,0.8-1.7,1.7-1.7h1.2c0.9,0,1.7,0.8,1.7,1.7v0.5
		C902.2,147.8,901.4,148.5,900.5,148.5z"/>
</g>
<g>
	<path class="st18" d="M888.4,152.1h-0.8c-0.4,0-0.8-0.3-0.8-0.8v-0.2c0-0.4,0.3-0.8,0.8-0.8h0.8c0.4,0,0.8,0.3,0.8,0.8v0.2
		C889.2,151.8,888.9,152.1,888.4,152.1z"/>
	<path class="st18" d="M890.9,152.9h-0.4c-1.1,0-2.1-0.9-2.1-2.1v-0.6c0-1.1,0.9-2.1,2.1-2.1h0.4c1.1,0,2.1,0.9,2.1,2.1v0.6
		C893,152,892,152.9,890.9,152.9z"/>
	<path class="st18" d="M895.1,152.9h-1.9c-0.5,0-1-0.4-1-1v-0.3c0-0.5,0.4-1,1-1h1.9c0.5,0,1,0.4,1,1v0.3
		C896,152.5,895.6,152.9,895.1,152.9z"/>
	<path class="st18" d="M890,154h-0.5c-0.6,0-1-0.5-1-1v-0.3c0-0.6,0.5-1,1-1h0.5c0.6,0,1,0.5,1,1v0.3C891,153.5,890.5,154,890,154z"
		/>
	<path class="st18" d="M893.6,151h-1.2c-0.9,0-1.7-0.8-1.7-1.7v-0.5c0-0.9,0.8-1.7,1.7-1.7h1.2c0.9,0,1.7,0.8,1.7,1.7v0.5
		C895.3,150.3,894.5,151,893.6,151z"/>
</g>
<polygon class="st2" points="855.6,138.6 819.3,145.6 824.1,278.5 860.7,272.1 "/>
<path class="st17" d="M700,315.4h-0.9c1.2-0.7,1.9-1.8,1.9-3.1l0,0c0-2-1.9-3.7-4.2-3.7h-0.4c-1.7,0-3.1,0.9-3.8,2.1
	c-0.1,0-0.2,0-0.2,0l0,0c-2.3,0-4.2,1.7-4.2,3.7v0.5c-0.2,0-0.3-0.1-0.5-0.1H687c-1,0-1.9,0.7-1.9,1.6s0.8,1.6,1.9,1.6h0.7
	c0.4,0,0.8-0.1,1.1-0.3c0,0,0,0.1,0.1,0.1c-0.4,0.4-0.7,0.9-0.7,1.4v0.3c0,1.1,1.1,2.1,2.4,2.1c1.3,0,2.4-0.9,2.4-2.1l0,0
	c1-0.1,1.9-0.5,2.6-1.2c0.4,0.7,1.2,1.2,2.1,1.2h2.4c1.3,0,2.4-0.9,2.4-2.1C702.4,316.3,701.3,315.4,700,315.4z"/>
<path class="st17" d="M802.3,349.8h-0.9c1.2-0.7,2-1.8,2-3.2l0,0c0-2.1-1.9-3.8-4.3-3.8h-0.4c-1.7,0-3.2,0.9-3.9,2.1
	c-0.1,0-0.2,0-0.2,0l0,0c-2.4,0-4.3,1.7-4.3,3.8v0.5c-0.2,0-0.3-0.1-0.5-0.1H789c-1,0-1.9,0.7-1.9,1.7c0,0.9,0.9,1.7,1.9,1.7h0.7
	c0.4,0,0.8-0.1,1.1-0.3c0,0,0,0.1,0.1,0.1c-0.4,0.4-0.7,0.9-0.7,1.5v0.3c0,1.2,1.1,2.1,2.4,2.1s2.4-1,2.4-2.1l0,0
	c1-0.1,2-0.5,2.7-1.2c0.4,0.7,1.2,1.2,2.2,1.2h2.4c1.3,0,2.4-1,2.4-2.1S803.6,349.8,802.3,349.8z"/>
<path class="st17" d="M822.7,317.3h-1.4c1.8-1,3-2.7,3-4.7v-0.1c0-3.1-2.9-5.6-6.4-5.6h-0.6c-2.5,0-4.7,1.3-5.8,3.2
	c-0.1,0-0.2,0-0.4,0H811c-3.5,0-6.4,2.5-6.4,5.6v0.8c-0.2-0.1-0.5-0.1-0.8-0.1h-1c-1.6,0-2.8,1.1-2.8,2.5s1.3,2.5,2.8,2.5h1
	c0.6,0,1.2-0.2,1.7-0.5l0.1,0.1c-0.6,0.6-1,1.3-1,2.2v0.5c0,1.7,1.6,3.2,3.6,3.2s3.6-1.4,3.6-3.2l0,0c1.6-0.2,3-0.8,4-1.8
	c0.6,1.1,1.8,1.8,3.3,1.8h3.6c2,0,3.6-1.4,3.6-3.2S824.7,317.3,822.7,317.3z"/>
<path class="st17" d="M663.1,279.3c0,0-1.1,11.2,2.4,11.2s3.9-8.5,3.9-8.5s-8.6,7.4-0.4,8.5s9.8-14.7,9.8-14.7s-7.5,27-1.6,27
	s6.7-23.9,6.7-23.9L663.1,279.3z"/>
<line class="st12" x1="623.3" y1="427.8" x2="370.4" y2="496.8"/>
<polyline class="st12" points="700,382 792.9,385.1 793.8,388.7 693.9,386.6 684.2,387.9 683.3,391.5 792.4,392.5 795.3,394.1 
	797,396.4 673.3,395.6 662.2,397.1 659,400.2 797.6,401 790.3,405.9 653.7,404.8 "/>
<line class="st12" x1="206.8" y1="540.6" x2="206.8" y2="541.6"/>
<g>
	<path class="st12" d="M709,335.7"/>
</g>
<path class="st4" d="M700.1,412.7c0,0,8.5,0.3,8.5,1.9s-10.8,0.3-10.8,0.3L700.1,412.7z"/>
<path class="st16" d="M825,381l-31.2-0.3l-0.2,8.6l7.6,3.2l-8.2-0.4l2.3,2l1.8,2.3l5,2c0,0,7.7-3.6,8.8-4.1c0,0,9.7-7.1-14.7-13.1
	c0,0,38.4,8.3,50.4,6.4C846.5,387.6,833.1,385.7,825,381z"/>
<linearGradient id="SVGID_00000090983398317279282290000011964580385620635580_" gradientUnits="userSpaceOnUse" x1="-1.9" y1="524.0947" x2="719.9809" y2="524.0947" gradientTransform="matrix(1 0 0 1 0 -58)">
	<stop  offset="0.8073" style="stop-color:#4696D2"/>
	<stop  offset="0.8498" style="stop-color:#4B98D3"/>
	<stop  offset="0.8801" style="stop-color:#599DD5"/>
	<stop  offset="0.9065" style="stop-color:#6DA5D8"/>
	<stop  offset="0.9307" style="stop-color:#87B1DD"/>
	<stop  offset="0.9535" style="stop-color:#A4C1E3"/>
	<stop  offset="0.9752" style="stop-color:#C6D5E9"/>
	<stop  offset="0.9956" style="stop-color:#E9ECF0"/>
	<stop  offset="1" style="stop-color:#F2F2F2"/>
</linearGradient>
<path style="fill:url(#SVGID_00000090983398317279282290000011964580385620635580_);" d="M664,444.7c-5.6-3.9-39.7-5.6-65.6-6.2
	c7.1-3,9.4-5.7,9.4-5.7s-23.7,1.8-7-12.4c16.7-14.2-79.4-29.2-79.4-29.2l0.5,20.7l-25-1.7l-61.5,8.3c-3.8-0.4-7.3-1.1-10.3-2
	c0,0-9.9-7-21.4-6.8l15.4-13.8l-11.5,2.1c0,0-14.8-3.8-29.7-2.1l0.3,1.7l-89.1,3.7l5.8-4.7l-36.4-0.6c-7.4-1-19.2-2.3-22.1-0.5
	L-1.9,393l1.3,147.2l-0.1,0.3l99.1-0.1l0.2,0.1h339.2l-0.7-0.1c194.4,3.9,247.1-12.4,204.1-24c0,0,9.3-15.8,9.8-16.8
	c0.6-1,6.8-3.1,6.8-3.1s20.8-2.1,21.4-5.6c0.6-3.5-13.5-6.6-13.5-6.6c2.8-2.1-7.9-7.3-11.3-10.5c-3.4-3.1,34.9-15,34.9-15
	s21.4,1,29.9-7C727.7,443.6,664,444.7,664,444.7z"/>
<linearGradient id="SVGID_00000144300298147678250330000011789709216763097473_" gradientUnits="userSpaceOnUse" x1="363.3" y1="430.3346" x2="500.851" y2="430.3346" gradientTransform="matrix(1 0 0 1 0 -58)">
	<stop  offset="8.379889e-03" style="stop-color:#35AE73"/>
	<stop  offset="0.933" style="stop-color:#48AE4D"/>
</linearGradient>
<path style="fill:url(#SVGID_00000144300298147678250330000011789709216763097473_);" d="M495.1,334.4c-43.4,31.1-68.8-5.8-68.8-5.8
	c-3.1,5.3-8,5.3-8,5.3c-6.4-2-16.4,29.3-16.4,29.3c-1.8-4.7-7.6-0.7-7.6-0.7s-0.6,18-6.4,17.3c-5.9-0.7-9.4,9.3-9.4,9.3
	c-5.3,0-15.2,20-15.2,20H410c-0.5,1.9-0.8,4.1-1,6.6c0,0,36.5,2.6,68-6c0,0,0.1-5.7-2.7-10.6c12.6,4.9,23.6,12.5,23.6,12.5
	C505.9,384.8,495.1,334.4,495.1,334.4z"/>
<linearGradient id="SVGID_00000158736938566844263790000005312006862918608528_" gradientUnits="userSpaceOnUse" x1="479.6371" y1="434.6251" x2="678.8851" y2="434.6251" gradientTransform="matrix(1 0 0 1 0 -58)">
	<stop  offset="8.379889e-03" style="stop-color:#35AE73"/>
	<stop  offset="0.933" style="stop-color:#48AE4D"/>
</linearGradient>
<path style="fill:url(#SVGID_00000158736938566844263790000005312006862918608528_);" d="M678.6,379.7c-2.6-10-27.7-7.6-29.5-10.7
	c-1.8-3.2-4.2-7.2-13.4-8.7c-8.9-1.5-3.4,11.7-11.6,10.3c2.8-2.7,4.2-6.3,3.1-10.9c-3.8-14.9-41.5-11.3-44.2-16.1
	c-2.7-4.8-6.3-10.7-20.1-13.1s-4.6,18.7-18.5,15.2s-22.1,21.5-22.1,21.5s-0.7,0.9-1,2.1c-13.6-2.2-4.5,18.7-18.4,15.2
	S480.8,406,480.8,406s-3.7,4.5,2.1,8c5.8,3.5,24.7,1,25.2,4.9s24.5,2.1,38.1,3.8c13.6,1.8,4.7-7.1,12-6.2c4.4,0.6,14.6-0.7,21.3-4.9
	c4.3,0.1,8.6,0.3,12.1,0.8c13.6,1.8,4.7-7.1,12-6.2c6.1,0.8,23.7-1.9,27.2-11.5c5.4,0.6,15.1,0.2,21.4,1c9.1,1.2,3.1-4.8,8-4.1
	C665.3,392.4,681.2,389.7,678.6,379.7z M611,376.8c0.5-0.1,1.1-0.3,1.6-0.4c-0.1,0.2-0.3,0.4-0.4,0.6
	C611.8,377,611.4,376.9,611,376.8z"/>
<path class="st16" d="M951.9,370.9c0,0,38-28.7,68.8-23.5c30.9,5.1,9-15.4,23.1-12.9c14.1,2.6,65.6,18,72,5.1s55.3-51.4,61.7-46.3
	c6.4,5.1,23.1-2.6,23.1-2.6l-2.2,250.7l-245.8-2.8L951.9,370.9z"/>
<polygon class="st1" points="948.1,180.7 982.1,366.7 946.1,373.1 "/>
<linearGradient id="SVGID_00000135670244867374860750000014676920476572262831_" gradientUnits="userSpaceOnUse" x1="834.2" y1="430.5346" x2="987.3088" y2="430.5346" gradientTransform="matrix(1 0 0 1 0 -58)">
	<stop  offset="8.379889e-03" style="stop-color:#35AE73"/>
	<stop  offset="0.933" style="stop-color:#48AE4D"/>
</linearGradient>
<path style="fill:url(#SVGID_00000135670244867374860750000014676920476572262831_);" d="M981,334.6c-48.3,31.1-76.5-5.8-76.5-5.8
	c-3.5,5.3-8.9,5.3-8.9,5.3c-7.2-2-18.3,29.3-18.3,29.3c-2-4.7-8.5-0.7-8.5-0.7s-0.7,18-7.2,17.3s-10.4,9.3-10.4,9.3
	c-5.9,0-17,20-17,20h51.9c-0.6,1.9-0.9,4.1-1.1,6.6c0,0,40.6,2.6,75.6-6c0,0,0.1-5.7-3-10.6c14,4.9,26.3,12.5,26.3,12.5
	C993,385.1,981,334.6,981,334.6z"/>
<path class="st2" d="M825,278.5l-0.4,62.9l145.6-0.1l0.4-76.2C970.6,265,839.3,272,825,278.5z"/>
<linearGradient id="SVGID_00000033359879431691153670000018177024933361300616_" gradientUnits="userSpaceOnUse" x1="898.6375" y1="400.6398" x2="979.3541" y2="400.6398" gradientTransform="matrix(1 0 0 1 0 -58)">
	<stop  offset="8.379889e-03" style="stop-color:#35AE73"/>
	<stop  offset="0.933" style="stop-color:#48AE4D"/>
</linearGradient>
<path style="fill:url(#SVGID_00000033359879431691153670000018177024933361300616_);" d="M977,337.1c0,0,11.6-19.3-16.7-15.4
	s-69.4,16.7-60.4,28.3s42.4,14.1,51.4,14.1S977,337.1,977,337.1z"/>
</svg>
