<?xml version="1.0" encoding="utf-8"?>
<!-- Generator: Adobe Illustrator 26.0.0, SVG Export Plug-In . SVG Version: 6.00 Build 0)  -->
<svg version="1.1" id="Capa_1" xmlns="http://www.w3.org/2000/svg" xmlns:xlink="http://www.w3.org/1999/xlink" x="0px" y="0px"
	 viewBox="0 0 1200 540" style="enable-background:new 0 0 1200 540;" xml:space="preserve">
<style type="text/css">
	.st0{clip-path:url(#SVGID_00000037654733426199352650000004837788070640083642_);fill:#DFFFF9;}
	.st1{clip-path:url(#SVGID_00000037654733426199352650000004837788070640083642_);}
	.st2{clip-path:url(#SVGID_00000037654733426199352650000004837788070640083642_);fill:#30545C;}
	.st3{clip-path:url(#SVGID_00000037654733426199352650000004837788070640083642_);fill:none;}
	.st4{clip-path:url(#SVGID_00000037654733426199352650000004837788070640083642_);fill:#47B34A;}
	.st5{clip-path:url(#SVGID_00000037654733426199352650000004837788070640083642_);fill:#5FBC56;}
	.st6{clip-path:url(#SVGID_00000037654733426199352650000004837788070640083642_);fill:#51B64F;}
	.st7{clip-path:url(#SVGID_00000037654733426199352650000004837788070640083642_);fill:#9CD275;}
	.st8{clip-path:url(#SVGID_00000037654733426199352650000004837788070640083642_);fill:#5CBA54;}
	.st9{clip-path:url(#SVGID_00000037654733426199352650000004837788070640083642_);fill:#65BE59;}
	.st10{clip-path:url(#SVGID_00000037654733426199352650000004837788070640083642_);fill:#69BF5B;}
	.st11{clip-path:url(#SVGID_00000037654733426199352650000004837788070640083642_);fill:#6EC15E;}
	.st12{clip-path:url(#SVGID_00000037654733426199352650000004837788070640083642_);fill:#73C360;}
	.st13{clip-path:url(#SVGID_00000037654733426199352650000004837788070640083642_);fill:#78C563;}
	.st14{clip-path:url(#SVGID_00000037654733426199352650000004837788070640083642_);fill:#7EC766;}
	.st15{clip-path:url(#SVGID_00000037654733426199352650000004837788070640083642_);fill:#82C968;}
	.st16{clip-path:url(#SVGID_00000037654733426199352650000004837788070640083642_);fill:#8DCD6E;}
	.st17{clip-path:url(#SVGID_00000037654733426199352650000004837788070640083642_);fill:#96D072;}
	.st18{clip-path:url(#SVGID_00000037654733426199352650000004837788070640083642_);fill:#A1D477;}
	.st19{clip-path:url(#SVGID_00000037654733426199352650000004837788070640083642_);fill:#A4D579;}
	.st20{clip-path:url(#SVGID_00000037654733426199352650000004837788070640083642_);fill:#A6D67A;}
	.st21{clip-path:url(#SVGID_00000037654733426199352650000004837788070640083642_);fill:#A9D77B;}
	.st22{clip-path:url(#SVGID_00000037654733426199352650000004837788070640083642_);fill:#48B34A;}
	.st23{clip-path:url(#SVGID_00000037654733426199352650000004837788070640083642_);fill:#5DBB55;}
	.st24{clip-path:url(#SVGID_00000037654733426199352650000004837788070640083642_);fill:#51B74F;}
	.st25{clip-path:url(#SVGID_00000037654733426199352650000004837788070640083642_);fill:#6BC05C;}
	.st26{clip-path:url(#SVGID_00000037654733426199352650000004837788070640083642_);fill:#5ABA53;}
	.st27{clip-path:url(#SVGID_00000037654733426199352650000004837788070640083642_);fill:#77C462;}
	.st28{clip-path:url(#SVGID_00000037654733426199352650000004837788070640083642_);fill:#7AC664;}
	.st29{clip-path:url(#SVGID_00000037654733426199352650000004837788070640083642_);fill:#84C969;}
	.st30{clip-path:url(#SVGID_00000037654733426199352650000004837788070640083642_);fill:#8ACC6C;}
	.st31{clip-path:url(#SVGID_00000037654733426199352650000004837788070640083642_);fill:#91CE6F;}
	.st32{clip-path:url(#SVGID_00000037654733426199352650000004837788070640083642_);fill:#93CF70;}
	.st33{clip-path:url(#SVGID_00000037654733426199352650000004837788070640083642_);fill:#9FD376;}
	.st34{clip-path:url(#SVGID_00000037654733426199352650000004837788070640083642_);fill:#ACD87D;}
	.st35{clip-path:url(#SVGID_00000037654733426199352650000004837788070640083642_);fill:#A0D477;}
	.st36{clip-path:url(#SVGID_00000037654733426199352650000004837788070640083642_);fill:#A8D67B;}
	.st37{clip-path:url(#SVGID_00000037654733426199352650000004837788070640083642_);fill:#E5E5E5;}
	.st38{clip-path:url(#SVGID_00000037654733426199352650000004837788070640083642_);fill:#E1E1E1;}
	.st39{clip-path:url(#SVGID_00000037654733426199352650000004837788070640083642_);fill:#DDDDDD;}
	.st40{clip-path:url(#SVGID_00000037654733426199352650000004837788070640083642_);fill:#D9D9D9;}
	.st41{clip-path:url(#SVGID_00000037654733426199352650000004837788070640083642_);fill:#D5D5D5;}
	.st42{clip-path:url(#SVGID_00000037654733426199352650000004837788070640083642_);fill:#D7D7D7;}
	.st43{clip-path:url(#SVGID_00000037654733426199352650000004837788070640083642_);fill:#D0D0D0;}
	.st44{clip-path:url(#SVGID_00000037654733426199352650000004837788070640083642_);fill:#CFCFCF;}
	.st45{clip-path:url(#SVGID_00000037654733426199352650000004837788070640083642_);fill:#C4CCD0;}
	.st46{clip-path:url(#SVGID_00000037654733426199352650000004837788070640083642_);fill:#CDCDCD;}
	.st47{clip-path:url(#SVGID_00000037654733426199352650000004837788070640083642_);fill:#CACCCD;}
	.st48{fill:#ABD87C;}
	.st49{fill:#ACD87D;}
	.st50{clip-path:url(#SVGID_00000037654733426199352650000004837788070640083642_);fill:#6A9B32;}
</style>
<g>
	<defs>
		<rect id="SVGID_1_" x="-2.5" y="-0.6" width="1199.6" height="538.1"/>
	</defs>
	<clipPath id="SVGID_00000160186139476070882840000010701123539280839089_">
		<use xlink:href="#SVGID_1_"  style="overflow:visible;"/>
	</clipPath>
	
		<rect x="-2.5" y="-2.5" style="clip-path:url(#SVGID_00000160186139476070882840000010701123539280839089_);fill:#DFFFF9;" width="1199.6" height="540"/>
	<g style="clip-path:url(#SVGID_00000160186139476070882840000010701123539280839089_);">
		<g>
			<g>
				<image style="overflow:visible;" width="64" height="21" xlink:href="44EDFD00.png"  transform="matrix(1 0 0 1 1158 -135)">
				</image>
			</g>
			<g>
				<image style="overflow:visible;" width="65" height="12" xlink:href="44EDFD01.png"  transform="matrix(1 0 0 1 1134 -130)">
				</image>
			</g>
			<g>
				<image style="overflow:visible;" width="71" height="10" xlink:href="44EDFD07.png"  transform="matrix(1 0 0 1 1159 -135)">
				</image>
			</g>
			<g>
				<image style="overflow:visible;" width="70" height="6" xlink:href="44EDFD02.png"  transform="matrix(1 0 0 1 1142 -139)">
				</image>
			</g>
			<g>
				<image style="overflow:visible;" width="73" height="13" xlink:href="44EDFD03.png"  transform="matrix(1 0 0 1 1135 -154)">
				</image>
			</g>
			<g>
				<image style="overflow:visible;" width="63" height="10" xlink:href="44EDFD0E.png"  transform="matrix(1 0 0 1 1166 -148)">
				</image>
			</g>
			<g>
				<image style="overflow:visible;" width="68" height="26" xlink:href="44EDFD0F.png"  transform="matrix(1 0 0 1 1135 -177)">
				</image>
			</g>
			<g>
				<image style="overflow:visible;" width="40" height="68" xlink:href="44EDFD04.png"  transform="matrix(1 0 0 1 1251 -221)">
				</image>
			</g>
			<g>
				<image style="overflow:visible;" width="54" height="27" xlink:href="44EDFD05.png"  transform="matrix(1 0 0 1 1147 -180)">
				</image>
			</g>
			<g>
				<image style="overflow:visible;" width="43" height="24" xlink:href="F665915F.png"  transform="matrix(1 0 0 1 1183 -167)">
				</image>
			</g>
			<g>
				<image style="overflow:visible;" width="72" height="11" xlink:href="F665915D.png"  transform="matrix(1 0 0 1 1130 -146)">
				</image>
			</g>
			<g>
				<image style="overflow:visible;" width="73" height="20" xlink:href="F665915B.png"  transform="matrix(1 0 0 1 1141 -163)">
				</image>
			</g>
			<g>
				<image style="overflow:visible;" width="56" height="13" xlink:href="F6659155.png"  transform="matrix(1 0 0 1 1177 -151)">
				</image>
			</g>
			<g>
				<image style="overflow:visible;" width="67" height="29" xlink:href="F6659157.png"  transform="matrix(1 0 0 1 1136 -125)">
				</image>
			</g>
			<g>
				<image style="overflow:visible;" width="54" height="23" xlink:href="F665914A.png"  transform="matrix(1 0 0 1 1181 -138)">
				</image>
			</g>
			<g>
				<image style="overflow:visible;" width="29" height="13" xlink:href="F665914B.png"  transform="matrix(1 0 0 1 1196 -135)">
				</image>
			</g>
			<g>
				<image style="overflow:visible;" width="41" height="15" xlink:href="F665914D.png"  transform="matrix(1 0 0 1 1190 -139)">
				</image>
			</g>
			<g>
				<image style="overflow:visible;" width="24" height="10" xlink:href="F665914F.png"  transform="matrix(1 0 0 1 1203 -138)">
				</image>
			</g>
			<g>
				<image style="overflow:visible;" width="48" height="11" xlink:href="F6659148.png"  transform="matrix(1 0 0 1 1184 -140)">
				</image>
			</g>
			<g>
				<image style="overflow:visible;" width="28" height="6" xlink:href="F665916E.png"  transform="matrix(1 0 0 1 1197 -141)">
				</image>
			</g>
			<g>
				<image style="overflow:visible;" width="19" height="7" xlink:href="F665916D.png"  transform="matrix(1 0 0 1 1212 -142)">
				</image>
			</g>
			<g>
				<image style="overflow:visible;" width="67" height="33" xlink:href="F665916A.png"  transform="matrix(1 0 0 1 1169 -135)">
				</image>
			</g>
			<g>
				<image style="overflow:visible;" width="45" height="26" xlink:href="F6659165.png"  transform="matrix(1 0 0 1 1193 -137)">
				</image>
			</g>
			<g>
				<image style="overflow:visible;" width="59" height="37" xlink:href="F6659166.png"  transform="matrix(1 0 0 1 1172 -129)">
				</image>
			</g>
			<g>
				<image style="overflow:visible;" width="51" height="32" xlink:href="F6659164.png"  transform="matrix(1 0 0 1 1185 -135)">
				</image>
			</g>
			<g>
				<image style="overflow:visible;" width="41" height="29" xlink:href="F665919A.png"  transform="matrix(1 0 0 1 1194 -133)">
				</image>
			</g>
			<g>
				<image style="overflow:visible;" width="48" height="38" xlink:href="F665919D.png"  transform="matrix(1 0 0 1 1157 -116)">
				</image>
			</g>
			<g>
				<image style="overflow:visible;" width="15" height="15" xlink:href="F665919E.png"  transform="matrix(1 0 0 1 1213 -130)">
				</image>
			</g>
			<g>
				<image style="overflow:visible;" width="50" height="45" xlink:href="F665919C.png"  transform="matrix(1 0 0 1 1180 -130)">
				</image>
			</g>
			<g>
				<image style="overflow:visible;" width="49" height="48" xlink:href="F6659181.png"  transform="matrix(1 0 0 1 1157 -110)">
				</image>
			</g>
			<g>
				<image style="overflow:visible;" width="20" height="19" xlink:href="F66591BF.png"  transform="matrix(1 0 0 1 1211 -130)">
				</image>
			</g>
			<g>
				<image style="overflow:visible;" width="48" height="48" xlink:href="F6659180.png"  transform="matrix(1 0 0 1 1187 -129)">
				</image>
			</g>
			<g>
				<image style="overflow:visible;" width="42" height="42" xlink:href="F6659183.png"  transform="matrix(1 0 0 1 1203 -138)">
				</image>
			</g>
			<g>
				<image style="overflow:visible;" width="19" height="21" xlink:href="F6659187.png"  transform="matrix(1 0 0 1 1212 -130)">
				</image>
			</g>
			<g>
				<image style="overflow:visible;" width="42" height="54" xlink:href="F6659182.png"  transform="matrix(1 0 0 1 1191 -122)">
				</image>
			</g>
			<g>
				<image style="overflow:visible;" width="42" height="60" xlink:href="F665918D.png"  transform="matrix(1 0 0 1 1197 -126)">
				</image>
			</g>
			<g>
				<image style="overflow:visible;" width="29" height="64" xlink:href="F665918E.png"  transform="matrix(1 0 0 1 1204 -108)">
				</image>
			</g>
			<g>
				<image style="overflow:visible;" width="64" height="43" xlink:href="F665918F.png"  transform="matrix(1 0 0 1 1241 -134)">
				</image>
			</g>
			<g>
				<image style="overflow:visible;" width="19" height="72" xlink:href="F6659184.png"  transform="matrix(1 0 0 1 1216 -115)">
				</image>
			</g>
			<g>
				<image style="overflow:visible;" width="29" height="43" xlink:href="F66591EC.png"  transform="matrix(1 0 0 1 1211 -134)">
				</image>
			</g>
			<g>
				<image style="overflow:visible;" width="24" height="23" xlink:href="F66591EF.png"  transform="matrix(1 0 0 1 1212 -132)">
				</image>
			</g>
			<g>
				<image style="overflow:visible;" width="16" height="67" xlink:href="F66591ED.png"  transform="matrix(1 0 0 1 1225 -101)">
				</image>
			</g>
			<g>
				<image style="overflow:visible;" width="7" height="70" xlink:href="F66591EB.png"  transform="matrix(1 0 0 1 1232 -126)">
				</image>
			</g>
			<g>
				<image style="overflow:visible;" width="9" height="72" xlink:href="F66591E4.png"  transform="matrix(1 0 0 1 1242 -110)">
				</image>
			</g>
			<g>
				<image style="overflow:visible;" width="10" height="50" xlink:href="F66591E7.png"  transform="matrix(1 0 0 1 1239 -135)">
				</image>
			</g>
			<g>
				<image style="overflow:visible;" width="9" height="26" xlink:href="F66591E5.png"  transform="matrix(1 0 0 1 1237 -128)">
				</image>
			</g>
			<g>
				<image style="overflow:visible;" width="14" height="35" xlink:href="F66591FB.png"  transform="matrix(1 0 0 1 1228 -130)">
				</image>
			</g>
			<g>
				<image style="overflow:visible;" width="23" height="30" xlink:href="F66591FC.png"  transform="matrix(1 0 0 1 1221 -128)">
				</image>
			</g>
			<g>
				<image style="overflow:visible;" width="17" height="21" xlink:href="F66591FF.png"  transform="matrix(1 0 0 1 1225 -133)">
				</image>
			</g>
			<g>
				<image style="overflow:visible;" width="16" height="14" xlink:href="F66591DB.png"  transform="matrix(1 0 0 1 1225 -135)">
				</image>
			</g>
			<g>
				<image style="overflow:visible;" width="13" height="8" xlink:href="F66591D9.png"  transform="matrix(1 0 0 1 1226 -137)">
				</image>
			</g>
			<g>
				<image style="overflow:visible;" width="18" height="64" xlink:href="F66591DF.png"  transform="matrix(1 0 0 1 1247 -103)">
				</image>
			</g>
			<g>
				<image style="overflow:visible;" width="11" height="63" xlink:href="F66591DA.png"  transform="matrix(1 0 0 1 1246 -127)">
				</image>
			</g>
			<g>
				<image style="overflow:visible;" width="22" height="64" xlink:href="F66591D5.png"  transform="matrix(1 0 0 1 1254 -105)">
				</image>
			</g>
			<g>
				<image style="overflow:visible;" width="29" height="68" xlink:href="F66591D6.png"  transform="matrix(1 0 0 1 1254 -114)">
				</image>
			</g>
			<g>
				<image style="overflow:visible;" width="27" height="58" xlink:href="F66591D7.png"  transform="matrix(1 0 0 1 1246 -130)">
				</image>
			</g>
			<g>
				<image style="overflow:visible;" width="18" height="29" xlink:href="F66591C9.png"  transform="matrix(1 0 0 1 1248 -125)">
				</image>
			</g>
			<g>
				<image style="overflow:visible;" width="10" height="17" xlink:href="F66591CB.png"  transform="matrix(1 0 0 1 1245 -127)">
				</image>
			</g>
			<g>
				<image style="overflow:visible;" width="33" height="56" xlink:href="F66591CE.png"  transform="matrix(1 0 0 1 1264 -104)">
				</image>
			</g>
			<g>
				<image style="overflow:visible;" width="54" height="37" xlink:href="F6659232.png"  transform="matrix(1 0 0 1 1147 -117)">
				</image>
			</g>
			<g>
				<image style="overflow:visible;" width="25" height="32" xlink:href="F6659231.png"  transform="matrix(1 0 0 1 1262 -112)">
				</image>
			</g>
			<g>
				<image style="overflow:visible;" width="30" height="32" xlink:href="F665922E.png"  transform="matrix(1 0 0 1 1247 -128)">
				</image>
			</g>
			<g>
				<image style="overflow:visible;" width="48" height="38" xlink:href="F6659251.png"  transform="matrix(1 0 0 1 1176 -109)">
				</image>
			</g>
			<g>
				<image style="overflow:visible;" width="40" height="47" xlink:href="F6659252.png"  transform="matrix(1 0 0 1 1167 -94)">
				</image>
			</g>
			<g>
				<image style="overflow:visible;" width="35" height="46" xlink:href="F6659250.png"  transform="matrix(1 0 0 1 1254 -124)">
				</image>
			</g>
			<g>
				<image style="overflow:visible;" width="35" height="31" xlink:href="F6659256.png"  transform="matrix(1 0 0 1 1251 -129)">
				</image>
			</g>
			<g>
				<image style="overflow:visible;" width="23" height="23" xlink:href="F6659253.png"  transform="matrix(1 0 0 1 1248 -130)">
				</image>
			</g>
			<g>
				<image style="overflow:visible;" width="14" height="16" xlink:href="F665925E.png"  transform="matrix(1 0 0 1 1244 -131)">
				</image>
			</g>
			<g>
				<image style="overflow:visible;" width="14" height="11" xlink:href="F665925F.png"  transform="matrix(1 0 0 1 1249 -131)">
				</image>
			</g>
			<g>
				<image style="overflow:visible;" width="13" height="8" xlink:href="F6659275.png"  transform="matrix(1 0 0 1 1246 -143)">
				</image>
			</g>
			<g>
				<image style="overflow:visible;" width="11" height="12" xlink:href="F6659273.png"  transform="matrix(1 0 0 1 1248 -148)">
				</image>
			</g>
			<g>
				<image style="overflow:visible;" width="7" height="15" xlink:href="F665927D.png"  transform="matrix(1 0 0 1 1239 -153)">
				</image>
			</g>
			<g>
				<image style="overflow:visible;" width="9" height="14" xlink:href="F665927F.png"  transform="matrix(1 0 0 1 1234 -152)">
				</image>
			</g>
			<g>
				<image style="overflow:visible;" width="13" height="12" xlink:href="F665927C.png"  transform="matrix(1 0 0 1 1230 -150)">
				</image>
			</g>
			<g>
				<image style="overflow:visible;" width="30" height="19" xlink:href="F6659274.png"  transform="matrix(1 0 0 1 1213 -156)">
				</image>
			</g>
			<g>
				<image style="overflow:visible;" width="26" height="7" xlink:href="F6659277.png"  transform="matrix(1 0 0 1 1246 -138)">
				</image>
			</g>
			<g>
				<image style="overflow:visible;" width="25" height="10" xlink:href="F665926A.png"  transform="matrix(1 0 0 1 1247 -146)">
				</image>
			</g>
			<g>
				<image style="overflow:visible;" width="22" height="14" xlink:href="F665926B.png"  transform="matrix(1 0 0 1 1242 -151)">
				</image>
			</g>
			<g>
				<image style="overflow:visible;" width="25" height="25" xlink:href="F665926C.png"  transform="matrix(1 0 0 1 1241 -161)">
				</image>
			</g>
			<g>
				<image style="overflow:visible;" width="18" height="23" xlink:href="F6659208.png"  transform="matrix(1 0 0 1 1246 -163)">
				</image>
			</g>
			<g>
				<image style="overflow:visible;" width="15" height="24" xlink:href="F665920B.png"  transform="matrix(1 0 0 1 1241 -163)">
				</image>
			</g>
			<g>
				<image style="overflow:visible;" width="35" height="26" xlink:href="F6659209.png"  transform="matrix(1 0 0 1 1252 -133)">
				</image>
			</g>
			<g>
				<image style="overflow:visible;" width="36" height="48" xlink:href="F665920F.png"  transform="matrix(1 0 0 1 1190 -91)">
				</image>
			</g>
			<g>
				<image style="overflow:visible;" width="47" height="26" xlink:href="F665920A.png"  transform="matrix(1 0 0 1 1282 -117)">
				</image>
			</g>
			<g>
				<image style="overflow:visible;" width="54" height="28" xlink:href="F6659205.png"  transform="matrix(1 0 0 1 1261 -133)">
				</image>
			</g>
			<g>
				<image style="overflow:visible;" width="48" height="21" xlink:href="F6659206.png"  transform="matrix(1 0 0 1 1252 -135)">
				</image>
			</g>
			<g>
				<image style="overflow:visible;" width="55" height="20" xlink:href="F6659207.png"  transform="matrix(1 0 0 1 1282 -124)">
				</image>
			</g>
			<g>
				<image style="overflow:visible;" width="56" height="16" xlink:href="F6659238.png"  transform="matrix(1 0 0 1 1259 -131)">
				</image>
			</g>
			<g>
				<image style="overflow:visible;" width="45" height="12" xlink:href="F665923B.png"  transform="matrix(1 0 0 1 1263 -132)">
				</image>
			</g>
			<g>
				<image style="overflow:visible;" width="36" height="8" xlink:href="F6659227.png"  transform="matrix(1 0 0 1 1257 -135)">
				</image>
			</g>
			<g>
				<image style="overflow:visible;" width="36" height="7" xlink:href="F6659225.png"  transform="matrix(1 0 0 1 1254 -137)">
				</image>
			</g>
			<g>
				<image style="overflow:visible;" width="59" height="10" xlink:href="F6659223.png"  transform="matrix(1 0 0 1 1281 -130)">
				</image>
			</g>
			<g>
				<image style="overflow:visible;" width="65" height="6" xlink:href="F66592DD.png"  transform="matrix(1 0 0 1 1249 -136)">
				</image>
			</g>
			<g>
				<image style="overflow:visible;" width="62" height="43" xlink:href="F66592DF.png"  transform="matrix(1 0 0 1 1158 -191)">
				</image>
			</g>
			<g>
				<image style="overflow:visible;" width="72" height="8" xlink:href="F66592E2.png"  transform="matrix(1 0 0 1 1239 -143)">
				</image>
			</g>
			<g>
				<image style="overflow:visible;" width="56" height="58" xlink:href="F66592E3.png"  transform="matrix(1 0 0 1 1259 -122)">
				</image>
			</g>
			<g>
				<image style="overflow:visible;" width="54" height="24" xlink:href="F66592E5.png"  transform="matrix(1 0 0 1 1193 -155)">
				</image>
			</g>
			<g>
				<image style="overflow:visible;" width="36" height="64" xlink:href="F66592E7.png"  transform="matrix(1 0 0 1 1201 -206)">
				</image>
			</g>
			<g>
				<image style="overflow:visible;" width="71" height="17" xlink:href="F66592E0.png"  transform="matrix(1 0 0 1 1269 -151)">
				</image>
			</g>
			<g>
				<image style="overflow:visible;" width="63" height="17" xlink:href="9CAE011D.png"  transform="matrix(1 0 0 1 1239 -157)">
				</image>
			</g>
			<g>
				<image style="overflow:visible;" width="40" height="15" xlink:href="9CAE011F.png"  transform="matrix(1 0 0 1 1246 -150)">
				</image>
			</g>
			<g>
				<image style="overflow:visible;" width="45" height="20" xlink:href="9CAE011C.png"  transform="matrix(1 0 0 1 1242 -157)">
				</image>
			</g>
			<g>
				<image style="overflow:visible;" width="44" height="23" xlink:href="9CAE011B.png"  transform="matrix(1 0 0 1 1238 -160)">
				</image>
			</g>
			<g>
				<image style="overflow:visible;" width="67" height="21" xlink:href="9CAE0115.png"  transform="matrix(1 0 0 1 1271 -167)">
				</image>
			</g>
			<g>
				<image style="overflow:visible;" width="28" height="68" xlink:href="9CAE0117.png"  transform="matrix(1 0 0 1 1213 -132)">
				</image>
			</g>
			<g>
				<image style="overflow:visible;" width="63" height="32" xlink:href="9CAE0114.png"  transform="matrix(1 0 0 1 1267 -183)">
				</image>
			</g>
			<g>
				<image style="overflow:visible;" width="56" height="39" xlink:href="9CAE01EB.png"  transform="matrix(1 0 0 1 1237 -172)">
				</image>
			</g>
			<g>
				<image style="overflow:visible;" width="38" height="26" xlink:href="9CAE01ED.png"  transform="matrix(1 0 0 1 1239 -164)">
				</image>
			</g>
			<g>
				<image style="overflow:visible;" width="47" height="45" xlink:href="9CAE01EF.png"  transform="matrix(1 0 0 1 1243 -181)">
				</image>
			</g>
			<g>
				<image style="overflow:visible;" width="63" height="46" xlink:href="9CAE01F0.png"  transform="matrix(1 0 0 1 1247 -185)">
				</image>
			</g>
			<g>
				<image style="overflow:visible;" width="55" height="53" xlink:href="9CAE01EE.png"  transform="matrix(1 0 0 1 1263 -207)">
				</image>
			</g>
			<g>
				<image style="overflow:visible;" width="50" height="64" xlink:href="9CAE01D0.png"  transform="matrix(1 0 0 1 1252 -214)">
				</image>
			</g>
			<g>
				<image style="overflow:visible;" width="43" height="59" xlink:href="9CAE01D3.png"  transform="matrix(1 0 0 1 1242 -194)">
				</image>
			</g>
			<g>
				<image style="overflow:visible;" width="28" height="44" xlink:href="9CAE01D1.png"  transform="matrix(1 0 0 1 1240 -180)">
				</image>
			</g>
			<g>
				<image style="overflow:visible;" width="16" height="37" xlink:href="9CAE01D7.png"  transform="matrix(1 0 0 1 1241 -180)">
				</image>
			</g>
			<g>
				<image style="overflow:visible;" width="9" height="43" xlink:href="9CAE01D2.png"  transform="matrix(1 0 0 1 1241 -179)">
				</image>
			</g>
			<g>
				<image style="overflow:visible;" width="65" height="55" xlink:href="9CAE01DD.png"  transform="matrix(1 0 0 1 1159 -204)">
				</image>
			</g>
			<g>
				<image style="overflow:visible;" width="31" height="68" xlink:href="9CAE01DE.png"  transform="matrix(1 0 0 1 1250 -226)">
				</image>
			</g>
			<g>
				<image style="overflow:visible;" width="56" height="41" xlink:href="9CAE01DF.png"  transform="matrix(1 0 0 1 1173 -189)">
				</image>
			</g>
			<g>
				<image style="overflow:visible;" width="16" height="54" xlink:href="9CAE01BB.png"  transform="matrix(1 0 0 1 1241 -193)">
				</image>
			</g>
			<g>
				<image style="overflow:visible;" width="9" height="70" xlink:href="9CAE01BD.png"  transform="matrix(1 0 0 1 1245 -238)">
				</image>
			</g>
			<g>
				<image style="overflow:visible;" width="15" height="74" xlink:href="9CAE01BF.png"  transform="matrix(1 0 0 1 1247 -216)">
				</image>
			</g>
			<g>
				<image style="overflow:visible;" width="7" height="57" xlink:href="9CAE01BA.png"  transform="matrix(1 0 0 1 1239 -211)">
				</image>
			</g>
			<g>
				<image style="overflow:visible;" width="11" height="32" xlink:href="9CAE01B9.png"  transform="matrix(1 0 0 1 1233 -174)">
				</image>
			</g>
			<g>
				<image style="overflow:visible;" width="17" height="33" xlink:href="9CAE01B5.png"  transform="matrix(1 0 0 1 1226 -178)">
				</image>
			</g>
			<g>
				<image style="overflow:visible;" width="24" height="31" xlink:href="9CAE01B7.png"  transform="matrix(1 0 0 1 1217 -174)">
				</image>
			</g>
			<g>
				<image style="overflow:visible;" width="34" height="27" xlink:href="9CAE014A.png"  transform="matrix(1 0 0 1 1207 -171)">
				</image>
			</g>
			<g>
				<image style="overflow:visible;" width="38" height="37" xlink:href="9CAE014B.png"  transform="matrix(1 0 0 1 1198 -187)">
				</image>
			</g>
			<g>
				<image style="overflow:visible;" width="34" height="53" xlink:href="9CAE014D.png"  transform="matrix(1 0 0 1 1244 -180)">
				</image>
			</g>
			<g>
				<image style="overflow:visible;" width="55" height="35" xlink:href="9CAE016A.png"  transform="matrix(1 0 0 1 1185 -177)">
				</image>
			</g>
			<g>
				<image style="overflow:visible;" width="47" height="63" xlink:href="9CAE016D.png"  transform="matrix(1 0 0 1 1248 -195)">
				</image>
			</g>
			<g>
				<image style="overflow:visible;" width="45" height="58" xlink:href="9CAE016E.png"  transform="matrix(1 0 0 1 1195 -202)">
				</image>
			</g>
			<g>
				<image style="overflow:visible;" width="36" height="64" xlink:href="9CAE016C.png"  transform="matrix(1 0 0 1 1198 -223)">
				</image>
			</g>
			<g>
				<image style="overflow:visible;" width="16" height="51" xlink:href="9CAE016B.png"  transform="matrix(1 0 0 1 1224 -201)">
				</image>
			</g>
			<g>
				<image style="overflow:visible;" width="25" height="74" xlink:href="9CAE0165.png"  transform="matrix(1 0 0 1 1216 -218)">
				</image>
			</g>
			<g>
				<image style="overflow:visible;" width="17" height="78" xlink:href="9CAE0166.png"  transform="matrix(1 0 0 1 1223 -233)">
				</image>
			</g>
			<g>
				<image style="overflow:visible;" width="16" height="86" xlink:href="9CAE0164.png"  transform="matrix(1 0 0 1 1233 -244)">
				</image>
			</g>
			<g>
				<image style="overflow:visible;" width="56" height="69" xlink:href="9CAE017A.png"  transform="matrix(1 0 0 1 1170 -220)">
				</image>
			</g>
			<g>
				<image style="overflow:visible;" width="51" height="57" xlink:href="9CAE017D.png"  transform="matrix(1 0 0 1 1250 -186)">
				</image>
			</g>
			<g>
				<image style="overflow:visible;" width="44" height="66" xlink:href="9CAE0281.png"  transform="matrix(1 0 0 1 1180 -232)">
				</image>
			</g>
			<g>
				<image style="overflow:visible;" width="8" height="11" xlink:href="9CAE0283.png"  transform="matrix(1 0 0 1 1241 -136)">
				</image>
			</g>
		</g>
	</g>
	<polygon style="clip-path:url(#SVGID_00000160186139476070882840000010701123539280839089_);fill:#30545C;" points="905.1,248.8 
		903.1,415.9 924.5,424.4 926.7,253.6 	"/>
	<polygon style="clip-path:url(#SVGID_00000160186139476070882840000010701123539280839089_);fill:#30545C;" points="1017.2,277.5 
		1017.2,464.3 1034.8,470.7 1034.8,285.5 	"/>
	
		<line style="clip-path:url(#SVGID_00000160186139476070882840000010701123539280839089_);fill:none;" x1="1124.8" y1="309.1" x2="1122.5" y2="509.2"/>
	<polygon style="clip-path:url(#SVGID_00000160186139476070882840000010701123539280839089_);fill:#30545C;" points="715.6,250.3 
		715.6,416.3 744.3,417.9 737.7,248.7 	"/>
	<polygon style="clip-path:url(#SVGID_00000160186139476070882840000010701123539280839089_);fill:#30545C;" points="532.7,248.1 
		532.7,415.8 560.1,414.2 560.1,248.1 	"/>
	<polygon style="clip-path:url(#SVGID_00000160186139476070882840000010701123539280839089_);fill:#30545C;" points="367.3,249.1 
		367.3,415.1 391.6,416.7 389.3,247.5 	"/>
	<polygon style="clip-path:url(#SVGID_00000160186139476070882840000010701123539280839089_);fill:#30545C;" points="211.8,248.8 
		210.1,420.8 229.3,419.2 229.3,248.8 	"/>
	<polygon style="clip-path:url(#SVGID_00000160186139476070882840000010701123539280839089_);fill:#30545C;" points="97.3,271.5 
		112.6,458.1 92.2,466.4 79.4,276.4 	"/>
	<polygon style="clip-path:url(#SVGID_00000160186139476070882840000010701123539280839089_);fill:#47B34A;" points="2.2,266.7 
		1.4,296.7 48.3,258.4 	"/>
	<polygon style="clip-path:url(#SVGID_00000160186139476070882840000010701123539280839089_);fill:#5FBC56;" points="48.3,258.4 
		95.4,272.7 1.3,296.7 	"/>
	<polygon style="clip-path:url(#SVGID_00000160186139476070882840000010701123539280839089_);fill:#51B64F;" points="48.3,258.4 
		142.5,241.3 94.6,272.7 	"/>
	<polygon style="clip-path:url(#SVGID_00000160186139476070882840000010701123539280839089_);fill:#9CD275;" points="94.6,272.7 
		189.5,253 142.5,241.3 	"/>
	<polygon style="clip-path:url(#SVGID_00000160186139476070882840000010701123539280839089_);fill:#5CBA54;" points="189.5,253 
		211.8,228.6 142.5,241.3 	"/>
	<polygon style="clip-path:url(#SVGID_00000160186139476070882840000010701123539280839089_);fill:#5FBC56;" points="189.5,253 
		211.8,248.8 264.6,248.8 211.8,228.6 	"/>
	<polygon style="clip-path:url(#SVGID_00000160186139476070882840000010701123539280839089_);fill:#65BE59;" points="264.6,248.8 
		307.2,229.6 211.8,228.6 	"/>
	<polygon style="clip-path:url(#SVGID_00000160186139476070882840000010701123539280839089_);fill:#69BF5B;" points="264.6,248.8 
		352.9,249.8 307.2,229.6 	"/>
	<polygon style="clip-path:url(#SVGID_00000160186139476070882840000010701123539280839089_);fill:#6EC15E;" points="352.9,249.8 
		404.4,229.6 307.2,229.6 	"/>
	<polygon style="clip-path:url(#SVGID_00000160186139476070882840000010701123539280839089_);fill:#73C360;" points="352.9,249.8 
		454.4,248.8 404.4,229.6 	"/>
	<polygon style="clip-path:url(#SVGID_00000160186139476070882840000010701123539280839089_);fill:#78C563;" points="454.4,248.8 
		508.8,229.6 404.4,229.6 	"/>
	<polygon style="clip-path:url(#SVGID_00000160186139476070882840000010701123539280839089_);fill:#7EC766;" points="454.4,248.8 
		553,247.7 508.8,229.6 	"/>
	<polygon style="clip-path:url(#SVGID_00000160186139476070882840000010701123539280839089_);fill:#82C968;" points="553,247.7 
		625.1,228.6 508.8,229.6 	"/>
	<polygon style="clip-path:url(#SVGID_00000160186139476070882840000010701123539280839089_);fill:#8DCD6E;" points="553,247.7 
		673.6,249.8 625.1,228.6 	"/>
	<polygon style="clip-path:url(#SVGID_00000160186139476070882840000010701123539280839089_);fill:#8DCD6E;" points="673.6,249.8 
		732.5,230.7 625.1,228.6 	"/>
	<polygon style="clip-path:url(#SVGID_00000160186139476070882840000010701123539280839089_);fill:#78C563;" points="673.6,249.8 
		781,248.8 732.5,230.7 	"/>
	<polygon style="clip-path:url(#SVGID_00000160186139476070882840000010701123539280839089_);fill:#96D072;" points="781,248.8 
		828.1,229.6 732.5,230.7 	"/>
	<polygon style="clip-path:url(#SVGID_00000160186139476070882840000010701123539280839089_);fill:#9CD275;" points="781,248.8 
		888.4,248.8 828.1,229.6 	"/>
	<polygon style="clip-path:url(#SVGID_00000160186139476070882840000010701123539280839089_);fill:#8DCD6E;" points="888.4,248.8 
		905.1,248.8 909.5,228.6 828.1,229.6 	"/>
	<polygon style="clip-path:url(#SVGID_00000160186139476070882840000010701123539280839089_);fill:#A1D477;" points="905.1,248.8 
		964.9,266.9 909.5,228.6 	"/>
	<polygon style="clip-path:url(#SVGID_00000160186139476070882840000010701123539280839089_);fill:#A4D579;" points="964.9,266.9 
		1001.7,252 909.5,228.6 	"/>
	<polygon style="clip-path:url(#SVGID_00000160186139476070882840000010701123539280839089_);fill:#A6D67A;" points="964.9,266.9 
		1037,287.1 1001.7,252 	"/>
	<polygon style="clip-path:url(#SVGID_00000160186139476070882840000010701123539280839089_);fill:#A9D77B;" points="1037,287.1 
		1101.8,303.1 1001.7,252 	"/>
	<polygon style="clip-path:url(#SVGID_00000160186139476070882840000010701123539280839089_);fill:#48B34A;" points="2.7,561.7 
		54.2,482.9 1.2,508.5 	"/>
	<polygon style="clip-path:url(#SVGID_00000160186139476070882840000010701123539280839089_);fill:#5DBB55;" points="54.2,482.9 
		104.2,505.3 2.7,561.7 	"/>
	<polygon style="clip-path:url(#SVGID_00000160186139476070882840000010701123539280839089_);fill:#51B74F;" points="104.2,505.3 
		132.2,447.8 54.2,482.9 	"/>
	<polygon style="clip-path:url(#SVGID_00000160186139476070882840000010701123539280839089_);fill:#6BC05C;" points="104.2,505.3 
		173.3,464.8 132.2,447.8 	"/>
	<polygon style="clip-path:url(#SVGID_00000160186139476070882840000010701123539280839089_);fill:#5ABA53;" points="173.3,464.8 
		206.5,415.4 132.2,447.8 	"/>
	<polygon style="clip-path:url(#SVGID_00000160186139476070882840000010701123539280839089_);fill:#5DBB55;" points="173.3,464.8 
		217.2,443 206.2,415 	"/>
	<polygon style="clip-path:url(#SVGID_00000160186139476070882840000010701123539280839089_);fill:#6BC05C;" points="393.1,443.4 
		444.1,442.5 405.3,413.2 	"/>
	<polygon style="clip-path:url(#SVGID_00000160186139476070882840000010701123539280839089_);fill:#77C462;" points="444.1,442.5 
		472,413.7 405.1,413.2 	"/>
	<polygon style="clip-path:url(#SVGID_00000160186139476070882840000010701123539280839089_);fill:#7AC664;" points="444.1,442.5 
		510.3,442.5 472,413.7 	"/>
	<polygon style="clip-path:url(#SVGID_00000160186139476070882840000010701123539280839089_);fill:#7AC664;" points="510.3,442.5 
		554.4,413.7 472,413.7 	"/>
	<polygon style="clip-path:url(#SVGID_00000160186139476070882840000010701123539280839089_);fill:#84C969;" points="510.3,442.5 
		596,442.2 554.4,413.7 	"/>
	<polygon style="clip-path:url(#SVGID_00000160186139476070882840000010701123539280839089_);fill:#77C462;" points="595.4,441.9 
		650.1,413.7 554.4,413.7 	"/>
	<polygon style="clip-path:url(#SVGID_00000160186139476070882840000010701123539280839089_);fill:#8ACC6C;" points="650.1,413.7 
		679.5,441.4 594.7,442.1 	"/>
	<polygon style="clip-path:url(#SVGID_00000160186139476070882840000010701123539280839089_);fill:#77C462;" points="679.5,441.4 
		756,415.9 650.1,413.7 	"/>
	<polygon style="clip-path:url(#SVGID_00000160186139476070882840000010701123539280839089_);fill:#91CE6F;" points="756,415.9 
		790.4,440.9 679.5,441.4 	"/>
	<polygon style="clip-path:url(#SVGID_00000160186139476070882840000010701123539280839089_);fill:#93CF70;" points="789.9,440.3 
		860.5,415.9 756,415.9 	"/>
	<polygon style="clip-path:url(#SVGID_00000160186139476070882840000010701123539280839089_);fill:#8ACC6C;" points="860.5,415.9 
		903.1,440.3 789.5,440.6 	"/>
	<polygon style="clip-path:url(#SVGID_00000160186139476070882840000010701123539280839089_);fill:#9FD376;" points="903.1,440.3 
		903.1,415.9 860.5,415.9 	"/>
	<polygon style="clip-path:url(#SVGID_00000160186139476070882840000010701123539280839089_);fill:#ACD87D;" points="1128,560.8 
		1084.1,491.4 1128.5,510.1 	"/>
	<polygon style="clip-path:url(#SVGID_00000160186139476070882840000010701123539280839089_);fill:#A0D477;" points="903.1,415.9 
		951.7,465.9 903.1,440.3 	"/>
	<polygon style="clip-path:url(#SVGID_00000160186139476070882840000010701123539280839089_);fill:#A4D579;" points="951.7,465.9 
		1001.7,457.4 903.1,415.9 	"/>
	<polygon style="clip-path:url(#SVGID_00000160186139476070882840000010701123539280839089_);fill:#A4D579;" points="1001.7,457.4 
		1019.4,502.1 951.7,465.9 	"/>
	<polygon style="clip-path:url(#SVGID_00000160186139476070882840000010701123539280839089_);fill:#A8D67B;" points="1019.4,502.1 
		1084.1,491.4 1001.7,457.4 	"/>
	<polygon style="clip-path:url(#SVGID_00000160186139476070882840000010701123539280839089_);fill:#A0D477;" points="1019.4,502.1 
		1128.8,561.1 1084.1,491.4 	"/>
	<polygon style="clip-path:url(#SVGID_00000160186139476070882840000010701123539280839089_);fill:#E5E5E5;" points="5.6,558.5 
		136.6,637.2 2.7,638.3 	"/>
	<polygon style="clip-path:url(#SVGID_00000160186139476070882840000010701123539280839089_);fill:#E1E1E1;" points="136.6,637.2 
		105.7,503.1 5.6,558.5 	"/>
	<polygon style="clip-path:url(#SVGID_00000160186139476070882840000010701123539280839089_);fill:#E1E1E1;" points="136.6,637.2 
		283.7,637.2 105.7,503.1 	"/>
	<polygon style="clip-path:url(#SVGID_00000160186139476070882840000010701123539280839089_);fill:#DDDDDD;" points="283.7,637.2 
		214.5,443.5 105.7,503.1 	"/>
	<polygon style="clip-path:url(#SVGID_00000160186139476070882840000010701123539280839089_);fill:#D9D9D9;" points="214.5,443.5 
		401.4,443.5 261.6,570.2 	"/>
	<polygon style="clip-path:url(#SVGID_00000160186139476070882840000010701123539280839089_);fill:#D5D5D5;" points="401.4,443.5 
		430.8,565.9 261.6,570.2 	"/>
	<polygon style="clip-path:url(#SVGID_00000160186139476070882840000010701123539280839089_);fill:#D7D7D7;" points="430.8,565.9 
		283.7,637.2 261.6,570.2 	"/>
	<polygon style="clip-path:url(#SVGID_00000160186139476070882840000010701123539280839089_);fill:#D7D7D7;" points="430.8,565.9 
		505.9,637.2 283.7,637.2 	"/>
	<polygon style="clip-path:url(#SVGID_00000160186139476070882840000010701123539280839089_);fill:#D0D0D0;" points="430.8,565.9 
		535.3,442.5 401.4,443.5 	"/>
	<polygon style="clip-path:url(#SVGID_00000160186139476070882840000010701123539280839089_);fill:#CFCFCF;" points="511.8,638.3 
		535.3,442.5 430.8,565.9 	"/>
	<polygon style="clip-path:url(#SVGID_00000160186139476070882840000010701123539280839089_);fill:#C4CCD0;" points="511.8,638.3 
		672.1,562.7 526.5,517 	"/>
	<polygon style="clip-path:url(#SVGID_00000160186139476070882840000010701123539280839089_);fill:#CDCDCD;" points="672.1,562.7 
		714.8,638.3 511.8,638.3 	"/>
	<polygon style="clip-path:url(#SVGID_00000160186139476070882840000010701123539280839089_);fill:#CDCDCD;" points="672.1,562.7 
		535.3,442.5 526.5,517 	"/>
	<polygon style="clip-path:url(#SVGID_00000160186139476070882840000010701123539280839089_);fill:#D5D5D5;" points="672.1,562.7 
		725.1,441.4 535.3,442.5 	"/>
	<polygon style="clip-path:url(#SVGID_00000160186139476070882840000010701123539280839089_);fill:#D0D0D0;" points="714.8,638.3 
		782.5,550 672.1,562.7 	"/>
	<polygon style="clip-path:url(#SVGID_00000160186139476070882840000010701123539280839089_);fill:#D9D9D9;" points="782.5,550 
		725.1,441.4 672.1,562.7 	"/>
	<polygon style="clip-path:url(#SVGID_00000160186139476070882840000010701123539280839089_);fill:#CACCCD;" points="782.5,550 
		842.8,440.3 725.1,441.4 	"/>
	<polygon style="clip-path:url(#SVGID_00000160186139476070882840000010701123539280839089_);fill:#C4CCD0;" points="782.5,550 
		903.1,440.3 842.8,440.3 	"/>
	<polygon style="clip-path:url(#SVGID_00000160186139476070882840000010701123539280839089_);fill:#D0D0D0;" points="783.7,548.7 
		1019.1,501.9 904.4,439.1 	"/>
	<polygon style="clip-path:url(#SVGID_00000160186139476070882840000010701123539280839089_);fill:#C4CCD0;" points="1017.9,503.1 
		867.8,637.2 782.5,550 	"/>
	<polygon style="clip-path:url(#SVGID_00000160186139476070882840000010701123539280839089_);fill:#D0D0D0;" points="1018.7,501.7 
		1128.3,561 1128.3,639.4 867.8,637.2 	"/>
	<g style="clip-path:url(#SVGID_00000160186139476070882840000010701123539280839089_);">
		<polygon class="st48" points="1101.8,303.1 1128.5,281.8 1001.7,252 		"/>
		<polygon class="st49" points="1101.8,303.1 1128.5,311.7 1128.3,281.6 		"/>
		<polygon class="st49" points="1128.3,281.6 1197.1,294.5 1197.1,335 1124.8,309.1 		"/>
	</g>
	<polygon style="clip-path:url(#SVGID_00000160186139476070882840000010701123539280839089_);fill:#ACD87D;" points="1128.5,510.1 
		1198.1,537.5 1126.7,537.5 	"/>
	<polygon style="clip-path:url(#SVGID_00000160186139476070882840000010701123539280839089_);fill:#D5D5D5;" points="862.8,635.2 
		714.8,638.3 783.1,543.9 	"/>
	
		<rect x="-2.5" y="-2.5" style="clip-path:url(#SVGID_00000160186139476070882840000010701123539280839089_);fill:none;" width="1200.5" height="541"/>
	<path style="clip-path:url(#SVGID_00000160186139476070882840000010701123539280839089_);fill:#6A9B32;" d="M405.1,413.2"/>
	<polygon style="clip-path:url(#SVGID_00000160186139476070882840000010701123539280839089_);fill:#77C462;" points="202.9,416 
		405.1,413.2 393.1,443.4 214.5,443.5 	"/>
</g>
</svg>
