<?xml version="1.0" encoding="UTF-8"?>
<svg id="Capa_1" data-name="Capa 1" xmlns="http://www.w3.org/2000/svg" viewBox="0 0 91.45 57.23">
  <defs>
    <style>
      .cls-1 {
        opacity: .35;
      }

      .cls-2 {
        fill: #1c5872;
        stroke-width: 0px;
      }
    </style>
  </defs>
  <g class="cls-1">
    <g>
      <path class="cls-2" d="M45.6,11.62c2.24,0,3.85.21,4.98.61-1.49.69-2.53,2.21-2.53,3.97,0,1.73,1,3.22,2.45,3.93-1.16.43-2.75.65-4.9.65-4.16,0-7.54-3.81-7.54-4.58,0-.77,3.37-4.58,7.54-4.58Z"/>
      <path class="cls-2" d="M47.79,17c.43.43,1.08.88,1.96.88,1.72,0,2.58-.55,2.58-1.68s-.86-1.68-2.58-1.68c-.78,0-1.49.47-1.96.91"/>
      <path class="cls-2" d="M43.33,20.4c.01.13.62.49,1.82.94.72.27,2.08.64,2.36.11.08-.14-.17-.41-.62-.7"/>
      <g>
        <path class="cls-2" d="M50.06,12.07c.19.05.36.1.53.16-.19.09-.36.19-.54.3.01-.16.01-.31,0-.46Z"/>
        <path class="cls-2" d="M47.9,14.48c.6-1.01.71-1.95.64-2.7.57.07,1.07.17,1.52.29,0,.15,0,.3,0,.46-1.2.78-2,2.13-2,3.67,0,1.73,1,3.22,2.45,3.93-.29.11-.6.2-.94.28-.89-1.01-2.89-3.87-1.66-5.93Z"/>
        <path class="cls-2" d="M45.6,11.62c1.14,0,2.11.05,2.94.16.08.75-.03,1.69-.64,2.7-1.23,2.06.77,4.92,1.66,5.93-1.04.24-2.34.37-3.96.37-4.16,0-7.54-3.81-7.54-4.58,0-.77,3.37-4.58,7.54-4.58Z"/>
      </g>
      <g>
        <path class="cls-2" d="M50.06,12.07c.19.05.36.1.53.16-.19.09-.36.19-.54.3.01-.16.01-.31,0-.46Z"/>
        <path class="cls-2" d="M47.9,14.48c.6-1.01.71-1.95.64-2.7.57.07,1.07.17,1.52.29,0,.15,0,.3,0,.46-1.2.78-2,2.13-2,3.67,0,1.73,1,3.22,2.45,3.93-.29.11-.6.2-.94.28-.89-1.01-2.89-3.87-1.66-5.93Z"/>
        <path class="cls-2" d="M45.39,11.63c.24.83.33,2.07-.49,3.45-1.14,1.91.51,4.52,1.46,5.69-.24,0-.49.01-.75.01-4.16,0-7.54-3.81-7.54-4.58,0-.76,3.26-4.44,7.32-4.57Z"/>
        <path class="cls-2" d="M46.4,15.08c.82-1.37.73-2.6.49-3.43.6.03,1.15.07,1.64.13.08.75-.03,1.69-.64,2.7-1.23,2.06.77,4.92,1.66,5.93-.52.12-1.11.21-1.77.28-.96-1.21-2.51-3.73-1.39-5.6Z"/>
        <path class="cls-2" d="M44.9,15.08c.82-1.38.73-2.62.49-3.45.07,0,.14,0,.21,0,.46,0,.89,0,1.29.03.24.83.32,2.06-.49,3.43-1.11,1.87.43,4.4,1.39,5.6-.44.04-.92.07-1.44.08-.95-1.17-2.6-3.77-1.46-5.69Z"/>
      </g>
      <g>
        <g>
          <path class="cls-2" d="M38.07,16.2c0,.5,1.46,2.33,3.65,3.52-.52-1.15-.79-2.48-.13-3.57.88-1.47.72-2.79.44-3.62-2.36,1.17-3.96,3.14-3.96,3.67Z"/>
          <g>
            <path class="cls-2" d="M47.9,14.48c.6-1.01.71-1.95.64-2.7.57.07,1.07.17,1.52.29.19.05.36.1.53.16-.19.09-.37.18-.54.3-1.2.78-2,2.13-2,3.67,0,1.73,1,3.22,2.45,3.93-.29.11-.6.2-.94.28-.89-1.01-2.89-3.87-1.66-5.93Z"/>
            <path class="cls-2" d="M45.39,11.63c.07,0,.14,0,.21,0,.46,0,.89,0,1.29.03.24.83.32,2.06-.49,3.43-1.11,1.87.43,4.4,1.39,5.6-.44.04-.92.07-1.44.08-.95-1.17-2.6-3.77-1.46-5.68.82-1.38.73-2.62.49-3.45Z"/>
            <path class="cls-2" d="M41.59,16.14c.88-1.47.72-2.79.44-3.62.41-.2.83-.38,1.28-.52.35.7.88,2.29-.22,4.14-.81,1.36-.22,3.06.54,4.35-.68-.19-1.32-.46-1.91-.78-.52-1.15-.79-2.48-.13-3.57Z"/>
          </g>
          <path class="cls-2" d="M46.36,20.76c-.95-1.17-2.6-3.77-1.46-5.68.82-1.38.73-2.62.49-3.45-.72.02-1.42.16-2.08.37.35.7.88,2.29-.22,4.14-.81,1.36-.22,3.06.54,4.35.63.18,1.29.28,1.98.28.26,0,.51,0,.75-.01Z"/>
          <path class="cls-2" d="M49.56,20.4c-.89-1.01-2.89-3.87-1.66-5.93.6-1.01.71-1.95.64-2.7-.5-.06-1.04-.11-1.64-.13.24.83.32,2.06-.49,3.43-1.11,1.87.43,4.4,1.39,5.6.66-.06,1.25-.15,1.77-.28Z"/>
        </g>
        <g>
          <path class="cls-2" d="M50.06,12.07c.19.05.36.1.53.16-.19.09-.37.18-.54.3"/>
          <path class="cls-2" d="M48.54,11.78c.57.07,1.07.17,1.52.29,0,.15,0,.3,0,.46-1.2.78-2,2.13-2,3.67,0,1.73,1,3.22,2.45,3.93-.29.11-.6.2-.94.28"/>
          <path class="cls-2" d="M46.36,20.76c-.24,0-.49.01-.75.01-.69,0-1.35-.1-1.98-.28"/>
          <path class="cls-2" d="M43.31,12c.66-.21,1.36-.35,2.08-.37"/>
          <path class="cls-2" d="M41.72,19.71c-2.19-1.19-3.65-3.01-3.65-3.52,0-.53,1.6-2.5,3.96-3.67"/>
          <path class="cls-2" d="M41.72,19.71c-.52-1.15-.79-2.48-.13-3.57.88-1.47.72-2.79.44-3.62.41-.2.83-.38,1.28-.52.35.7.88,2.29-.22,4.14-.81,1.36-.22,3.06.54,4.35-.68-.19-1.32-.46-1.91-.78Z"/>
          <path class="cls-2" d="M46.9,11.65c.6.02,1.15.07,1.64.13.08.75-.04,1.69-.64,2.7-1.23,2.06.77,4.92,1.66,5.93-.52.12-1.11.22-1.77.28"/>
          <path class="cls-2" d="M46.36,20.76c-.95-1.17-2.6-3.77-1.46-5.68.82-1.38.73-2.62.49-3.45.07,0,.14,0,.21,0,.46,0,.89,0,1.29.03.24.83.32,2.06-.49,3.43-1.11,1.87.43,4.4,1.39,5.6-.44.04-.92.07-1.44.08Z"/>
        </g>
      </g>
      <path class="cls-2" d="M50.79,14.6c1.02.2,1.53.72,1.53,1.59,0,.87-.51,1.39-1.53,1.59,1.48-1.44.03-3.15,0-3.18Z"/>
      <path class="cls-2" d="M39.37,15.48c0,.53.43.97.96.97s.96-.43.96-.97-.43-.97-.96-.97-.96.43-.96.97Z"/>
      <path class="cls-2" d="M39.74,15.48c0,.33.27.6.6.6s.6-.27.6-.6c0-.33-.27-.6-.6-.6s-.6.27-.6.6Z"/>
    </g>
    <g>
      <path class="cls-2" d="M63.49,0c2.79,0,4.79.26,6.21.76-1.86.86-3.16,2.75-3.16,4.94,0,2.15,1.24,4.01,3.05,4.9-1.44.54-3.43.81-6.11.81-5.19,0-9.39-4.75-9.39-5.7,0-.97,4.2-5.7,9.39-5.7Z"/>
      <path class="cls-2" d="M66.21,6.7c.54.54,1.35,1.1,2.44,1.1,2.14,0,3.21-.69,3.21-2.09,0-1.4-1.07-2.09-3.21-2.09-.97,0-1.85.58-2.44,1.14"/>
      <path class="cls-2" d="M60.65,10.95c.02.16.77.61,2.26,1.17.9.34,2.59.79,2.94.13.1-.18-.22-.51-.77-.88"/>
      <g>
        <path class="cls-2" d="M69.04.56c.23.06.45.13.66.2-.23.11-.45.23-.67.37.02-.2.02-.39.01-.57Z"/>
        <path class="cls-2" d="M66.36,3.56c.75-1.26.89-2.42.79-3.36.71.09,1.34.21,1.89.36,0,.18,0,.37-.01.57-1.5.97-2.49,2.66-2.49,4.58,0,2.15,1.24,4.01,3.05,4.9-.36.13-.74.25-1.17.35-1.1-1.26-3.6-4.82-2.07-7.39Z"/>
        <path class="cls-2" d="M63.49,0c1.41,0,2.63.07,3.66.2.1.94-.04,2.11-.79,3.36-1.53,2.57.96,6.13,2.07,7.39-1.29.3-2.92.46-4.94.46-5.19,0-9.39-4.75-9.39-5.7,0-.97,4.2-5.7,9.39-5.7Z"/>
      </g>
      <g>
        <path class="cls-2" d="M69.04.56c.23.06.45.13.66.2-.23.11-.45.23-.67.37.02-.2.02-.39.01-.57Z"/>
        <path class="cls-2" d="M66.36,3.56c.75-1.26.89-2.42.79-3.36.71.09,1.34.21,1.89.36,0,.18,0,.37-.01.57-1.5.97-2.49,2.66-2.49,4.58,0,2.15,1.24,4.01,3.05,4.9-.36.13-.74.25-1.17.35-1.1-1.26-3.6-4.82-2.07-7.39Z"/>
        <path class="cls-2" d="M63.22,0c.3,1.04.42,2.58-.61,4.3-1.42,2.39.63,5.63,1.81,7.09-.3,0-.62.01-.94.01-5.19,0-9.39-4.75-9.39-5.7,0-.95,4.06-5.54,9.13-5.7Z"/>
        <path class="cls-2" d="M64.49,4.31c1.02-1.71.91-3.24.62-4.28.75.03,1.43.09,2.05.16.1.94-.04,2.11-.79,3.36-1.53,2.57.96,6.13,2.07,7.39-.65.15-1.38.27-2.21.34-1.19-1.5-3.12-4.65-1.73-6.98Z"/>
        <path class="cls-2" d="M62.61,4.31c1.03-1.72.91-3.27.61-4.3.09,0,.18,0,.27,0,.57,0,1.11.01,1.61.03.3,1.04.4,2.57-.62,4.28-1.39,2.33.54,5.48,1.73,6.98-.55.05-1.15.08-1.79.1-1.18-1.46-3.24-4.7-1.81-7.09Z"/>
      </g>
      <g>
        <g>
          <path class="cls-2" d="M54.1,5.7c0,.63,1.82,2.9,4.55,4.38-.65-1.43-.98-3.08-.16-4.45,1.1-1.84.89-3.48.55-4.51-2.94,1.46-4.93,3.91-4.93,4.58Z"/>
          <g>
            <path class="cls-2" d="M66.36,3.56c.75-1.26.89-2.43.79-3.37.71.09,1.34.21,1.89.36.23.06.45.13.66.2-.23.11-.46.23-.67.37-1.5.97-2.49,2.66-2.49,4.58,0,2.15,1.25,4.01,3.05,4.9-.36.13-.75.25-1.17.35-1.11-1.26-3.6-4.82-2.07-7.39Z"/>
            <path class="cls-2" d="M63.22,0c.09,0,.18,0,.26,0,.57,0,1.11.01,1.61.03.3,1.03.4,2.57-.62,4.28-1.39,2.33.54,5.48,1.73,6.98-.55.05-1.15.08-1.79.1-1.19-1.46-3.24-4.7-1.81-7.08,1.02-1.72.91-3.27.61-4.3Z"/>
            <path class="cls-2" d="M58.48,5.63c1.1-1.84.89-3.48.55-4.51.51-.25,1.04-.47,1.6-.65.43.87,1.1,2.86-.27,5.16-1.01,1.69-.27,3.81.67,5.43-.84-.24-1.64-.57-2.38-.97-.65-1.43-.98-3.08-.16-4.45Z"/>
          </g>
          <path class="cls-2" d="M64.43,11.39c-1.19-1.46-3.24-4.7-1.81-7.08,1.02-1.72.91-3.27.61-4.3-.9.03-1.77.2-2.6.46.43.87,1.1,2.86-.27,5.16-1.01,1.69-.27,3.81.67,5.43.79.22,1.61.35,2.46.35.32,0,.64,0,.94-.01Z"/>
          <path class="cls-2" d="M68.42,10.95c-1.11-1.26-3.6-4.82-2.07-7.39.75-1.26.89-2.43.79-3.37-.62-.08-1.3-.13-2.05-.16.3,1.03.4,2.57-.62,4.28-1.39,2.33.54,5.48,1.73,6.98.82-.08,1.56-.19,2.21-.35Z"/>
        </g>
        <g>
          <path class="cls-2" d="M69.04.56c.23.06.45.13.66.2-.23.11-.46.23-.67.37"/>
          <path class="cls-2" d="M67.15.2c.71.09,1.34.21,1.89.36,0,.18,0,.37-.01.57-1.5.97-2.49,2.66-2.49,4.58,0,2.15,1.25,4.01,3.05,4.9-.36.13-.75.25-1.17.35"/>
          <path class="cls-2" d="M64.43,11.39c-.3,0-.62.01-.94.01-.85,0-1.68-.13-2.46-.35"/>
          <path class="cls-2" d="M60.63.47c.82-.27,1.69-.44,2.6-.46"/>
          <path class="cls-2" d="M58.65,10.09c-2.73-1.48-4.55-3.75-4.55-4.38,0-.66,1.99-3.12,4.93-4.58"/>
          <path class="cls-2" d="M58.65,10.09c-.65-1.43-.98-3.08-.16-4.45,1.1-1.84.89-3.48.55-4.51.51-.25,1.04-.47,1.6-.65.43.87,1.1,2.86-.27,5.16-1.01,1.69-.27,3.81.67,5.43-.84-.24-1.64-.57-2.38-.97Z"/>
          <path class="cls-2" d="M65.1.03c.75.03,1.43.08,2.05.16.1.94-.04,2.11-.79,3.37-1.53,2.57.96,6.13,2.07,7.39-.65.15-1.38.27-2.21.35"/>
          <path class="cls-2" d="M64.43,11.39c-1.19-1.46-3.24-4.7-1.81-7.08,1.02-1.72.91-3.27.61-4.3.09,0,.18,0,.26,0,.57,0,1.11.01,1.61.03.3,1.03.4,2.57-.62,4.28-1.39,2.33.54,5.48,1.73,6.98-.55.05-1.15.08-1.79.1Z"/>
        </g>
      </g>
      <path class="cls-2" d="M69.95,3.72c1.27.25,1.91.9,1.91,1.98,0,1.08-.64,1.74-1.91,1.98,1.84-1.8.04-3.92,0-3.97Z"/>
      <path class="cls-2" d="M55.72,4.81c0,.66.54,1.2,1.2,1.2s1.2-.54,1.2-1.2-.54-1.2-1.2-1.2-1.2.54-1.2,1.2Z"/>
      <path class="cls-2" d="M56.18,4.81c0,.41.33.75.74.75s.74-.33.74-.75c0-.41-.33-.75-.74-.75s-.74.33-.74.75Z"/>
    </g>
    <g>
      <path class="cls-2" d="M22.7,40.6c1.77,0,3.03.16,3.92.48-1.18.55-1.99,1.74-1.99,3.13s.79,2.53,1.93,3.09c-.91.34-2.17.51-3.86.51-3.28,0-5.94-3-5.94-3.6s2.66-3.6,5.94-3.6Z"/>
      <path class="cls-2" d="M24.42,44.84c.34.34.85.69,1.54.69,1.35,0,2.03-.44,2.03-1.32,0-.89-.68-1.32-2.03-1.32-.62,0-1.17.37-1.54.72"/>
      <path class="cls-2" d="M20.9,47.52c.01.1.49.38,1.43.74.57.21,1.64.5,1.86.08.06-.11-.14-.32-.49-.56"/>
      <g>
        <path class="cls-2" d="M26.21,40.95c.15.04.28.08.41.13-.15.07-.29.15-.42.23,0-.12.01-.24,0-.36Z"/>
        <path class="cls-2" d="M24.51,42.85c.47-.8.56-1.53.5-2.13.45.06.85.13,1.2.23,0,.12,0,.24,0,.36-.95.61-1.57,1.68-1.57,2.89,0,1.36.79,2.53,1.93,3.09-.23.08-.47.16-.74.22-.7-.8-2.27-3.05-1.31-4.67Z"/>
        <path class="cls-2" d="M22.7,40.6c.89,0,1.66.04,2.31.12.06.59-.03,1.33-.5,2.13-.97,1.62.61,3.87,1.31,4.67-.82.19-1.85.29-3.12.29-3.28,0-5.94-3-5.94-3.6s2.66-3.6,5.94-3.6Z"/>
      </g>
      <g>
        <path class="cls-2" d="M26.21,40.95c.15.04.28.08.41.13-.15.07-.29.15-.42.23,0-.12.01-.24,0-.36Z"/>
        <path class="cls-2" d="M24.51,42.85c.47-.8.56-1.53.5-2.13.45.06.85.13,1.2.23,0,.12,0,.24,0,.36-.95.61-1.57,1.68-1.57,2.89,0,1.36.79,2.53,1.93,3.09-.23.08-.47.16-.74.22-.7-.8-2.27-3.05-1.31-4.67Z"/>
        <path class="cls-2" d="M22.53,40.6c.19.65.26,1.63-.38,2.72-.9,1.51.4,3.56,1.15,4.48-.19,0-.39,0-.59,0-3.28,0-5.94-3-5.94-3.6s2.57-3.5,5.77-3.6Z"/>
        <path class="cls-2" d="M23.33,43.32c.64-1.08.58-2.05.39-2.7.47.02.9.05,1.29.1.06.59-.03,1.33-.5,2.13-.97,1.62.61,3.87,1.31,4.67-.41.1-.87.17-1.39.22-.75-.95-1.97-2.94-1.1-4.41Z"/>
        <path class="cls-2" d="M22.15,43.32c.65-1.09.58-2.06.38-2.72.06,0,.11,0,.17,0,.36,0,.7,0,1.02.02.19.65.25,1.62-.39,2.7-.88,1.47.34,3.46,1.1,4.41-.35.03-.73.05-1.13.06-.75-.92-2.05-2.97-1.15-4.48Z"/>
      </g>
      <g>
        <g>
          <path class="cls-2" d="M16.76,44.2c0,.4,1.15,1.83,2.88,2.77-.41-.91-.62-1.95-.1-2.82.69-1.16.56-2.2.34-2.85-1.86.92-3.12,2.47-3.12,2.89Z"/>
          <g>
            <path class="cls-2" d="M24.51,42.85c.47-.8.56-1.53.5-2.13.45.06.85.13,1.2.23.15.04.28.08.41.13-.15.07-.29.15-.42.23-.95.61-1.57,1.68-1.57,2.89,0,1.36.79,2.53,1.93,3.09-.23.08-.47.16-.74.22-.7-.79-2.27-3.04-1.31-4.67Z"/>
            <path class="cls-2" d="M22.53,40.6c.06,0,.11,0,.17,0,.36,0,.7,0,1.02.02.19.65.25,1.62-.39,2.7-.88,1.47.34,3.46,1.1,4.41-.35.03-.73.05-1.13.06-.75-.92-2.05-2.97-1.15-4.48.65-1.09.58-2.06.38-2.72Z"/>
            <path class="cls-2" d="M19.53,44.16c.69-1.16.56-2.2.34-2.85.32-.16.66-.3,1.01-.41.27.55.69,1.81-.17,3.26-.64,1.07-.17,2.41.42,3.43-.53-.15-1.04-.36-1.5-.61-.41-.91-.62-1.95-.1-2.82Z"/>
          </g>
          <path class="cls-2" d="M23.29,47.8c-.75-.92-2.05-2.97-1.15-4.48.65-1.09.58-2.06.38-2.72-.57.02-1.12.13-1.64.29.27.55.69,1.81-.17,3.26-.64,1.07-.17,2.41.42,3.43.5.14,1.02.22,1.56.22.21,0,.4,0,.59,0Z"/>
          <path class="cls-2" d="M25.82,47.52c-.7-.79-2.27-3.04-1.31-4.67.47-.8.56-1.53.5-2.13-.39-.05-.82-.08-1.3-.1.19.65.25,1.62-.39,2.7-.88,1.47.34,3.46,1.1,4.41.52-.05.98-.12,1.39-.22Z"/>
        </g>
        <g>
          <path class="cls-2" d="M26.21,40.95c.15.04.28.08.41.13-.15.07-.29.15-.42.23"/>
          <path class="cls-2" d="M25.01,40.72c.45.06.85.13,1.2.23,0,.12,0,.24,0,.36-.95.61-1.57,1.68-1.57,2.89,0,1.36.79,2.53,1.93,3.09-.23.08-.47.16-.74.22"/>
          <path class="cls-2" d="M23.29,47.8c-.19,0-.39,0-.59,0-.54,0-1.06-.08-1.56-.22"/>
          <path class="cls-2" d="M20.89,40.9c.52-.17,1.07-.28,1.64-.29"/>
          <path class="cls-2" d="M19.64,46.97c-1.72-.94-2.88-2.37-2.88-2.77,0-.42,1.26-1.97,3.12-2.89"/>
          <path class="cls-2" d="M19.64,46.97c-.41-.91-.62-1.95-.1-2.82.69-1.16.56-2.2.34-2.85.32-.16.66-.3,1.01-.41.27.55.69,1.81-.17,3.26-.64,1.07-.17,2.41.42,3.43-.53-.15-1.04-.36-1.5-.61Z"/>
          <path class="cls-2" d="M23.72,40.62c.47.02.9.05,1.3.1.06.59-.03,1.33-.5,2.13-.97,1.62.61,3.87,1.31,4.67-.41.1-.87.17-1.39.22"/>
          <path class="cls-2" d="M23.29,47.8c-.75-.92-2.05-2.97-1.15-4.48.65-1.09.58-2.06.38-2.72.06,0,.11,0,.17,0,.36,0,.7,0,1.02.02.19.65.25,1.62-.39,2.7-.88,1.47.34,3.46,1.1,4.41-.35.03-.73.05-1.13.06Z"/>
        </g>
      </g>
      <path class="cls-2" d="M26.78,42.95c.8.16,1.21.57,1.21,1.25,0,.68-.4,1.1-1.21,1.25,1.17-1.14.02-2.48,0-2.51Z"/>
      <path class="cls-2" d="M17.79,43.64c0,.42.34.76.76.76s.76-.34.76-.76c0-.42-.34-.76-.76-.76s-.76.34-.76.76Z"/>
      <path class="cls-2" d="M18.08,43.64c0,.26.21.47.47.47s.47-.21.47-.47-.21-.47-.47-.47-.47.21-.47.47Z"/>
    </g>
    <g>
      <path class="cls-2" d="M73.51,32.12c1.77,0,3.03.16,3.92.48-1.18.55-1.99,1.74-1.99,3.13s.79,2.53,1.93,3.09c-.91.34-2.17.51-3.86.51-3.28,0-5.94-3-5.94-3.6,0-.61,2.66-3.6,5.94-3.6Z"/>
      <path class="cls-2" d="M75.23,36.36c.34.34.85.69,1.54.69,1.35,0,2.03-.44,2.03-1.32,0-.89-.68-1.32-2.03-1.32-.62,0-1.17.37-1.54.72"/>
      <path class="cls-2" d="M71.72,39.04c.01.1.49.38,1.43.74.57.21,1.64.5,1.86.08.06-.11-.14-.32-.49-.56"/>
      <g>
        <path class="cls-2" d="M77.02,32.47c.15.04.28.08.41.13-.15.07-.29.15-.42.23,0-.12.01-.24,0-.36Z"/>
        <path class="cls-2" d="M75.32,34.37c.47-.8.56-1.53.5-2.13.45.06.85.13,1.2.23,0,.12,0,.24,0,.36-.95.61-1.57,1.68-1.57,2.89,0,1.36.79,2.53,1.93,3.09-.23.08-.47.16-.74.22-.7-.8-2.27-3.05-1.31-4.67Z"/>
        <path class="cls-2" d="M73.51,32.12c.89,0,1.66.04,2.31.12.06.59-.03,1.33-.5,2.13-.97,1.62.61,3.87,1.31,4.67-.82.19-1.85.29-3.12.29-3.28,0-5.94-3-5.94-3.6,0-.61,2.66-3.6,5.94-3.6Z"/>
      </g>
      <g>
        <path class="cls-2" d="M77.02,32.47c.15.04.28.08.41.13-.15.07-.29.15-.42.23,0-.12.01-.24,0-.36Z"/>
        <path class="cls-2" d="M75.32,34.37c.47-.8.56-1.53.5-2.13.45.06.85.13,1.2.23,0,.12,0,.24,0,.36-.95.61-1.57,1.68-1.57,2.89,0,1.36.79,2.53,1.93,3.09-.23.08-.47.16-.74.22-.7-.8-2.27-3.05-1.31-4.67Z"/>
        <path class="cls-2" d="M73.34,32.13c.19.65.26,1.63-.38,2.72-.9,1.51.4,3.56,1.15,4.48-.19,0-.39,0-.59,0-3.28,0-5.94-3-5.94-3.6,0-.6,2.57-3.5,5.77-3.6Z"/>
        <path class="cls-2" d="M74.14,34.85c.64-1.08.58-2.05.39-2.7.47.02.9.05,1.29.1.06.59-.03,1.33-.5,2.13-.97,1.62.61,3.87,1.31,4.67-.41.1-.87.17-1.39.22-.75-.95-1.97-2.94-1.1-4.41Z"/>
        <path class="cls-2" d="M72.96,34.85c.65-1.09.58-2.06.38-2.72.06,0,.11,0,.17,0,.36,0,.7,0,1.02.02.19.65.25,1.62-.39,2.7-.88,1.47.34,3.46,1.1,4.41-.35.03-.73.05-1.13.06-.75-.92-2.05-2.97-1.15-4.48Z"/>
      </g>
      <g>
        <g>
          <path class="cls-2" d="M67.58,35.73c0,.4,1.15,1.83,2.88,2.77-.41-.91-.62-1.95-.1-2.82.69-1.16.56-2.2.34-2.85-1.86.92-3.12,2.47-3.12,2.89Z"/>
          <g>
            <path class="cls-2" d="M75.32,34.37c.47-.8.56-1.53.5-2.13.45.06.85.13,1.2.23.15.04.28.08.41.13-.15.07-.29.15-.42.23-.95.61-1.57,1.68-1.57,2.89,0,1.36.79,2.53,1.93,3.09-.23.08-.47.16-.74.22-.7-.79-2.27-3.04-1.31-4.67Z"/>
            <path class="cls-2" d="M73.34,32.13c.06,0,.11,0,.17,0,.36,0,.7,0,1.02.02.19.65.25,1.62-.39,2.7-.88,1.47.34,3.46,1.1,4.41-.35.03-.73.05-1.13.06-.75-.92-2.05-2.97-1.15-4.48.65-1.09.58-2.06.38-2.72Z"/>
            <path class="cls-2" d="M70.35,35.68c.69-1.16.56-2.2.34-2.85.32-.16.66-.3,1.01-.41.27.55.69,1.81-.17,3.26-.64,1.07-.17,2.41.42,3.43-.53-.15-1.04-.36-1.5-.61-.41-.91-.62-1.95-.1-2.82Z"/>
          </g>
          <path class="cls-2" d="M74.11,39.32c-.75-.92-2.05-2.97-1.15-4.48.65-1.09.58-2.06.38-2.72-.57.02-1.12.13-1.64.29.27.55.69,1.81-.17,3.26-.64,1.07-.17,2.41.42,3.43.5.14,1.02.22,1.56.22.21,0,.4,0,.59,0Z"/>
          <path class="cls-2" d="M76.63,39.04c-.7-.79-2.27-3.04-1.31-4.67.47-.8.56-1.53.5-2.13-.39-.05-.82-.08-1.3-.1.19.65.25,1.62-.39,2.7-.88,1.47.34,3.46,1.1,4.41.52-.05.98-.12,1.39-.22Z"/>
        </g>
        <g>
          <path class="cls-2" d="M77.02,32.47c.15.04.28.08.41.13-.15.07-.29.15-.42.23"/>
          <path class="cls-2" d="M75.83,32.25c.45.06.85.13,1.2.23,0,.12,0,.24,0,.36-.95.61-1.57,1.68-1.57,2.89,0,1.36.79,2.53,1.93,3.09-.23.08-.47.16-.74.22"/>
          <path class="cls-2" d="M74.11,39.32c-.19,0-.39,0-.59,0-.54,0-1.06-.08-1.56-.22"/>
          <path class="cls-2" d="M71.7,32.42c.52-.17,1.07-.28,1.64-.29"/>
          <path class="cls-2" d="M70.45,38.5c-1.72-.94-2.88-2.37-2.88-2.77,0-.42,1.26-1.97,3.12-2.89"/>
          <path class="cls-2" d="M70.45,38.5c-.41-.91-.62-1.95-.1-2.82.69-1.16.56-2.2.34-2.85.32-.16.66-.3,1.01-.41.27.55.69,1.81-.17,3.26-.64,1.07-.17,2.41.42,3.43-.53-.15-1.04-.36-1.5-.61Z"/>
          <path class="cls-2" d="M74.53,32.14c.47.02.9.05,1.3.1.06.59-.03,1.33-.5,2.13-.97,1.62.61,3.87,1.31,4.67-.41.1-.87.17-1.39.22"/>
          <path class="cls-2" d="M74.11,39.32c-.75-.92-2.05-2.97-1.15-4.48.65-1.09.58-2.06.38-2.72.06,0,.11,0,.17,0,.36,0,.7,0,1.02.02.19.65.25,1.62-.39,2.7-.88,1.47.34,3.46,1.1,4.41-.35.03-.73.05-1.13.06Z"/>
        </g>
      </g>
      <path class="cls-2" d="M77.6,34.47c.8.16,1.21.57,1.21,1.25s-.4,1.1-1.21,1.25c1.17-1.14.02-2.48,0-2.51Z"/>
      <path class="cls-2" d="M68.6,35.16c0,.42.34.76.76.76s.76-.34.76-.76c0-.42-.34-.76-.76-.76s-.76.34-.76.76Z"/>
      <path class="cls-2" d="M68.89,35.16c0,.26.21.47.47.47s.47-.21.47-.47c0-.26-.21-.47-.47-.47s-.47.21-.47.47Z"/>
    </g>
    <g>
      <path class="cls-2" d="M40.25,30.24c2.6,0,4.46.24,5.78.71-1.73.8-2.94,2.56-2.94,4.6s1.16,3.73,2.84,4.56c-1.34.5-3.19.75-5.68.75-4.83,0-8.74-4.42-8.74-5.31,0-.9,3.91-5.31,8.74-5.31Z"/>
      <path class="cls-2" d="M42.78,36.48c.5.5,1.26,1.02,2.27,1.02,1.99,0,2.99-.64,2.99-1.95,0-1.31-.99-1.95-2.99-1.95-.91,0-1.73.54-2.27,1.06"/>
      <path class="cls-2" d="M37.61,40.43c.02.15.72.57,2.11,1.09.84.31,2.41.74,2.74.12.09-.17-.2-.48-.72-.82"/>
      <g>
        <path class="cls-2" d="M45.42,30.76c.21.06.42.12.61.19-.22.1-.42.21-.62.34.01-.18.02-.36.01-.53Z"/>
        <path class="cls-2" d="M42.92,33.56c.7-1.17.83-2.26.74-3.13.66.08,1.25.2,1.76.33,0,.17,0,.35-.01.53-1.39.9-2.32,2.47-2.32,4.26,0,2,1.16,3.73,2.84,4.56-.33.12-.69.23-1.09.32-1.03-1.17-3.35-4.48-1.92-6.87Z"/>
        <path class="cls-2" d="M40.25,30.24c1.32,0,2.44.06,3.41.18.09.88-.04,1.96-.74,3.13-1.42,2.39.9,5.7,1.92,6.87-1.2.28-2.72.43-4.59.43-4.83,0-8.74-4.42-8.74-5.31,0-.9,3.91-5.31,8.74-5.31Z"/>
      </g>
      <g>
        <path class="cls-2" d="M45.42,30.76c.21.06.42.12.61.19-.22.1-.42.21-.62.34.01-.18.02-.36.01-.53Z"/>
        <path class="cls-2" d="M42.92,33.56c.7-1.17.83-2.26.74-3.13.66.08,1.25.2,1.76.33,0,.17,0,.35-.01.53-1.39.9-2.32,2.47-2.32,4.26,0,2,1.16,3.73,2.84,4.56-.33.12-.69.23-1.09.32-1.03-1.17-3.35-4.48-1.92-6.87Z"/>
        <path class="cls-2" d="M40,30.25c.28.96.39,2.4-.57,4-1.32,2.22.59,5.24,1.69,6.59-.28,0-.57.01-.88.01-4.83,0-8.74-4.42-8.74-5.31,0-.88,3.78-5.15,8.49-5.3Z"/>
        <path class="cls-2" d="M41.18,34.25c.95-1.59.85-3.02.57-3.98.7.03,1.33.08,1.91.15.09.88-.04,1.96-.74,3.13-1.42,2.39.9,5.7,1.92,6.87-.6.14-1.29.25-2.05.32-1.11-1.4-2.91-4.33-1.61-6.5Z"/>
        <path class="cls-2" d="M39.44,34.25c.95-1.6.85-3.04.57-4,.08,0,.16,0,.25,0,.53,0,1.03.01,1.5.03.28.96.37,2.39-.57,3.98-1.29,2.17.5,5.1,1.61,6.5-.52.05-1.07.08-1.66.09-1.1-1.36-3.01-4.37-1.69-6.59Z"/>
      </g>
      <g>
        <g>
          <path class="cls-2" d="M31.51,35.55c0,.59,1.7,2.7,4.23,4.08-.61-1.33-.91-2.87-.15-4.14,1.02-1.71.83-3.24.51-4.19-2.73,1.36-4.59,3.64-4.59,4.26Z"/>
          <g>
            <path class="cls-2" d="M42.92,33.56c.7-1.17.83-2.26.74-3.13.66.08,1.25.2,1.76.34.22.06.42.12.61.19-.22.1-.42.21-.62.34-1.39.9-2.32,2.47-2.32,4.26,0,2,1.16,3.73,2.84,4.55-.33.12-.69.23-1.09.32-1.03-1.17-3.35-4.48-1.92-6.87Z"/>
            <path class="cls-2" d="M40,30.25c.08,0,.16,0,.25,0,.53,0,1.03.01,1.5.03.28.96.37,2.39-.57,3.98-1.29,2.17.5,5.1,1.61,6.5-.52.05-1.07.08-1.66.09-1.1-1.36-3.01-4.37-1.69-6.59.95-1.6.85-3.04.57-4Z"/>
            <path class="cls-2" d="M35.59,35.49c1.02-1.71.83-3.24.51-4.19.47-.23.97-.44,1.49-.61.4.81,1.02,2.66-.25,4.8-.94,1.57-.25,3.55.62,5.05-.79-.22-1.53-.54-2.21-.9-.61-1.33-.91-2.87-.15-4.14Z"/>
          </g>
          <path class="cls-2" d="M41.13,40.84c-1.1-1.36-3.01-4.37-1.69-6.59.95-1.6.85-3.04.57-4-.84.02-1.65.18-2.42.43.4.81,1.02,2.66-.25,4.8-.94,1.57-.25,3.55.62,5.05.73.2,1.5.32,2.29.32.3,0,.59,0,.88-.01Z"/>
          <path class="cls-2" d="M44.84,40.43c-1.03-1.17-3.35-4.48-1.92-6.87.7-1.17.83-2.26.74-3.13-.58-.07-1.21-.12-1.91-.15.28.96.37,2.39-.57,3.98-1.29,2.17.5,5.1,1.61,6.5.77-.07,1.45-.18,2.05-.32Z"/>
        </g>
        <g>
          <path class="cls-2" d="M45.42,30.76c.22.06.42.12.61.19-.22.1-.42.21-.62.34"/>
          <path class="cls-2" d="M43.66,30.43c.66.08,1.25.2,1.76.34,0,.17,0,.35-.01.53-1.39.9-2.32,2.47-2.32,4.26,0,2,1.16,3.73,2.84,4.55-.33.12-.69.23-1.09.32"/>
          <path class="cls-2" d="M41.13,40.84c-.28,0-.57.01-.88.01-.79,0-1.56-.12-2.29-.32"/>
          <path class="cls-2" d="M37.59,30.68c.76-.25,1.58-.41,2.42-.43"/>
          <path class="cls-2" d="M35.75,39.63c-2.54-1.38-4.23-3.49-4.23-4.08,0-.62,1.86-2.9,4.59-4.26"/>
          <path class="cls-2" d="M35.75,39.63c-.61-1.33-.91-2.87-.15-4.14,1.02-1.71.83-3.24.51-4.19.47-.23.97-.44,1.49-.61.4.81,1.02,2.66-.25,4.8-.94,1.57-.25,3.55.62,5.05-.79-.22-1.53-.54-2.21-.9Z"/>
          <path class="cls-2" d="M41.75,30.28c.7.03,1.33.08,1.91.15.09.88-.04,1.96-.74,3.13-1.42,2.39.9,5.7,1.92,6.87-.6.14-1.29.25-2.05.32"/>
          <path class="cls-2" d="M41.13,40.84c-1.1-1.36-3.01-4.37-1.69-6.59.95-1.6.85-3.04.57-4,.08,0,.16,0,.25,0,.53,0,1.03.01,1.5.03.28.96.37,2.39-.57,3.98-1.29,2.17.5,5.1,1.61,6.5-.52.05-1.07.08-1.66.09Z"/>
        </g>
      </g>
      <path class="cls-2" d="M46.26,33.71c1.18.23,1.77.84,1.77,1.85,0,1.01-.59,1.62-1.77,1.85,1.72-1.67.04-3.65,0-3.69Z"/>
      <path class="cls-2" d="M33.02,34.72c0,.62.5,1.12,1.12,1.12s1.12-.5,1.12-1.12c0-.62-.5-1.12-1.12-1.12s-1.12.5-1.12,1.12Z"/>
      <path class="cls-2" d="M33.45,34.72c0,.38.31.69.69.69s.69-.31.69-.69c0-.38-.31-.69-.69-.69s-.69.31-.69.69Z"/>
    </g>
    <g>
      <path class="cls-2" d="M59.75,24.09c1.86,0,3.19.17,4.13.51-1.24.58-2.1,1.83-2.1,3.29,0,1.43.83,2.67,2.03,3.26-.96.36-2.28.54-4.07.54-3.45,0-6.25-3.16-6.25-3.8,0-.64,2.8-3.8,6.25-3.8Z"/>
      <path class="cls-2" d="M61.56,28.56c.36.36.9.73,1.62.73,1.43,0,2.14-.46,2.14-1.39s-.71-1.39-2.14-1.39c-.65,0-1.24.39-1.63.76"/>
      <path class="cls-2" d="M57.86,31.38c.01.1.51.41,1.51.78.6.22,1.72.53,1.96.09.06-.12-.14-.34-.51-.58"/>
      <g>
        <path class="cls-2" d="M63.44,24.46c.15.04.3.09.44.13-.15.07-.3.15-.44.25.01-.13.01-.26,0-.38Z"/>
        <path class="cls-2" d="M61.65,26.46c.5-.84.59-1.61.53-2.24.47.06.89.14,1.26.24,0,.12,0,.25,0,.38-1,.65-1.66,1.77-1.66,3.05s.83,2.67,2.03,3.26c-.24.09-.5.17-.78.23-.74-.84-2.4-3.21-1.38-4.92Z"/>
        <path class="cls-2" d="M59.75,24.09c.94,0,1.75.04,2.44.13.06.63-.03,1.4-.53,2.24-1.02,1.71.64,4.08,1.38,4.92-.86.2-1.94.31-3.29.31-3.45,0-6.25-3.16-6.25-3.8,0-.64,2.8-3.8,6.25-3.8Z"/>
      </g>
      <g>
        <path class="cls-2" d="M63.44,24.46c.15.04.3.09.44.13-.15.07-.3.15-.44.25.01-.13.01-.26,0-.38Z"/>
        <path class="cls-2" d="M61.65,26.46c.5-.84.59-1.61.53-2.24.47.06.89.14,1.26.24,0,.12,0,.25,0,.38-1,.65-1.66,1.77-1.66,3.05s.83,2.67,2.03,3.26c-.24.09-.5.17-.78.23-.74-.84-2.4-3.21-1.38-4.92Z"/>
        <path class="cls-2" d="M59.57,24.1c.2.69.28,1.72-.4,2.86-.95,1.59.42,3.75,1.21,4.72-.2,0-.41,0-.63,0-3.45,0-6.25-3.16-6.25-3.8,0-.63,2.71-3.69,6.08-3.79Z"/>
        <path class="cls-2" d="M60.41,26.96c.68-1.14.61-2.16.41-2.85.5.02.95.06,1.36.11.06.63-.03,1.4-.53,2.24-1.02,1.71.64,4.08,1.38,4.92-.43.1-.92.18-1.47.23-.8-1-2.08-3.1-1.15-4.65Z"/>
        <path class="cls-2" d="M59.16,26.96c.68-1.15.61-2.17.4-2.86.06,0,.12,0,.18,0,.38,0,.74,0,1.07.02.2.69.27,1.71-.41,2.85-.93,1.55.36,3.65,1.15,4.65-.37.03-.77.06-1.19.07-.79-.97-2.16-3.13-1.21-4.72Z"/>
      </g>
      <g>
        <g>
          <path class="cls-2" d="M53.49,27.89c0,.42,1.21,1.93,3.03,2.92-.43-.95-.65-2.05-.11-2.97.73-1.22.59-2.32.36-3-1.96.97-3.28,2.61-3.28,3.05Z"/>
          <g>
            <path class="cls-2" d="M61.65,26.46c.5-.84.59-1.62.53-2.24.47.06.89.14,1.26.24.15.04.3.09.44.14-.16.07-.3.15-.44.24-1,.65-1.66,1.77-1.66,3.05s.83,2.67,2.03,3.26c-.24.09-.5.17-.78.23-.74-.84-2.4-3.21-1.38-4.92Z"/>
            <path class="cls-2" d="M59.57,24.1c.06,0,.12,0,.18,0,.38,0,.74,0,1.07.02.2.69.27,1.71-.41,2.85-.92,1.55.36,3.65,1.15,4.65-.37.03-.77.06-1.19.07-.79-.97-2.16-3.13-1.21-4.72.68-1.15.61-2.17.41-2.86Z"/>
            <path class="cls-2" d="M56.41,27.84c.73-1.22.59-2.32.36-3,.34-.17.69-.32,1.06-.43.29.58.73,1.9-.18,3.44-.67,1.13-.18,2.54.45,3.61-.56-.16-1.09-.38-1.58-.65-.43-.95-.65-2.05-.11-2.97Z"/>
          </g>
          <path class="cls-2" d="M60.37,31.68c-.79-.97-2.16-3.13-1.21-4.72.68-1.15.61-2.17.41-2.86-.6.02-1.18.13-1.73.31.29.58.73,1.9-.18,3.44-.67,1.13-.18,2.54.45,3.61.52.15,1.07.23,1.64.23.22,0,.42,0,.63,0Z"/>
          <path class="cls-2" d="M63.03,31.38c-.74-.84-2.4-3.21-1.38-4.92.5-.84.59-1.62.53-2.24-.41-.05-.87-.09-1.36-.11.2.69.27,1.71-.41,2.85-.92,1.55.36,3.65,1.15,4.65.55-.05,1.04-.13,1.47-.23Z"/>
        </g>
        <g>
          <path class="cls-2" d="M63.44,24.46c.15.04.3.09.44.14-.16.07-.3.15-.44.24"/>
          <path class="cls-2" d="M62.18,24.22c.47.06.89.14,1.26.24,0,.12,0,.25,0,.38-1,.65-1.66,1.77-1.66,3.05s.83,2.67,2.03,3.26c-.24.09-.5.17-.78.23"/>
          <path class="cls-2" d="M60.37,31.68c-.2,0-.41,0-.63,0-.57,0-1.12-.09-1.64-.23"/>
          <path class="cls-2" d="M57.84,24.41c.55-.18,1.13-.29,1.73-.31"/>
          <path class="cls-2" d="M56.52,30.81c-1.82-.99-3.03-2.5-3.03-2.92s1.33-2.08,3.28-3.05"/>
          <path class="cls-2" d="M56.52,30.81c-.43-.95-.65-2.05-.11-2.97.73-1.22.59-2.32.36-3,.34-.17.69-.32,1.06-.43.29.58.73,1.9-.18,3.44-.67,1.13-.18,2.54.45,3.61-.56-.16-1.09-.38-1.58-.65Z"/>
          <path class="cls-2" d="M60.82,24.11c.5.02.95.06,1.36.11.06.63-.03,1.4-.53,2.24-1.02,1.71.64,4.08,1.38,4.92-.43.1-.92.18-1.47.23"/>
          <path class="cls-2" d="M60.37,31.68c-.79-.97-2.16-3.13-1.21-4.72.68-1.15.61-2.17.41-2.86.06,0,.12,0,.18,0,.38,0,.74,0,1.07.02.2.69.27,1.71-.41,2.85-.92,1.55.36,3.65,1.15,4.65-.37.03-.77.06-1.19.07Z"/>
        </g>
      </g>
      <path class="cls-2" d="M64.05,26.57c.85.16,1.27.6,1.27,1.32,0,.72-.42,1.16-1.27,1.32,1.23-1.2.03-2.61,0-2.64Z"/>
      <path class="cls-2" d="M54.57,27.3c0,.44.36.8.8.8s.8-.36.8-.8c0-.44-.36-.8-.8-.8s-.8.36-.8.8Z"/>
      <path class="cls-2" d="M54.88,27.3c0,.27.22.5.5.5s.5-.22.5-.5c0-.27-.22-.5-.5-.5s-.5.22-.5.5Z"/>
    </g>
    <g>
      <path class="cls-2" d="M81.75,16.58c1.86,0,3.19.17,4.13.51-1.24.58-2.1,1.83-2.1,3.29,0,1.43.83,2.67,2.03,3.26-.96.36-2.28.54-4.07.54-3.45,0-6.25-3.16-6.25-3.8,0-.64,2.8-3.8,6.25-3.8Z"/>
      <path class="cls-2" d="M83.57,21.05c.36.36.9.73,1.62.73,1.43,0,2.14-.46,2.14-1.39,0-.93-.71-1.39-2.14-1.39-.65,0-1.24.39-1.63.76"/>
      <path class="cls-2" d="M79.86,23.87c.01.1.51.41,1.51.78.6.22,1.72.53,1.96.09.06-.12-.14-.34-.51-.58"/>
      <g>
        <path class="cls-2" d="M85.45,16.95c.15.04.3.09.44.13-.15.07-.3.15-.44.25.01-.13.01-.26,0-.38Z"/>
        <path class="cls-2" d="M83.66,18.95c.5-.84.59-1.61.53-2.24.47.06.89.14,1.26.24,0,.12,0,.25,0,.38-1,.65-1.66,1.77-1.66,3.05,0,1.43.83,2.67,2.03,3.26-.24.09-.5.17-.78.23-.74-.84-2.4-3.21-1.38-4.92Z"/>
        <path class="cls-2" d="M81.75,16.58c.94,0,1.75.04,2.44.13.06.63-.03,1.4-.53,2.24-1.02,1.71.64,4.08,1.38,4.92-.86.2-1.94.31-3.29.31-3.45,0-6.25-3.16-6.25-3.8,0-.64,2.8-3.8,6.25-3.8Z"/>
      </g>
      <g>
        <path class="cls-2" d="M85.45,16.95c.15.04.3.09.44.13-.15.07-.3.15-.44.25.01-.13.01-.26,0-.38Z"/>
        <path class="cls-2" d="M83.66,18.95c.5-.84.59-1.61.53-2.24.47.06.89.14,1.26.24,0,.12,0,.25,0,.38-1,.65-1.66,1.77-1.66,3.05,0,1.43.83,2.67,2.03,3.26-.24.09-.5.17-.78.23-.74-.84-2.4-3.21-1.38-4.92Z"/>
        <path class="cls-2" d="M81.58,16.59c.2.69.28,1.72-.4,2.86-.95,1.59.42,3.75,1.21,4.72-.2,0-.41,0-.63,0-3.45,0-6.25-3.16-6.25-3.8s2.71-3.69,6.08-3.79Z"/>
        <path class="cls-2" d="M82.42,19.45c.68-1.14.61-2.16.41-2.85.5.02.95.06,1.36.11.06.63-.03,1.4-.53,2.24-1.02,1.71.64,4.08,1.38,4.92-.43.1-.92.18-1.47.23-.8-1-2.08-3.1-1.15-4.65Z"/>
        <path class="cls-2" d="M81.17,19.45c.68-1.15.61-2.17.4-2.86.06,0,.12,0,.18,0,.38,0,.74,0,1.07.02.2.69.27,1.71-.41,2.85-.93,1.55.36,3.65,1.15,4.65-.37.03-.77.06-1.19.07-.79-.97-2.16-3.13-1.21-4.72Z"/>
      </g>
      <g>
        <g>
          <path class="cls-2" d="M75.5,20.38c0,.42,1.21,1.93,3.03,2.92-.43-.95-.65-2.05-.11-2.97.73-1.22.59-2.32.36-3-1.96.97-3.28,2.61-3.28,3.05Z"/>
          <g>
            <path class="cls-2" d="M83.66,18.95c.5-.84.59-1.62.53-2.24.47.06.89.14,1.26.24.15.04.3.09.44.14-.16.07-.3.15-.44.24-1,.65-1.66,1.77-1.66,3.05,0,1.43.83,2.67,2.03,3.26-.24.09-.5.17-.78.23-.74-.84-2.4-3.21-1.38-4.92Z"/>
            <path class="cls-2" d="M81.58,16.59c.06,0,.12,0,.18,0,.38,0,.74,0,1.07.02.2.69.27,1.71-.41,2.85-.92,1.55.36,3.65,1.15,4.65-.37.03-.77.06-1.19.07-.79-.97-2.16-3.13-1.21-4.72.68-1.15.61-2.17.41-2.86Z"/>
            <path class="cls-2" d="M78.42,20.33c.73-1.22.59-2.32.36-3,.34-.17.69-.32,1.06-.43.29.58.73,1.9-.18,3.44-.67,1.13-.18,2.54.45,3.61-.56-.16-1.09-.38-1.58-.65-.43-.95-.65-2.05-.11-2.97Z"/>
          </g>
          <path class="cls-2" d="M82.38,24.17c-.79-.97-2.16-3.13-1.21-4.72.68-1.15.61-2.17.41-2.86-.6.02-1.18.13-1.73.31.29.58.73,1.9-.18,3.44-.67,1.13-.18,2.54.45,3.61.52.15,1.07.23,1.64.23.22,0,.42,0,.63,0Z"/>
          <path class="cls-2" d="M85.04,23.87c-.74-.84-2.4-3.21-1.38-4.92.5-.84.59-1.62.53-2.24-.41-.05-.87-.09-1.36-.11.2.69.27,1.71-.41,2.85-.92,1.55.36,3.65,1.15,4.65.55-.05,1.04-.13,1.47-.23Z"/>
        </g>
        <g>
          <path class="cls-2" d="M85.45,16.95c.15.04.3.09.44.14-.16.07-.3.15-.44.24"/>
          <path class="cls-2" d="M84.19,16.71c.47.06.89.14,1.26.24,0,.12,0,.25,0,.38-1,.65-1.66,1.77-1.66,3.05,0,1.43.83,2.67,2.03,3.26-.24.09-.5.17-.78.23"/>
          <path class="cls-2" d="M82.38,24.17c-.2,0-.41,0-.63,0-.57,0-1.12-.09-1.64-.23"/>
          <path class="cls-2" d="M79.85,16.9c.55-.18,1.13-.29,1.73-.31"/>
          <path class="cls-2" d="M78.53,23.3c-1.82-.99-3.03-2.5-3.03-2.92,0-.44,1.33-2.08,3.28-3.05"/>
          <path class="cls-2" d="M78.53,23.3c-.43-.95-.65-2.05-.11-2.97.73-1.22.59-2.32.36-3,.34-.17.69-.32,1.06-.43.29.58.73,1.9-.18,3.44-.67,1.13-.18,2.54.45,3.61-.56-.16-1.09-.38-1.58-.65Z"/>
          <path class="cls-2" d="M82.83,16.6c.5.02.95.06,1.36.11.06.63-.03,1.4-.53,2.24-1.02,1.71.64,4.08,1.38,4.92-.43.1-.92.18-1.47.23"/>
          <path class="cls-2" d="M82.38,24.17c-.79-.97-2.16-3.13-1.21-4.72.68-1.15.61-2.17.41-2.86.06,0,.12,0,.18,0,.38,0,.74,0,1.07.02.2.69.27,1.71-.41,2.85-.92,1.55.36,3.65,1.15,4.65-.37.03-.77.06-1.19.07Z"/>
        </g>
      </g>
      <path class="cls-2" d="M86.06,19.06c.85.16,1.27.6,1.27,1.32,0,.72-.42,1.16-1.27,1.32,1.23-1.2.03-2.61,0-2.64Z"/>
      <path class="cls-2" d="M76.58,19.79c0,.44.36.8.8.8s.8-.36.8-.8-.36-.8-.8-.8-.8.36-.8.8Z"/>
      <path class="cls-2" d="M76.89,19.79c0,.27.22.5.5.5s.5-.22.5-.5c0-.27-.22-.5-.5-.5s-.5.22-.5.5Z"/>
    </g>
    <g>
      <path class="cls-2" d="M65.37,44.58c1.86,0,3.19.17,4.13.51-1.24.58-2.1,1.83-2.1,3.29,0,1.43.83,2.67,2.03,3.26-.96.36-2.28.54-4.07.54-3.45,0-6.25-3.16-6.25-3.8,0-.64,2.8-3.8,6.25-3.8Z"/>
      <path class="cls-2" d="M67.18,49.04c.36.36.9.73,1.62.73,1.43,0,2.14-.46,2.14-1.39,0-.93-.71-1.39-2.14-1.39-.65,0-1.24.39-1.63.76"/>
      <path class="cls-2" d="M63.48,51.87c.01.1.51.41,1.51.78.6.22,1.72.53,1.96.09.06-.12-.14-.34-.51-.58"/>
      <g>
        <path class="cls-2" d="M69.07,44.95c.15.04.3.09.44.13-.15.07-.3.15-.44.25.01-.13.01-.26,0-.38Z"/>
        <path class="cls-2" d="M67.28,46.95c.5-.84.59-1.61.53-2.24.47.06.89.14,1.26.24,0,.12,0,.25,0,.38-1,.65-1.66,1.77-1.66,3.05,0,1.43.83,2.67,2.03,3.26-.24.09-.5.17-.78.23-.74-.84-2.4-3.21-1.38-4.92Z"/>
        <path class="cls-2" d="M65.37,44.58c.94,0,1.75.04,2.44.13.06.63-.03,1.4-.53,2.24-1.02,1.71.64,4.08,1.38,4.92-.86.2-1.94.31-3.29.31-3.45,0-6.25-3.16-6.25-3.8,0-.64,2.8-3.8,6.25-3.8Z"/>
      </g>
      <g>
        <path class="cls-2" d="M69.07,44.95c.15.04.3.09.44.13-.15.07-.3.15-.44.25.01-.13.01-.26,0-.38Z"/>
        <path class="cls-2" d="M67.28,46.95c.5-.84.59-1.61.53-2.24.47.06.89.14,1.26.24,0,.12,0,.25,0,.38-1,.65-1.66,1.77-1.66,3.05,0,1.43.83,2.67,2.03,3.26-.24.09-.5.17-.78.23-.74-.84-2.4-3.21-1.38-4.92Z"/>
        <path class="cls-2" d="M65.19,44.58c.2.69.28,1.72-.4,2.86-.95,1.59.42,3.75,1.21,4.72-.2,0-.41,0-.63,0-3.45,0-6.25-3.16-6.25-3.8,0-.63,2.71-3.69,6.08-3.79Z"/>
        <path class="cls-2" d="M66.03,47.45c.68-1.14.61-2.16.41-2.85.5.02.95.06,1.36.11.06.63-.03,1.4-.53,2.24-1.02,1.71.64,4.08,1.38,4.92-.43.1-.92.18-1.47.23-.8-1-2.08-3.1-1.15-4.65Z"/>
        <path class="cls-2" d="M64.79,47.45c.68-1.15.61-2.17.4-2.86.06,0,.12,0,.18,0,.38,0,.74,0,1.07.02.2.69.27,1.71-.41,2.85-.93,1.55.36,3.65,1.15,4.65-.37.03-.77.06-1.19.07-.79-.97-2.16-3.13-1.21-4.72Z"/>
      </g>
      <g>
        <g>
          <path class="cls-2" d="M59.12,48.37c0,.42,1.21,1.93,3.03,2.92-.43-.95-.65-2.05-.11-2.97.73-1.22.59-2.32.36-3-1.96.97-3.28,2.61-3.28,3.05Z"/>
          <g>
            <path class="cls-2" d="M67.28,46.95c.5-.84.59-1.62.53-2.24.47.06.89.14,1.26.24.15.04.3.09.44.14-.16.07-.3.15-.44.24-1,.65-1.66,1.77-1.66,3.05,0,1.43.83,2.67,2.03,3.26-.24.09-.5.17-.78.23-.74-.84-2.4-3.21-1.38-4.92Z"/>
            <path class="cls-2" d="M65.19,44.58c.06,0,.12,0,.18,0,.38,0,.74,0,1.07.02.2.69.27,1.71-.41,2.85-.92,1.55.36,3.65,1.15,4.65-.37.03-.77.06-1.19.07-.79-.97-2.16-3.13-1.21-4.72.68-1.15.61-2.17.41-2.86Z"/>
            <path class="cls-2" d="M62.04,48.33c.73-1.22.59-2.32.36-3,.34-.17.69-.32,1.06-.43.29.58.73,1.9-.18,3.44-.67,1.13-.18,2.54.45,3.61-.56-.16-1.09-.38-1.58-.65-.43-.95-.65-2.05-.11-2.97Z"/>
          </g>
          <path class="cls-2" d="M66,52.16c-.79-.97-2.16-3.13-1.21-4.72.68-1.15.61-2.17.41-2.86-.6.02-1.18.13-1.73.31.29.58.73,1.9-.18,3.44-.67,1.13-.18,2.54.45,3.61.52.15,1.07.23,1.64.23.22,0,.42,0,.63,0Z"/>
          <path class="cls-2" d="M68.66,51.87c-.74-.84-2.4-3.21-1.38-4.92.5-.84.59-1.62.53-2.24-.41-.05-.87-.09-1.36-.11.2.69.27,1.71-.41,2.85-.92,1.55.36,3.65,1.15,4.65.55-.05,1.04-.13,1.47-.23Z"/>
        </g>
        <g>
          <path class="cls-2" d="M69.07,44.95c.15.04.3.09.44.14-.16.07-.3.15-.44.24"/>
          <path class="cls-2" d="M67.81,44.71c.47.06.89.14,1.26.24,0,.12,0,.25,0,.38-1,.65-1.66,1.77-1.66,3.05,0,1.43.83,2.67,2.03,3.26-.24.09-.5.17-.78.23"/>
          <path class="cls-2" d="M66,52.16c-.2,0-.41,0-.63,0-.57,0-1.12-.09-1.64-.23"/>
          <path class="cls-2" d="M63.47,44.89c.55-.18,1.13-.29,1.73-.31"/>
          <path class="cls-2" d="M62.15,51.29c-1.82-.99-3.03-2.5-3.03-2.92,0-.44,1.33-2.08,3.28-3.05"/>
          <path class="cls-2" d="M62.15,51.29c-.43-.95-.65-2.05-.11-2.97.73-1.22.59-2.32.36-3,.34-.17.69-.32,1.06-.43.29.58.73,1.9-.18,3.44-.67,1.13-.18,2.54.45,3.61-.56-.16-1.09-.38-1.58-.65Z"/>
          <path class="cls-2" d="M66.44,44.6c.5.02.95.06,1.36.11.06.63-.03,1.4-.53,2.24-1.02,1.71.64,4.08,1.38,4.92-.43.1-.92.18-1.47.23"/>
          <path class="cls-2" d="M66,52.16c-.79-.97-2.16-3.13-1.21-4.72.68-1.15.61-2.17.41-2.86.06,0,.12,0,.18,0,.38,0,.74,0,1.07.02.2.69.27,1.71-.41,2.85-.92,1.55.36,3.65,1.15,4.65-.37.03-.77.06-1.19.07Z"/>
        </g>
      </g>
      <path class="cls-2" d="M69.67,47.05c.85.16,1.27.6,1.27,1.32,0,.72-.42,1.16-1.27,1.32,1.23-1.2.03-2.61,0-2.64Z"/>
      <path class="cls-2" d="M60.2,47.78c0,.44.36.8.8.8s.8-.36.8-.8c0-.44-.36-.8-.8-.8s-.8.36-.8.8Z"/>
      <path class="cls-2" d="M60.5,47.78c0,.27.22.5.5.5s.5-.22.5-.5c0-.27-.22-.5-.5-.5s-.5.22-.5.5Z"/>
    </g>
    <g>
      <path class="cls-2" d="M20.16,22.37c2.75,0,4.71.25,6.11.75-1.83.85-3.1,2.71-3.1,4.86,0,2.12,1.22,3.94,3,4.81-1.42.53-3.37.79-6,.79-5.1,0-9.23-4.67-9.23-5.61,0-.95,4.13-5.61,9.23-5.61Z"/>
      <path class="cls-2" d="M22.84,28.96c.53.53,1.33,1.08,2.4,1.08,2.11,0,3.16-.68,3.16-2.06s-1.05-2.06-3.16-2.06c-.96,0-1.82.57-2.4,1.12"/>
      <path class="cls-2" d="M17.37,33.13c.02.15.76.6,2.23,1.15.88.33,2.55.78,2.89.13.1-.18-.21-.5-.76-.86"/>
      <g>
        <path class="cls-2" d="M25.62,22.91c.23.06.44.13.64.2-.23.11-.45.23-.66.36.02-.19.02-.38.01-.56Z"/>
        <path class="cls-2" d="M22.98,25.87c.74-1.24.88-2.38.78-3.31.7.09,1.32.21,1.86.35,0,.18,0,.37-.01.56-1.47.95-2.45,2.61-2.45,4.5,0,2.12,1.22,3.94,3,4.81-.35.13-.73.24-1.15.34-1.09-1.24-3.54-4.74-2.03-7.26Z"/>
        <path class="cls-2" d="M20.16,22.37c1.39,0,2.58.06,3.6.19.1.92-.04,2.07-.78,3.31-1.5,2.52.95,6.02,2.03,7.26-1.27.3-2.87.45-4.85.45-5.1,0-9.23-4.67-9.23-5.61,0-.95,4.13-5.61,9.23-5.61Z"/>
      </g>
      <g>
        <path class="cls-2" d="M25.62,22.91c.23.06.44.13.64.2-.23.11-.45.23-.66.36.02-.19.02-.38.01-.56Z"/>
        <path class="cls-2" d="M22.98,25.87c.74-1.24.88-2.38.78-3.31.7.09,1.32.21,1.86.35,0,.18,0,.37-.01.56-1.47.95-2.45,2.61-2.45,4.5,0,2.12,1.22,3.94,3,4.81-.35.13-.73.24-1.15.34-1.09-1.24-3.54-4.74-2.03-7.26Z"/>
        <path class="cls-2" d="M19.9,22.37c.3,1.02.41,2.54-.6,4.23-1.4,2.35.62,5.53,1.78,6.97-.3,0-.61.01-.92.01-5.1,0-9.23-4.67-9.23-5.61,0-.93,3.99-5.45,8.97-5.6Z"/>
        <path class="cls-2" d="M21.14,26.6c1-1.68.9-3.19.6-4.2.74.03,1.41.08,2.01.16.1.92-.04,2.07-.78,3.31-1.5,2.52.95,6.02,2.03,7.26-.64.15-1.36.26-2.17.34-1.17-1.48-3.07-4.57-1.7-6.87Z"/>
        <path class="cls-2" d="M19.3,26.6c1.01-1.69.9-3.21.6-4.23.09,0,.17,0,.26,0,.56,0,1.09.01,1.59.03.29,1.02.39,2.53-.6,4.2-1.37,2.29.53,5.39,1.7,6.87-.54.05-1.13.08-1.76.1-1.16-1.43-3.18-4.62-1.78-6.97Z"/>
      </g>
      <g>
        <g>
          <path class="cls-2" d="M10.93,27.97c0,.62,1.79,2.85,4.47,4.31-.64-1.41-.96-3.03-.16-4.38,1.08-1.81.88-3.42.54-4.43-2.89,1.44-4.85,3.85-4.85,4.5Z"/>
          <g>
            <path class="cls-2" d="M22.98,25.87c.74-1.24.87-2.38.78-3.31.7.09,1.32.21,1.86.36.23.06.44.13.65.2-.23.11-.45.23-.66.36-1.47.95-2.45,2.61-2.45,4.5,0,2.12,1.22,3.94,3,4.81-.35.13-.73.25-1.15.34-1.09-1.24-3.54-4.74-2.03-7.26Z"/>
            <path class="cls-2" d="M19.9,22.37c.09,0,.17,0,.26,0,.56,0,1.09.01,1.59.03.29,1.02.39,2.53-.61,4.2-1.36,2.29.53,5.39,1.7,6.87-.54.05-1.13.08-1.76.1-1.17-1.43-3.18-4.62-1.78-6.97,1.01-1.69.9-3.21.6-4.23Z"/>
            <path class="cls-2" d="M15.24,27.9c1.08-1.81.88-3.42.54-4.43.5-.25,1.02-.47,1.57-.64.43.86,1.08,2.81-.27,5.07-.99,1.66-.26,3.75.66,5.33-.83-.23-1.61-.57-2.34-.96-.64-1.41-.96-3.03-.16-4.38Z"/>
          </g>
          <path class="cls-2" d="M21.09,33.57c-1.17-1.43-3.18-4.62-1.78-6.97,1.01-1.69.9-3.21.6-4.23-.89.03-1.75.19-2.55.46.43.86,1.08,2.81-.27,5.07-.99,1.66-.26,3.75.66,5.33.77.22,1.58.34,2.42.34.32,0,.63,0,.92-.01Z"/>
          <path class="cls-2" d="M25.02,33.13c-1.09-1.24-3.54-4.74-2.03-7.26.74-1.24.87-2.38.78-3.31-.61-.08-1.28-.13-2.01-.16.29,1.02.39,2.53-.61,4.2-1.36,2.29.53,5.39,1.7,6.87.81-.07,1.53-.19,2.17-.34Z"/>
        </g>
        <g>
          <path class="cls-2" d="M25.62,22.91c.23.06.44.13.65.2-.23.11-.45.23-.66.36"/>
          <path class="cls-2" d="M23.76,22.56c.7.09,1.32.21,1.86.36,0,.18,0,.37-.01.56-1.47.95-2.45,2.61-2.45,4.5,0,2.12,1.22,3.94,3,4.81-.35.13-.73.25-1.15.34"/>
          <path class="cls-2" d="M21.09,33.57c-.3,0-.61.01-.92.01-.84,0-1.65-.13-2.42-.34"/>
          <path class="cls-2" d="M17.35,22.83c.81-.26,1.66-.43,2.55-.46"/>
          <path class="cls-2" d="M15.4,32.28c-2.68-1.46-4.47-3.69-4.47-4.31,0-.65,1.96-3.06,4.85-4.5"/>
          <path class="cls-2" d="M15.4,32.28c-.64-1.41-.96-3.03-.16-4.38,1.08-1.81.88-3.42.54-4.43.5-.25,1.02-.47,1.57-.64.43.86,1.08,2.81-.27,5.07-.99,1.66-.26,3.75.66,5.33-.83-.23-1.61-.57-2.34-.96Z"/>
          <path class="cls-2" d="M21.75,22.4c.74.03,1.41.08,2.01.16.09.92-.04,2.07-.78,3.31-1.5,2.53.95,6.03,2.03,7.26-.64.15-1.36.27-2.17.34"/>
          <path class="cls-2" d="M21.09,33.57c-1.17-1.43-3.18-4.62-1.78-6.97,1.01-1.69.9-3.21.6-4.23.09,0,.17,0,.26,0,.56,0,1.09.01,1.59.03.29,1.02.39,2.53-.61,4.2-1.36,2.29.53,5.39,1.7,6.87-.54.05-1.13.08-1.76.1Z"/>
        </g>
      </g>
      <path class="cls-2" d="M26.52,26.02c1.25.24,1.88.89,1.88,1.95,0,1.06-.63,1.71-1.87,1.95,1.81-1.77.04-3.86,0-3.9Z"/>
      <path class="cls-2" d="M12.53,27.1c0,.65.53,1.18,1.18,1.18s1.18-.53,1.18-1.18c0-.65-.53-1.18-1.18-1.18s-1.18.53-1.18,1.18Z"/>
      <path class="cls-2" d="M12.98,27.1c0,.41.33.73.73.73s.73-.33.73-.73c0-.41-.33-.73-.73-.73s-.73.33-.73.73Z"/>
    </g>
    <g>
      <path class="cls-2" d="M8.92,42.11c2.65,0,4.55.24,5.9.72-1.77.82-3,2.62-3,4.7,0,2.04,1.18,3.81,2.9,4.65-1.37.51-3.26.77-5.8.77-4.93,0-8.92-4.51-8.92-5.42,0-.92,4-5.42,8.92-5.42Z"/>
      <path class="cls-2" d="M11.51,48.48c.51.51,1.28,1.04,2.32,1.04,2.03,0,3.05-.66,3.05-1.99,0-1.33-1.02-1.99-3.05-1.99-.93,0-1.76.55-2.32,1.08"/>
      <path class="cls-2" d="M6.23,52.51c.02.15.73.58,2.15,1.11.85.32,2.46.75,2.79.13.09-.17-.2-.49-.73-.83"/>
      <g>
        <path class="cls-2" d="M14.2,42.64c.22.06.43.12.62.19-.22.1-.43.22-.63.35.01-.19.02-.37.01-.54Z"/>
        <path class="cls-2" d="M11.65,45.49c.71-1.2.85-2.3.75-3.2.68.08,1.27.2,1.8.34,0,.17,0,.36-.01.54-1.42.92-2.36,2.52-2.36,4.35,0,2.04,1.18,3.81,2.9,4.65-.34.13-.71.24-1.11.33-1.05-1.2-3.42-4.58-1.97-7.02Z"/>
        <path class="cls-2" d="M8.92,42.11c1.34,0,2.49.06,3.48.19.09.89-.04,2-.75,3.2-1.45,2.44.92,5.82,1.97,7.02-1.23.29-2.77.44-4.69.44-4.93,0-8.92-4.51-8.92-5.42,0-.92,4-5.42,8.92-5.42Z"/>
      </g>
      <g>
        <path class="cls-2" d="M14.2,42.64c.22.06.43.12.62.19-.22.1-.43.22-.63.35.01-.19.02-.37.01-.54Z"/>
        <path class="cls-2" d="M11.65,45.49c.71-1.2.85-2.3.75-3.2.68.08,1.27.2,1.8.34,0,.17,0,.36-.01.54-1.42.92-2.36,2.52-2.36,4.35,0,2.04,1.18,3.81,2.9,4.65-.34.13-.71.24-1.11.33-1.05-1.2-3.42-4.58-1.97-7.02Z"/>
        <path class="cls-2" d="M8.67,42.12c.29.98.4,2.45-.58,4.09-1.35,2.27.6,5.35,1.72,6.73-.29,0-.59.01-.89.01-4.93,0-8.92-4.51-8.92-5.42s3.86-5.26,8.67-5.41Z"/>
        <path class="cls-2" d="M9.87,46.2c.97-1.62.87-3.08.58-4.06.71.03,1.36.08,1.95.16.09.89-.04,2-.75,3.2-1.45,2.44.92,5.82,1.97,7.02-.62.15-1.31.25-2.1.33-1.13-1.43-2.97-4.42-1.65-6.64Z"/>
        <path class="cls-2" d="M8.09,46.2c.97-1.63.87-3.1.58-4.09.08,0,.17,0,.25,0,.54,0,1.05.01,1.53.03.28.98.38,2.44-.58,4.06-1.32,2.22.51,5.21,1.65,6.64-.53.05-1.09.08-1.7.1-1.13-1.39-3.08-4.47-1.72-6.73Z"/>
      </g>
      <g>
        <g>
          <path class="cls-2" d="M0,47.53c0,.6,1.73,2.76,4.32,4.16-.62-1.36-.93-2.93-.16-4.23,1.04-1.75.85-3.3.52-4.28C1.9,44.57,0,46.9,0,47.53Z"/>
          <g>
            <path class="cls-2" d="M11.65,45.49c.71-1.2.85-2.3.75-3.2.68.08,1.27.2,1.8.34.22.06.43.12.62.19-.22.1-.43.22-.63.35-1.42.92-2.37,2.53-2.37,4.35,0,2.04,1.18,3.81,2.9,4.65-.34.13-.71.24-1.11.33-1.05-1.19-3.42-4.58-1.97-7.02Z"/>
            <path class="cls-2" d="M8.67,42.12c.08,0,.17,0,.25,0,.54,0,1.05.01,1.53.03.28.98.38,2.44-.59,4.06-1.32,2.22.51,5.21,1.65,6.64-.53.05-1.09.08-1.7.1-1.13-1.39-3.08-4.47-1.72-6.73.97-1.64.87-3.1.58-4.09Z"/>
            <path class="cls-2" d="M4.17,47.46c1.04-1.75.85-3.3.52-4.28.48-.24.99-.45,1.52-.62.41.83,1.04,2.72-.26,4.9-.96,1.61-.26,3.62.64,5.16-.8-.22-1.56-.55-2.26-.92-.62-1.36-.93-2.93-.16-4.23Z"/>
          </g>
          <path class="cls-2" d="M9.82,52.93c-1.13-1.39-3.08-4.47-1.72-6.73.97-1.64.87-3.1.58-4.09-.86.03-1.69.19-2.47.44.41.83,1.04,2.72-.26,4.9-.96,1.61-.26,3.62.64,5.16.75.21,1.53.33,2.34.33.31,0,.6,0,.89-.01Z"/>
          <path class="cls-2" d="M13.61,52.51c-1.05-1.19-3.42-4.58-1.97-7.02.71-1.2.85-2.3.75-3.2-.59-.07-1.24-.12-1.95-.15.28.98.38,2.44-.59,4.06-1.32,2.22.51,5.21,1.65,6.64.78-.07,1.48-.18,2.1-.33Z"/>
        </g>
        <g>
          <path class="cls-2" d="M14.2,42.64c.22.06.43.12.62.19-.22.1-.43.22-.63.35"/>
          <path class="cls-2" d="M12.4,42.29c.68.08,1.27.2,1.8.34,0,.17,0,.36-.01.54-1.42.92-2.37,2.53-2.37,4.35,0,2.04,1.18,3.81,2.9,4.65-.34.13-.71.24-1.11.33"/>
          <path class="cls-2" d="M9.82,52.93c-.29,0-.59.01-.89.01-.81,0-1.6-.12-2.34-.33"/>
          <path class="cls-2" d="M6.21,42.56c.78-.25,1.61-.42,2.47-.44"/>
          <path class="cls-2" d="M4.32,51.69C1.73,50.29,0,48.13,0,47.53c0-.63,1.9-2.96,4.69-4.35"/>
          <path class="cls-2" d="M4.32,51.69c-.62-1.36-.93-2.93-.16-4.23,1.04-1.75.85-3.3.52-4.28.48-.24.99-.45,1.52-.62.41.83,1.04,2.72-.26,4.9-.96,1.61-.26,3.62.64,5.16-.8-.22-1.56-.55-2.26-.92Z"/>
          <path class="cls-2" d="M10.46,42.14c.71.03,1.36.08,1.95.15.09.89-.04,2-.75,3.2-1.45,2.44.92,5.82,1.97,7.02-.62.15-1.31.26-2.1.33"/>
          <path class="cls-2" d="M9.82,52.93c-1.13-1.39-3.08-4.47-1.72-6.73.97-1.64.87-3.1.58-4.09.08,0,.17,0,.25,0,.54,0,1.05.01,1.53.03.28.98.38,2.44-.59,4.06-1.32,2.22.51,5.21,1.65,6.64-.53.05-1.09.08-1.7.1Z"/>
        </g>
      </g>
      <path class="cls-2" d="M15.06,45.64c1.21.23,1.81.86,1.81,1.88,0,1.03-.6,1.65-1.81,1.88,1.75-1.71.04-3.73,0-3.77Z"/>
      <path class="cls-2" d="M1.54,46.68c0,.63.51,1.14,1.14,1.14s1.14-.51,1.14-1.14c0-.63-.51-1.14-1.14-1.14s-1.14.51-1.14,1.14Z"/>
      <path class="cls-2" d="M1.98,46.68c0,.39.32.71.71.71s.71-.32.71-.71c0-.39-.32-.71-.71-.71s-.71.32-.71.71Z"/>
    </g>
    <g>
      <path class="cls-2" d="M38.33,45.27c2.65,0,4.55.24,5.9.72-1.77.82-3,2.62-3,4.7,0,2.04,1.18,3.81,2.9,4.65-1.37.51-3.26.77-5.8.77-4.93,0-8.92-4.51-8.92-5.42,0-.92,4-5.42,8.92-5.42Z"/>
      <path class="cls-2" d="M40.91,51.64c.51.51,1.28,1.04,2.32,1.04,2.03,0,3.05-.66,3.05-1.99,0-1.33-1.02-1.99-3.05-1.99-.93,0-1.76.55-2.32,1.08"/>
      <path class="cls-2" d="M35.63,55.68c.02.15.73.58,2.15,1.11.85.32,2.46.75,2.79.13.09-.17-.2-.49-.73-.83"/>
      <g>
        <path class="cls-2" d="M43.6,45.8c.22.06.43.12.62.19-.22.1-.43.22-.63.35.01-.19.02-.37.01-.54Z"/>
        <path class="cls-2" d="M41.05,48.66c.71-1.2.85-2.3.75-3.2.68.08,1.27.2,1.8.34,0,.17,0,.36-.01.54-1.42.92-2.36,2.52-2.36,4.35,0,2.04,1.18,3.81,2.9,4.65-.34.13-.71.24-1.11.33-1.05-1.2-3.42-4.58-1.97-7.02Z"/>
        <path class="cls-2" d="M38.33,45.27c1.34,0,2.49.06,3.48.19.09.89-.04,2-.75,3.2-1.45,2.44.92,5.82,1.97,7.02-1.23.29-2.77.44-4.69.44-4.93,0-8.92-4.51-8.92-5.42,0-.92,4-5.42,8.92-5.42Z"/>
      </g>
      <g>
        <path class="cls-2" d="M43.6,45.8c.22.06.43.12.62.19-.22.1-.43.22-.63.35.01-.19.02-.37.01-.54Z"/>
        <path class="cls-2" d="M41.05,48.66c.71-1.2.85-2.3.75-3.2.68.08,1.27.2,1.8.34,0,.17,0,.36-.01.54-1.42.92-2.36,2.52-2.36,4.35,0,2.04,1.18,3.81,2.9,4.65-.34.13-.71.24-1.11.33-1.05-1.2-3.42-4.58-1.97-7.02Z"/>
        <path class="cls-2" d="M38.07,45.28c.29.98.4,2.45-.58,4.09-1.35,2.27.6,5.35,1.72,6.73-.29,0-.59.01-.89.01-4.93,0-8.92-4.51-8.92-5.42,0-.9,3.86-5.26,8.67-5.41Z"/>
        <path class="cls-2" d="M39.27,49.37c.97-1.62.87-3.08.58-4.06.71.03,1.36.08,1.95.16.09.89-.04,2-.75,3.2-1.45,2.44.92,5.82,1.97,7.02-.62.15-1.31.25-2.1.33-1.13-1.43-2.97-4.42-1.65-6.64Z"/>
        <path class="cls-2" d="M37.5,49.37c.97-1.63.87-3.1.58-4.09.08,0,.17,0,.25,0,.54,0,1.05.01,1.53.03.28.98.38,2.44-.58,4.06-1.32,2.22.51,5.21,1.65,6.64-.53.05-1.09.08-1.7.1-1.13-1.39-3.08-4.47-1.72-6.73Z"/>
      </g>
      <g>
        <g>
          <path class="cls-2" d="M29.4,50.69c0,.6,1.73,2.76,4.32,4.16-.62-1.36-.93-2.93-.16-4.23,1.04-1.75.85-3.3.52-4.28-2.79,1.39-4.69,3.72-4.69,4.35Z"/>
          <g>
            <path class="cls-2" d="M41.05,48.66c.71-1.2.85-2.3.75-3.2.68.08,1.27.2,1.8.34.22.06.43.12.62.19-.22.1-.43.22-.63.35-1.42.92-2.37,2.53-2.37,4.35,0,2.04,1.18,3.81,2.9,4.65-.34.13-.71.24-1.11.33-1.05-1.19-3.42-4.58-1.97-7.02Z"/>
            <path class="cls-2" d="M38.07,45.28c.08,0,.17,0,.25,0,.54,0,1.05.01,1.53.03.28.98.38,2.44-.59,4.06-1.32,2.22.51,5.21,1.65,6.64-.53.05-1.09.08-1.7.1-1.13-1.39-3.08-4.47-1.72-6.73.97-1.64.87-3.1.58-4.09Z"/>
            <path class="cls-2" d="M33.57,50.62c1.04-1.75.85-3.3.52-4.28.48-.24.99-.45,1.52-.62.41.83,1.04,2.72-.26,4.9-.96,1.61-.26,3.62.64,5.16-.8-.22-1.56-.55-2.26-.92-.62-1.36-.93-2.93-.16-4.23Z"/>
          </g>
          <path class="cls-2" d="M39.22,56.1c-1.13-1.39-3.08-4.47-1.72-6.73.97-1.64.87-3.1.58-4.09-.86.03-1.69.19-2.47.44.41.83,1.04,2.72-.26,4.9-.96,1.61-.26,3.62.64,5.16.75.21,1.53.33,2.34.33.31,0,.6,0,.89-.01Z"/>
          <path class="cls-2" d="M43.02,55.67c-1.05-1.19-3.42-4.58-1.97-7.02.71-1.2.85-2.3.75-3.2-.59-.07-1.24-.12-1.95-.15.28.98.38,2.44-.59,4.06-1.32,2.22.51,5.21,1.65,6.64.78-.07,1.48-.18,2.1-.33Z"/>
        </g>
        <g>
          <path class="cls-2" d="M43.6,45.8c.22.06.43.12.62.19-.22.1-.43.22-.63.35"/>
          <path class="cls-2" d="M41.8,45.46c.68.08,1.27.2,1.8.34,0,.17,0,.36-.01.54-1.42.92-2.37,2.53-2.37,4.35,0,2.04,1.18,3.81,2.9,4.65-.34.13-.71.24-1.11.33"/>
          <path class="cls-2" d="M39.22,56.1c-.29,0-.59.01-.89.01-.81,0-1.6-.12-2.34-.33"/>
          <path class="cls-2" d="M35.61,45.72c.78-.25,1.61-.42,2.47-.44"/>
          <path class="cls-2" d="M33.73,54.86c-2.59-1.41-4.32-3.57-4.32-4.16,0-.63,1.9-2.96,4.69-4.35"/>
          <path class="cls-2" d="M33.73,54.86c-.62-1.36-.93-2.93-.16-4.23,1.04-1.75.85-3.3.52-4.28.48-.24.99-.45,1.52-.62.41.83,1.04,2.72-.26,4.9-.96,1.61-.26,3.62.64,5.16-.8-.22-1.56-.55-2.26-.92Z"/>
          <path class="cls-2" d="M39.86,45.3c.71.03,1.36.08,1.95.15.09.89-.04,2-.75,3.2-1.45,2.44.92,5.82,1.97,7.02-.62.15-1.31.26-2.1.33"/>
          <path class="cls-2" d="M39.22,56.1c-1.13-1.39-3.08-4.47-1.72-6.73.97-1.64.87-3.1.58-4.09.08,0,.17,0,.25,0,.54,0,1.05.01,1.53.03.28.98.38,2.44-.59,4.06-1.32,2.22.51,5.21,1.65,6.64-.53.05-1.09.08-1.7.1Z"/>
        </g>
      </g>
      <path class="cls-2" d="M44.47,48.81c1.21.23,1.81.86,1.81,1.88,0,1.03-.6,1.65-1.81,1.88,1.75-1.71.04-3.73,0-3.77Z"/>
      <path class="cls-2" d="M30.95,49.85c0,.63.51,1.14,1.14,1.14s1.14-.51,1.14-1.14c0-.63-.51-1.14-1.14-1.14s-1.14.51-1.14,1.14Z"/>
      <path class="cls-2" d="M31.38,49.85c0,.39.32.71.71.71s.71-.32.71-.71c0-.39-.32-.71-.71-.71s-.71.32-.71.71Z"/>
    </g>
    <g>
      <path class="cls-2" d="M86,40.48c1.82,0,3.12.17,4.04.49-1.21.56-2.06,1.79-2.06,3.22s.81,2.61,1.99,3.19c-.94.35-2.23.53-3.98.53-3.38,0-6.12-3.09-6.12-3.71,0-.63,2.74-3.71,6.12-3.71Z"/>
      <path class="cls-2" d="M87.77,44.84c.35.35.88.71,1.59.71,1.39,0,2.09-.45,2.09-1.36s-.7-1.36-2.09-1.36c-.63,0-1.21.38-1.59.74"/>
      <path class="cls-2" d="M84.15,47.61c.01.1.5.4,1.47.76.59.22,1.69.52,1.91.09.06-.12-.14-.33-.5-.57"/>
      <g>
        <path class="cls-2" d="M89.62,40.84c.15.04.29.08.43.13-.15.07-.3.15-.43.24.01-.13.01-.25,0-.37Z"/>
        <path class="cls-2" d="M87.87,42.8c.49-.82.58-1.58.52-2.19.46.06.87.14,1.23.23,0,.12,0,.24,0,.37-.97.63-1.62,1.73-1.62,2.98,0,1.4.81,2.61,1.99,3.19-.23.09-.49.16-.76.23-.72-.82-2.34-3.14-1.35-4.81Z"/>
        <path class="cls-2" d="M86,40.48c.92,0,1.71.04,2.38.13.06.61-.03,1.37-.52,2.19-1,1.67.63,3.99,1.35,4.81-.84.2-1.9.3-3.21.3-3.38,0-6.12-3.09-6.12-3.71,0-.63,2.74-3.71,6.12-3.71Z"/>
      </g>
      <g>
        <path class="cls-2" d="M89.62,40.84c.15.04.29.08.43.13-.15.07-.3.15-.43.24.01-.13.01-.25,0-.37Z"/>
        <path class="cls-2" d="M87.87,42.8c.49-.82.58-1.58.52-2.19.46.06.87.14,1.23.23,0,.12,0,.24,0,.37-.97.63-1.62,1.73-1.62,2.98,0,1.4.81,2.61,1.99,3.19-.23.09-.49.16-.76.23-.72-.82-2.34-3.14-1.35-4.81Z"/>
        <path class="cls-2" d="M85.83,40.48c.2.67.27,1.68-.4,2.8-.93,1.55.41,3.66,1.18,4.61-.2,0-.4,0-.61,0-3.38,0-6.12-3.09-6.12-3.71,0-.62,2.65-3.61,5.94-3.71Z"/>
        <path class="cls-2" d="M86.65,43.28c.66-1.11.59-2.11.4-2.78.49.02.93.06,1.33.11.06.61-.03,1.37-.52,2.19-1,1.67.63,3.99,1.35,4.81-.42.1-.9.17-1.44.22-.78-.98-2.03-3.03-1.13-4.55Z"/>
        <path class="cls-2" d="M85.43,43.28c.67-1.12.59-2.13.4-2.8.06,0,.11,0,.17,0,.37,0,.72,0,1.05.02.19.67.26,1.67-.4,2.78-.9,1.52.35,3.57,1.13,4.55-.36.03-.75.05-1.17.07-.77-.95-2.11-3.06-1.18-4.61Z"/>
      </g>
      <g>
        <g>
          <path class="cls-2" d="M79.88,44.19c0,.41,1.19,1.89,2.96,2.85-.42-.93-.64-2.01-.11-2.9.71-1.2.58-2.26.36-2.94-1.91.95-3.21,2.55-3.21,2.98Z"/>
          <g>
            <path class="cls-2" d="M87.87,42.8c.49-.82.58-1.58.52-2.19.46.06.87.14,1.23.24.15.04.29.08.43.13-.15.07-.3.15-.43.24-.97.63-1.62,1.73-1.62,2.98,0,1.4.81,2.61,1.99,3.19-.23.09-.49.16-.76.23-.72-.82-2.34-3.14-1.35-4.81Z"/>
            <path class="cls-2" d="M85.83,40.48c.06,0,.11,0,.17,0,.37,0,.72,0,1.05.02.19.67.26,1.67-.4,2.78-.9,1.52.35,3.57,1.13,4.55-.36.03-.75.05-1.16.07-.77-.95-2.11-3.06-1.18-4.61.67-1.12.59-2.13.4-2.8Z"/>
            <path class="cls-2" d="M82.74,44.15c.71-1.2.58-2.26.36-2.94.33-.16.68-.31,1.04-.43.28.57.72,1.86-.18,3.36-.66,1.1-.18,2.48.44,3.53-.55-.15-1.07-.37-1.55-.63-.42-.93-.64-2.01-.11-2.9Z"/>
          </g>
          <path class="cls-2" d="M86.61,47.9c-.77-.95-2.11-3.06-1.18-4.61.67-1.12.59-2.13.4-2.8-.59.02-1.16.13-1.69.3.28.57.72,1.86-.18,3.36-.66,1.1-.18,2.48.44,3.53.51.14,1.05.23,1.61.23.21,0,.41,0,.61,0Z"/>
          <path class="cls-2" d="M89.21,47.61c-.72-.82-2.34-3.14-1.35-4.81.49-.82.58-1.58.52-2.19-.4-.05-.85-.09-1.33-.11.19.67.26,1.67-.4,2.78-.9,1.52.35,3.57,1.13,4.55.54-.05,1.01-.13,1.44-.23Z"/>
        </g>
        <g>
          <path class="cls-2" d="M89.62,40.84c.15.04.29.08.43.13-.15.07-.3.15-.43.24"/>
          <path class="cls-2" d="M88.38,40.61c.46.06.87.14,1.23.24,0,.12,0,.24,0,.37-.97.63-1.62,1.73-1.62,2.98,0,1.4.81,2.61,1.99,3.19-.23.09-.49.16-.76.23"/>
          <path class="cls-2" d="M86.61,47.9c-.2,0-.4,0-.61,0-.56,0-1.09-.08-1.61-.23"/>
          <path class="cls-2" d="M84.14,40.79c.53-.17,1.1-.28,1.69-.3"/>
          <path class="cls-2" d="M82.85,47.05c-1.78-.96-2.96-2.44-2.96-2.85,0-.43,1.3-2.03,3.21-2.98"/>
          <path class="cls-2" d="M82.85,47.05c-.42-.93-.64-2.01-.11-2.9.71-1.2.58-2.26.36-2.94.33-.16.68-.31,1.04-.43.28.57.72,1.86-.18,3.36-.66,1.1-.18,2.48.44,3.53-.55-.15-1.07-.37-1.55-.63Z"/>
          <path class="cls-2" d="M87.05,40.5c.49.02.93.06,1.33.11.06.61-.03,1.37-.52,2.19-1,1.67.63,3.99,1.35,4.81-.42.1-.9.18-1.44.23"/>
          <path class="cls-2" d="M86.61,47.9c-.77-.95-2.11-3.06-1.18-4.61.67-1.12.59-2.13.4-2.8.06,0,.11,0,.17,0,.37,0,.72,0,1.05.02.19.67.26,1.67-.4,2.78-.9,1.52.35,3.57,1.13,4.55-.36.03-.75.05-1.16.07Z"/>
        </g>
      </g>
      <path class="cls-2" d="M90.21,42.9c.83.16,1.24.59,1.24,1.29,0,.7-.41,1.13-1.24,1.29,1.2-1.17.02-2.55,0-2.58Z"/>
      <path class="cls-2" d="M80.94,43.61c0,.43.35.78.78.78s.78-.35.78-.78c0-.43-.35-.78-.78-.78s-.78.35-.78.78Z"/>
      <path class="cls-2" d="M81.24,43.61c0,.27.22.49.48.49s.49-.22.49-.49c0-.27-.22-.49-.49-.49s-.48.22-.48.49Z"/>
    </g>
  </g>
</svg>