<?xml version="1.0" encoding="UTF-8"?>
<svg xmlns="http://www.w3.org/2000/svg" viewBox="0 0 43.02 30.38">
  <defs>
    <style>
      .cls-1 {
        fill: #694393;
      }

      .cls-1, .cls-2, .cls-3, .cls-4, .cls-5, .cls-6, .cls-7 {
        stroke-width: 0px;
      }

      .cls-2 {
        fill: #000;
      }

      .cls-3 {
        fill: #115989;
      }

      .cls-8 {
        isolation: isolate;
      }

      .cls-4 {
        fill: #1180a3;
      }

      .cls-5 {
        fill: none;
      }

      .cls-6 {
        fill: #fff;
      }

      .cls-7 {
        fill: #42bfef;
        mix-blend-mode: multiply;
        opacity: .79;
      }
    </style>
  </defs>
  <g class="cls-8">
    <g id="Capa_1" data-name="Capa 1">
      <g>
        <path class="cls-5" d="M20.27,2.81c-6.77,0-11.61.62-15.04,1.83,4.51,2.09,7.64,6.65,7.64,11.95s-3.01,9.69-7.39,11.83c3.49,1.3,8.3,1.95,14.79,1.95,12.56,0,22.75-11.48,22.75-13.78S32.84,2.81,20.27,2.81Z"/>
        <path class="cls-4" d="M13.68,19.01c-1.3,1.3-3.27,2.65-5.91,2.65-5.18,0-7.77-1.67-7.77-5.06s2.59-5.06,7.77-5.06c2.36,0,4.49,1.41,5.92,2.75"/>
        <path class="cls-4" d="M25.35,3.95c-.04-.38-1.86-1.47-5.48-2.82-2.18-.81-6.27-1.91-7.12-.32-.23.44.52,1.24,1.87,2.12l10.74,1.02Z"/>
        <path class="cls-4" d="M43.02,16.6c0,1.52-4.42,7.02-11.02,10.59,1.58-3.46,2.37-7.46.4-10.77-2.66-4.44-2.16-8.41-1.32-10.89,7.11,3.53,11.94,9.46,11.94,11.07Z"/>
        <g>
          <path class="cls-3" d="M13.33,11.42c-1.82-3.04-2.16-5.86-1.92-8.14-1.72.22-3.24.51-4.58.87-.56.15-1.09.31-1.59.49.57.26,1.1.56,1.62.89,3.63,2.34,6.03,6.42,6.03,11.06,0,5.2-3.02,9.69-7.39,11.83.86.32,1.81.6,2.83.84,2.68-3.04,8.72-11.64,5.01-17.85Z"/>
          <path class="cls-3" d="M20.91,2.83c-.21,0-.43-.02-.64-.02-1.38,0-2.68.03-3.91.08-.72,2.5-.97,6.21,1.49,10.33,3.36,5.64-1.3,13.25-4.2,16.88,1.34.12,2.79.2,4.33.24,2.87-3.52,7.84-11.36,4.4-17.12-2.48-4.16-2.21-7.89-1.48-10.39Z"/>
          <path class="cls-3" d="M32.4,16.43c-2.66-4.44-2.16-8.41-1.32-10.89-1.23-.61-2.52-1.15-3.87-1.58-1.05,2.11-2.66,6.91.66,12.47,2.44,4.09.65,9.22-1.62,13.11,2.05-.57,3.98-1.39,5.75-2.35,1.58-3.46,2.37-7.46.4-10.77Z"/>
        </g>
        <path class="cls-4" d="M17.99,30.35c2.87-3.52,7.84-11.36,4.4-17.12-2.48-4.16-2.21-7.89-1.48-10.39,2.19.06,4.3.48,6.29,1.12-1.05,2.11-2.66,6.91.66,12.47,2.44,4.09.65,9.22-1.62,13.11-1.9.53-3.9.84-5.97.84-.79,0-1.54-.01-2.28-.03Z"/>
        <path class="cls-4" d="M8.32,29.27c2.68-3.04,8.72-11.64,5.01-17.85-1.82-3.04-2.16-5.86-1.92-8.14,1.5-.19,3.15-.32,4.96-.39-.72,2.5-.97,6.21,1.49,10.33,3.36,5.64-1.3,13.25-4.2,16.88-1.99-.18-3.77-.46-5.34-.84Z"/>
        <g>
          <path class="cls-5" d="M6.82,4.16c-.56.15-1.09.31-1.59.49.57.26,1.1.56,1.62.89"/>
          <path class="cls-5" d="M11.4,3.29c-1.72.22-3.24.51-4.58.87-.02.44-.01.9.03,1.38,3.63,2.34,6.03,6.42,6.03,11.06,0,5.2-3.02,9.69-7.39,11.83.86.32,1.81.6,2.83.84"/>
          <path class="cls-5" d="M17.99,30.35c.74.02,1.49.03,2.28.03,2.07,0,4.07-.31,5.97-.84"/>
          <path class="cls-5" d="M27.2,3.95c-1.99-.64-4.1-1.06-6.29-1.12"/>
          <path class="cls-5" d="M32,27.19c6.6-3.58,11.02-9.07,11.02-10.59,0-1.61-4.83-7.53-11.94-11.07"/>
          <path class="cls-5" d="M32,27.19c1.58-3.46,2.37-7.46.4-10.77-2.66-4.44-2.16-8.41-1.32-10.89-1.23-.61-2.52-1.15-3.87-1.58-1.05,2.11-2.66,6.91.66,12.47,2.44,4.09.65,9.22-1.62,13.11,2.05-.57,3.98-1.39,5.75-2.35Z"/>
          <path class="cls-5" d="M16.37,2.89c-1.81.07-3.46.2-4.96.39-.23,2.27.11,5.09,1.92,8.14,3.71,6.21-2.33,14.81-5.01,17.85,1.57.37,3.35.65,5.34.84"/>
          <path class="cls-5" d="M17.99,30.35c2.87-3.52,7.84-11.36,4.4-17.12-2.48-4.16-2.21-7.89-1.48-10.39-.21,0-.43-.02-.64-.02-1.38,0-2.68.03-3.91.08-.72,2.5-.97,6.21,1.49,10.33,3.36,5.64-1.3,13.25-4.2,16.88,1.34.12,2.79.2,4.33.24Z"/>
        </g>
        <path class="cls-7" d="M12.88,16.6c0,5.2-3.02,9.69-7.39,11.83.86.32,1.81.6,2.83.84,1.57.37,3.35.65,5.34.84,1.34.12,2.79.2,4.33.24.74.02,1.49.03,2.28.03,2.07,0,4.07-.31,5.97-.84,2.05-.57,3.98-1.39,5.75-2.35,6.59-3.57,11.01-9.05,11.02-10.58H12.88Z"/>
        <path class="cls-1" d="M4.62,11.81C1.54,12.4,0,13.99,0,16.6s1.54,4.2,4.62,4.79c-4.47-4.34-.09-9.48,0-9.59Z"/>
        <g>
          <path class="cls-6" d="M39.08,14.45c0,1.61-1.3,2.91-2.91,2.91s-2.91-1.3-2.91-2.91,1.3-2.91,2.91-2.91,2.91,1.3,2.91,2.91Z"/>
          <path class="cls-2" d="M37.98,14.45c0,1-.81,1.8-1.8,1.8s-1.8-.81-1.8-1.8.81-1.8,1.8-1.8,1.8.81,1.8,1.8Z"/>
        </g>
      </g>
    </g>
  </g>
</svg>