<?xml version="1.0" encoding="UTF-8"?>
<svg xmlns="http://www.w3.org/2000/svg" viewBox="0 0 36.92 32.39">
  <defs>
    <style>
      .cls-1 {
        fill: #b7cd00;
      }

      .cls-1, .cls-2, .cls-3, .cls-4, .cls-5, .cls-6, .cls-7, .cls-8 {
        stroke-width: 0px;
      }

      .cls-2 {
        fill: #000;
      }

      .cls-3 {
        fill: #cbd525;
      }

      .cls-9 {
        isolation: isolate;
      }

      .cls-4 {
        fill: #a4be18;
      }

      .cls-5 {
        fill: #c1d123;
      }

      .cls-6 {
        opacity: .62;
      }

      .cls-6, .cls-7 {
        fill: #bace2a;
        mix-blend-mode: multiply;
      }

      .cls-7 {
        opacity: .72;
      }

      .cls-8 {
        fill: #fff;
      }
    </style>
  </defs>
  <g class="cls-9">
    <g id="Capa_1" data-name="Capa 1">
      <g>
        <g>
          <path class="cls-4" d="M16.44,0s3.25,5.73-.26,10.49c2.81-3.3,8.59-5.33,12.86-1.83-.21-.25-6.88-8.1-12.6-8.67Z"/>
          <path class="cls-5" d="M0,24.14c2.28.08,7.58.01,11.64-2.19-.92-1.15-2.61-4.49-2.71-5.21-.09-.65,1.83-2.76,2.77-4.06-3.22-1.77-7.25-2.18-9.91-2.23,1.72,1.53,2.81,3.75,2.81,6.24,0,3.26-1.86,6.07-4.58,7.45Z"/>
          <path class="cls-4" d="M11.69,12.68c.75.41,1.45.89,2.09,1.46-1.66,2.33-2.56,2.67-2.56,2.67,0,0,0,0,0,0,0,0,0,.02.02.03,0,.01.01.03.02.03.81,1.4,1.64,2.6,2.48,3.62-.08.07-.17.14-.25.21-.57.48-1.19.88-1.84,1.24-.92-1.15-2.61-4.49-2.71-5.21-.09-.65,1.83-2.76,2.77-4.06Z"/>
          <path class="cls-4" d="M13.73,20.5c-.08.07-.17.14-.25.21,1.34,2.14,3.14,4.72,4.93,6.45,2.62,2.54.49,5.23.49,5.23,5.4-1.13,13.48-10.2,13.7-10.45-4.59,3.73-12.02,6.96-18.86-1.44Z"/>
          <path class="cls-3" d="M13.77,14.13c.46-.65.98-1.45,1.55-2.44.15-.26.32-.51.51-.76.11-.14.22-.27.32-.41.01-.01.02-.02.03-.03,2.81-3.3,8.59-5.33,12.86-1.83h0c.65.53,8.07,8.36,7.87,8.68-.43.71-2.01,2.71-4.32,4.59,0,0,0,0,0,0-4.59,3.73-12.02,6.96-18.86-1.44-.84-1.03-1.67-2.22-2.48-3.62,0,0,0-.02-.02-.03,0-.01-.01-.02-.02-.03,0,0,0,0,0,0,0,0,.9-.34,2.56-2.67ZM23.3,23.67c7.88-.25,12.36-7.14,8.09-9.74-2.18-1.33-3.89-4.13-7.47-4.13-5.63,0-9.82,6.72-9.41,7.91,1.5,4.34,5.28,6.08,8.79,5.96Z"/>
          <path class="cls-3" d="M13.77,14.13c.46-.65.98-1.45,1.55-2.44.15-.26.32-.51.51-.76.11-.14.22-.27.32-.41.01-.01.02-.02.03-.03,2.81-3.3,8.59-5.33,12.86-1.83h0c.65.53,8.07,8.36,7.87,8.68-.43.71-2.01,2.71-4.32,4.59,0,0,0,0,0,0-4.59,3.73-12.02,6.96-18.86-1.44-.84-1.03-1.67-2.22-2.48-3.62,0,0,0-.02-.02-.03,0-.01-.01-.02-.02-.03,0,0,0,0,0,0,0,0,.9-.34,2.56-2.67Z"/>
          <path class="cls-1" d="M16.15,10.53c-.11.14-.22.27-.32.41.11-.14.22-.27.32-.41Z"/>
        </g>
        <g>
          <path class="cls-7" d="M20.52,7.48c-1.66.63-3.15,1.67-4.23,2.89-.95,3.19-1.75,7.99-.07,12.67,1.55,1.29,3.11,2.07,4.64,2.45-1.41-3.63-3.39-10.9-.34-18.01Z"/>
          <path class="cls-7" d="M25.89,25.48c-1.14-3.94-1.97-12.32-.05-18.41-.83-.2-1.68-.26-2.52-.21-2.2,4.09-2.66,11.72-.33,18.93.99.03,1.96-.08,2.9-.31Z"/>
        </g>
        <path class="cls-6" d="M11.24,16.84s.01.03.02.03c.81,1.4,1.64,2.6,2.48,3.62,6.85,8.4,14.27,5.17,18.86,1.44,0,0,0,0,0,0,2.31-1.87,3.89-3.88,4.32-4.59l-25.71-.55s0,0,0,0c0,.01.01.02.02.03Z"/>
        <g>
          <path class="cls-8" d="M26.76,14.03c0,1.26,1.02,2.29,2.29,2.29s2.29-1.02,2.29-2.29-1.02-2.29-2.29-2.29-2.29,1.02-2.29,2.29Z"/>
          <path class="cls-2" d="M27.63,14.03c0,.78.63,1.42,1.42,1.42s1.42-.64,1.42-1.42-.64-1.42-1.42-1.42-1.42.64-1.42,1.42Z"/>
        </g>
      </g>
    </g>
  </g>
</svg>